Grandstander-BlackItalic.ufo
<glyph name="exclam" format="2">
  <advance width="708"/>
  <unicode hex="0021"/>
  <outline>
    <contour>
      <point x="492" y="469" type="curve"/>
      <point x="568" y="708"/>
      <point x="796" y="1344"/>
      <point x="838" y="1454" type="curve"/>
      <point x="379" y="1473" type="line"/>
      <point x="286" y="1128"/>
      <point x="216" y="800"/>
      <point x="159" y="486" type="curve"/>
      <point x="241" y="476"/>
      <point x="417" y="469"/>
    </contour>
    <contour>
      <point x="223" y="-27" type="curve" smooth="yes"/>
      <point x="369" y="-27"/>
      <point x="511" y="83"/>
      <point x="511" y="224" type="curve" smooth="yes"/>
      <point x="511" y="329"/>
      <point x="427" y="414"/>
      <point x="307" y="414" type="curve" smooth="yes"/>
      <point x="150" y="414"/>
      <point x="17" y="299"/>
      <point x="17" y="149" type="curve" smooth="yes"/>
      <point x="17" y="49"/>
      <point x="98" y="-27"/>
    </contour>
  </outline>
</glyph>
<glyph name="quotedbl" format="2">
  <advance width="764"/>
  <unicode hex="0022"/>
  <outline>
    <contour>
      <point x="447" y="1025" type="curve"/>
      <point x="500" y="1127"/>
      <point x="560" y="1299"/>
      <point x="584" y="1385" type="curve" smooth="yes"/>
      <point x="592" y="1413"/>
      <point x="595" y="1435"/>
      <point x="595" y="1450" type="curve"/>
      <point x="561" y="1455"/>
      <point x="521" y="1457"/>
      <point x="480" y="1457" type="curve" smooth="yes"/>
      <point x="411" y="1457"/>
      <point x="354" y="1451"/>
      <point x="281" y="1439" type="curve"/>
      <point x="261" y="1359"/>
      <point x="230" y="1205"/>
      <point x="230" y="1032" type="curve"/>
      <point x="264" y="1027"/>
      <point x="380" y="1025"/>
    </contour>
    <contour>
      <point x="560" y="1017" type="curve"/>
      <point x="597" y="1017"/>
      <point x="664" y="1022"/>
      <point x="784" y="1037" type="curve"/>
      <point x="830" y="1114"/>
      <point x="946" y="1337"/>
      <point x="967" y="1419" type="curve" smooth="yes"/>
      <point x="969" y="1427"/>
      <point x="970" y="1433"/>
      <point x="971" y="1439" type="curve"/>
      <point x="897" y="1451"/>
      <point x="763" y="1456"/>
      <point x="655" y="1456" type="curve"/>
      <point x="652" y="1447"/>
      <point x="648" y="1435"/>
      <point x="644" y="1420" type="curve" smooth="yes"/>
      <point x="618" y="1324"/>
      <point x="571" y="1095"/>
    </contour>
  </outline>
</glyph>
<glyph name="quotesingle" format="2">
  <advance width="462"/>
  <unicode hex="0027"/>
  <outline>
    <contour>
      <point x="616" y="1379" type="curve" smooth="yes"/>
      <point x="624" y="1411"/>
      <point x="631" y="1439"/>
      <point x="632" y="1451" type="curve"/>
      <point x="594" y="1456"/>
      <point x="554" y="1458"/>
      <point x="511" y="1458" type="curve" smooth="yes"/>
      <point x="441" y="1458"/>
      <point x="366" y="1452"/>
      <point x="290" y="1438" type="curve"/>
      <point x="268" y="1339"/>
      <point x="246" y="1049"/>
      <point x="246" y="975" type="curve"/>
      <point x="288" y="971"/>
      <point x="322" y="968"/>
      <point x="357" y="968" type="curve" smooth="yes"/>
      <point x="388" y="968"/>
      <point x="421" y="970"/>
      <point x="465" y="974" type="curve"/>
      <point x="522" y="1084"/>
      <point x="589" y="1271"/>
    </contour>
  </outline>
</glyph>
<glyph name="parenleft" format="2">
  <advance width="677"/>
  <unicode hex="0028"/>
  <outline>
    <contour>
      <point x="35" y="-537" type="curve"/>
      <point x="122" y="-502"/>
      <point x="335" y="-390"/>
      <point x="413" y="-342" type="curve"/>
      <point x="361" y="-237"/>
      <point x="336" y="-35"/>
      <point x="336" y="125" type="curve" smooth="yes"/>
      <point x="336" y="641"/>
      <point x="562" y="1032"/>
      <point x="895" y="1491" type="curve"/>
      <point x="819" y="1535"/>
      <point x="686" y="1581"/>
      <point x="542" y="1601" type="curve"/>
      <point x="182" y="1205"/>
      <point x="-71" y="618"/>
      <point x="-71" y="68" type="curve" smooth="yes"/>
      <point x="-71" y="-138"/>
      <point x="-37" y="-414"/>
    </contour>
  </outline>
</glyph>
<glyph name="asterisk" format="2">
  <advance width="969"/>
  <unicode hex="002A"/>
  <outline>
    <contour>
      <point x="892" y="915" type="curve"/>
      <point x="924" y="947"/>
      <point x="1080" y="1115"/>
      <point x="1105" y="1154" type="curve"/>
      <point x="1023" y="1207"/>
      <point x="855" y="1282"/>
      <point x="780" y="1308" type="curve"/>
      <point x="705" y="1371"/>
      <point x="495" y="1512"/>
      <point x="422" y="1556" type="curve"/>
      <point x="384" y="1521"/>
      <point x="250" y="1369"/>
      <point x="221" y="1326" type="curve"/>
      <point x="310" y="1274"/>
      <point x="532" y="1174"/>
      <point x="624" y="1138" type="curve"/>
      <point x="684" y="1073"/>
      <point x="824" y="957"/>
    </contour>
    <contour>
      <point x="570" y="833" type="curve" smooth="yes"/>
      <point x="633" y="833"/>
      <point x="696" y="838"/>
      <point x="718" y="842" type="curve"/>
      <point x="739" y="931"/>
      <point x="779" y="1151"/>
      <point x="796" y="1250" type="curve"/>
      <point x="828" y="1329"/>
      <point x="880" y="1482"/>
      <point x="912" y="1602" type="curve"/>
      <point x="891" y="1606"/>
      <point x="834" y="1609"/>
      <point x="775" y="1609" type="curve" smooth="yes"/>
      <point x="716" y="1609"/>
      <point x="655" y="1606"/>
      <point x="632" y="1602" type="curve"/>
      <point x="616" y="1521"/>
      <point x="588" y="1362"/>
      <point x="570" y="1250" type="curve"/>
      <point x="519" y="1118"/>
      <point x="452" y="937"/>
      <point x="426" y="842" type="curve"/>
      <point x="446" y="838"/>
      <point x="508" y="833"/>
    </contour>
    <contour>
      <point x="274" y="882" type="curve"/>
      <point x="394" y="940"/>
      <point x="553" y="1027"/>
      <point x="669" y="1091" type="curve"/>
      <point x="779" y="1135"/>
      <point x="1061" y="1265"/>
      <point x="1168" y="1318" type="curve"/>
      <point x="1162" y="1361"/>
      <point x="1109" y="1518"/>
      <point x="1090" y="1553" type="curve"/>
      <point x="992" y="1503"/>
      <point x="767" y="1371"/>
      <point x="667" y="1308" type="curve"/>
      <point x="560" y="1271"/>
      <point x="305" y="1181"/>
      <point x="195" y="1128" type="curve"/>
      <point x="200" y="1089"/>
      <point x="261" y="915"/>
    </contour>
  </outline>
</glyph>
<glyph name="plus" format="2">
  <advance width="1050"/>
  <unicode hex="002B"/>
  <outline>
    <contour>
      <point x="1001" y="542" type="curve"/>
      <point x="1014" y="574"/>
      <point x="1085" y="770"/>
      <point x="1121" y="904" type="curve"/>
      <point x="1020" y="887"/>
      <point x="806" y="880"/>
      <point x="597" y="880" type="curve" smooth="yes"/>
      <point x="392" y="880"/>
      <point x="192" y="887"/>
      <point x="111" y="897" type="curve"/>
      <point x="100" y="858"/>
      <point x="47" y="617"/>
      <point x="43" y="569" type="curve"/>
      <point x="195" y="546"/>
      <point x="491" y="528"/>
      <point x="726" y="528" type="curve" smooth="yes"/>
      <point x="841" y="528"/>
      <point x="940" y="532"/>
    </contour>
    <contour>
      <point x="879" y="1183" type="curve"/>
      <point x="847" y="1183"/>
      <point x="529" y="1169"/>
      <point x="487" y="1166" type="curve"/>
      <point x="478" y="1048"/>
      <point x="425" y="700"/>
      <point x="353" y="436" type="curve" smooth="yes"/>
      <point x="337" y="377"/>
      <point x="321" y="321"/>
      <point x="303" y="274" type="curve"/>
      <point x="341" y="269"/>
      <point x="591" y="260"/>
      <point x="637" y="260" type="curve"/>
      <point x="692" y="373"/>
      <point x="744" y="537"/>
      <point x="785" y="687" type="curve" smooth="yes"/>
      <point x="843" y="901"/>
      <point x="879" y="1108"/>
    </contour>
  </outline>
</glyph>
<glyph name="period" format="2">
  <advance width="632"/>
  <unicode hex="002E"/>
  <outline>
    <contour>
      <point x="270" y="414" type="curve" smooth="yes"/>
      <point x="118" y="414"/>
      <point x="-19" y="310"/>
      <point x="-19" y="143" type="curve" smooth="yes"/>
      <point x="-19" y="40"/>
      <point x="76" y="-38"/>
      <point x="190" y="-38" type="curve" smooth="yes"/>
      <point x="334" y="-38"/>
      <point x="462" y="62"/>
      <point x="462" y="234" type="curve" smooth="yes"/>
      <point x="462" y="333"/>
      <point x="380" y="414"/>
    </contour>
  </outline>
</glyph>
<glyph name="zero" format="2">
  <advance width="1087"/>
  <unicode hex="0030"/>
  <outline>
    <contour>
      <point x="408" y="-32" type="curve" smooth="yes"/>
      <point x="795" y="-32"/>
      <point x="1079" y="520"/>
      <point x="1079" y="969" type="curve" smooth="yes"/>
      <point x="1079" y="1193"/>
      <point x="982" y="1338"/>
      <point x="736" y="1338" type="curve" smooth="yes"/>
      <point x="327" y="1338"/>
      <point x="67" y="871"/>
      <point x="67" y="392" type="curve" smooth="yes"/>
      <point x="67" y="146"/>
      <point x="168" y="-32"/>
    </contour>
    <contour>
      <point x="489" y="345" type="curve" smooth="yes"/>
      <point x="451" y="345"/>
      <point x="419" y="373"/>
      <point x="419" y="467" type="curve" smooth="yes"/>
      <point x="419" y="636"/>
      <point x="534" y="1005"/>
      <point x="666" y="1005" type="curve" smooth="yes"/>
      <point x="716" y="1005"/>
      <point x="735" y="945"/>
      <point x="735" y="865" type="curve" smooth="yes"/>
      <point x="735" y="714"/>
      <point x="615" y="345"/>
    </contour>
  </outline>
</glyph>
<glyph name="three" format="2">
  <advance width="1032"/>
  <unicode hex="0033"/>
  <outline>
    <contour>
      <point x="357" y="-3" type="curve" smooth="yes"/>
      <point x="694" y="-3"/>
      <point x="925" y="173"/>
      <point x="925" y="458" type="curve" smooth="yes"/>
      <point x="925" y="589"/>
      <point x="854" y="704"/>
      <point x="737" y="736" type="curve"/>
      <point x="887" y="781"/>
      <point x="1021" y="913"/>
      <point x="1021" y="1071" type="curve" smooth="yes"/>
      <point x="1021" y="1241"/>
      <point x="888" y="1335"/>
      <point x="712" y="1335" type="curve" smooth="yes"/>
      <point x="437" y="1335"/>
      <point x="252" y="1190"/>
      <point x="201" y="1137" type="curve"/>
      <point x="206" y="1126"/>
      <point x="284" y="1014"/>
      <point x="373" y="925" type="curve"/>
      <point x="407" y="954"/>
      <point x="525" y="1024"/>
      <point x="595" y="1024" type="curve" smooth="yes"/>
      <point x="628" y="1024"/>
      <point x="644" y="1008"/>
      <point x="644" y="982" type="curve" smooth="yes"/>
      <point x="644" y="881"/>
      <point x="457" y="802"/>
      <point x="335" y="802" type="curve"/>
      <point x="305" y="690"/>
      <point x="296" y="599"/>
      <point x="296" y="544" type="curve"/>
      <point x="464" y="544"/>
      <point x="566" y="498"/>
      <point x="566" y="413" type="curve" smooth="yes"/>
      <point x="566" y="342"/>
      <point x="507" y="292"/>
      <point x="426" y="292" type="curve" smooth="yes"/>
      <point x="349" y="292"/>
      <point x="333" y="336"/>
      <point x="322" y="392" type="curve"/>
      <point x="220" y="361"/>
      <point x="71" y="297"/>
      <point x="-20" y="243" type="curve"/>
      <point x="2" y="75"/>
      <point x="136" y="-3"/>
    </contour>
  </outline>
</glyph>
<glyph name="four" format="2">
  <advance width="1104"/>
  <unicode hex="0034"/>
  <outline>
    <contour>
      <point x="994" y="289" type="curve"/>
      <point x="1020" y="385"/>
      <point x="1055" y="571"/>
      <point x="1056" y="590" type="curve"/>
      <point x="1036" y="591"/>
      <point x="966" y="593"/>
      <point x="918" y="593" type="curve"/>
      <point x="998" y="883"/>
      <point x="1125" y="1291"/>
      <point x="1141" y="1342" type="curve"/>
      <point x="1053" y="1342"/>
      <point x="819" y="1326"/>
      <point x="769" y="1318" type="curve"/>
      <point x="697" y="1251"/>
      <point x="265" y="746"/>
      <point x="102" y="538" type="curve"/>
      <point x="91" y="437"/>
      <point x="85" y="325"/>
      <point x="85" y="232" type="curve"/>
      <point x="140" y="238"/>
      <point x="380" y="260"/>
      <point x="499" y="267" type="curve"/>
      <point x="446" y="118"/>
      <point x="409" y="12"/>
      <point x="403" y="-10" type="curve"/>
      <point x="466" y="-10"/>
      <point x="680" y="5"/>
      <point x="765" y="22" type="curve"/>
      <point x="779" y="85"/>
      <point x="801" y="169"/>
      <point x="832" y="287" type="curve"/>
      <point x="892" y="289"/>
      <point x="937" y="289"/>
    </contour>
    <contour>
      <point x="750" y="935" type="curve"/>
      <point x="715" y="853"/>
      <point x="637" y="621"/>
      <point x="624" y="579" type="curve"/>
      <point x="559" y="579"/>
      <point x="477" y="568"/>
      <point x="449" y="564" type="curve"/>
      <point x="496" y="624"/>
      <point x="648" y="817"/>
    </contour>
  </outline>
</glyph>
<glyph name="five" format="2">
  <advance width="1137"/>
  <unicode hex="0035"/>
  <outline>
    <contour>
      <point x="-38" y="250" type="curve"/>
      <point x="27" y="67"/>
      <point x="264" y="-2"/>
      <point x="443" y="-2" type="curve" smooth="yes"/>
      <point x="791" y="-2"/>
      <point x="1098" y="270"/>
      <point x="1098" y="610" type="curve" smooth="yes"/>
      <point x="1098" y="806"/>
      <point x="993" y="942"/>
      <point x="803" y="942" type="curve" smooth="yes"/>
      <point x="714" y="942"/>
      <point x="634" y="909"/>
      <point x="599" y="869" type="curve"/>
      <point x="610" y="913"/>
      <point x="620" y="950"/>
      <point x="630" y="979" type="curve"/>
      <point x="748" y="998"/>
      <point x="1017" y="1026"/>
      <point x="1131" y="1026" type="curve"/>
      <point x="1131" y="1106"/>
      <point x="1131" y="1282"/>
      <point x="1126" y="1333" type="curve"/>
      <point x="922" y="1316"/>
      <point x="452" y="1238"/>
      <point x="291" y="1204" type="curve"/>
      <point x="265" y="1025"/>
      <point x="221" y="808"/>
      <point x="157" y="569" type="curve"/>
      <point x="184" y="568"/>
      <point x="273" y="566"/>
      <point x="312" y="566" type="curve" smooth="yes"/>
      <point x="399" y="566"/>
      <point x="450" y="571"/>
      <point x="495" y="577" type="curve"/>
      <point x="513" y="626"/>
      <point x="575" y="674"/>
      <point x="660" y="674" type="curve" smooth="yes"/>
      <point x="735" y="674"/>
      <point x="760" y="620"/>
      <point x="760" y="557" type="curve" smooth="yes"/>
      <point x="760" y="432"/>
      <point x="648" y="321"/>
      <point x="504" y="321" type="curve" smooth="yes"/>
      <point x="396" y="321"/>
      <point x="313" y="391"/>
      <point x="291" y="482" type="curve"/>
      <point x="234" y="456"/>
      <point x="40" y="333"/>
    </contour>
  </outline>
</glyph>
<glyph name="six" format="2">
  <advance width="1154"/>
  <unicode hex="0036"/>
  <outline>
    <contour>
      <point x="1088" y="1125" type="curve"/>
      <point x="1082" y="1216"/>
      <point x="1016" y="1369"/>
      <point x="975" y="1400" type="curve"/>
      <point x="495" y="1278"/>
      <point x="91" y="840"/>
      <point x="91" y="367" type="curve" smooth="yes"/>
      <point x="91" y="149"/>
      <point x="238" y="-9"/>
      <point x="486" y="-9" type="curve" smooth="yes"/>
      <point x="840" y="-9"/>
      <point x="1098" y="222"/>
      <point x="1098" y="541" type="curve" smooth="yes"/>
      <point x="1098" y="707"/>
      <point x="991" y="841"/>
      <point x="815" y="841" type="curve" smooth="yes"/>
      <point x="712" y="841"/>
      <point x="617" y="812"/>
      <point x="535" y="752" type="curve"/>
      <point x="672" y="950"/>
      <point x="945" y="1099"/>
    </contour>
    <contour>
      <point x="514" y="496" type="curve" smooth="yes"/>
      <point x="554" y="529"/>
      <point x="611" y="550"/>
      <point x="669" y="550" type="curve" smooth="yes"/>
      <point x="722" y="550"/>
      <point x="756" y="522"/>
      <point x="756" y="472" type="curve" smooth="yes"/>
      <point x="756" y="382"/>
      <point x="663" y="316"/>
      <point x="569" y="316" type="curve" smooth="yes"/>
      <point x="505" y="316"/>
      <point x="463" y="345"/>
      <point x="463" y="394" type="curve" smooth="yes"/>
      <point x="463" y="429"/>
      <point x="486" y="473"/>
    </contour>
  </outline>
</glyph>
<glyph name="seven" format="2">
  <advance width="1012"/>
  <unicode hex="0037"/>
  <outline>
    <contour>
      <point x="345" y="-52" type="curve"/>
      <point x="533" y="296"/>
      <point x="703" y="552"/>
      <point x="1145" y="1068" type="curve"/>
      <point x="1151" y="1101"/>
      <point x="1178" y="1344"/>
      <point x="1178" y="1379" type="curve"/>
      <point x="1005" y="1379"/>
      <point x="592" y="1325"/>
      <point x="298" y="1262" type="curve"/>
      <point x="277" y="1183"/>
      <point x="237" y="950"/>
      <point x="235" y="892" type="curve"/>
      <point x="297" y="910"/>
      <point x="502" y="956"/>
      <point x="677" y="985" type="curve"/>
      <point x="390" y="715"/>
      <point x="161" y="402"/>
      <point x="-44" y="83" type="curve"/>
      <point x="-27" y="75"/>
      <point x="229" y="-21"/>
    </contour>
  </outline>
</glyph>
<glyph name="eight" format="2">
  <advance width="1243"/>
  <unicode hex="0038"/>
  <outline>
    <contour>
      <point x="550" y="-11" type="curve" smooth="yes"/>
      <point x="854" y="-11"/>
      <point x="1148" y="167"/>
      <point x="1148" y="414" type="curve" smooth="yes"/>
      <point x="1148" y="564"/>
      <point x="1075" y="674"/>
      <point x="977" y="689" type="curve"/>
      <point x="1130" y="739"/>
      <point x="1250" y="913"/>
      <point x="1250" y="1082" type="curve" smooth="yes"/>
      <point x="1250" y="1280"/>
      <point x="1073" y="1375"/>
      <point x="844" y="1375" type="curve" smooth="yes"/>
      <point x="517" y="1375"/>
      <point x="247" y="1218"/>
      <point x="247" y="946" type="curve" smooth="yes"/>
      <point x="247" y="844"/>
      <point x="333" y="751"/>
      <point x="392" y="738" type="curve"/>
      <point x="212" y="677"/>
      <point x="47" y="502"/>
      <point x="47" y="303" type="curve" smooth="yes"/>
      <point x="47" y="86"/>
      <point x="248" y="-11"/>
    </contour>
    <contour>
      <point x="579" y="311" type="curve" smooth="yes"/>
      <point x="503" y="311"/>
      <point x="444" y="341"/>
      <point x="444" y="403" type="curve" smooth="yes"/>
      <point x="444" y="487"/>
      <point x="549" y="525"/>
      <point x="646" y="525" type="curve" smooth="yes"/>
      <point x="717" y="525"/>
      <point x="780" y="501"/>
      <point x="780" y="442" type="curve" smooth="yes"/>
      <point x="780" y="350"/>
      <point x="682" y="311"/>
    </contour>
    <contour>
      <point x="730" y="873" type="curve" smooth="yes"/>
      <point x="652" y="873"/>
      <point x="613" y="903"/>
      <point x="613" y="968" type="curve" smooth="yes"/>
      <point x="613" y="1048"/>
      <point x="697" y="1088"/>
      <point x="777" y="1088" type="curve" smooth="yes"/>
      <point x="843" y="1088"/>
      <point x="883" y="1064"/>
      <point x="883" y="1005" type="curve" smooth="yes"/>
      <point x="883" y="931"/>
      <point x="806" y="873"/>
    </contour>
  </outline>
</glyph>
<glyph name="nine" format="2">
  <advance width="1067"/>
  <unicode hex="0039"/>
  <outline>
    <contour>
      <point x="781" y="30" type="curve"/>
      <point x="908" y="267"/>
      <point x="1128" y="741"/>
      <point x="1128" y="992" type="curve" smooth="yes"/>
      <point x="1128" y="1221"/>
      <point x="991" y="1364"/>
      <point x="726" y="1364" type="curve" smooth="yes"/>
      <point x="391" y="1364"/>
      <point x="113" y="1160"/>
      <point x="113" y="820" type="curve" smooth="yes"/>
      <point x="113" y="613"/>
      <point x="219" y="489"/>
      <point x="456" y="489" type="curve" smooth="yes"/>
      <point x="546" y="489"/>
      <point x="622" y="510"/>
      <point x="653" y="540" type="curve"/>
      <point x="572" y="301"/>
      <point x="376" y="38"/>
      <point x="334" y="0" type="curve"/>
      <point x="512" y="0"/>
      <point x="687" y="12"/>
    </contour>
    <contour>
      <point x="673" y="1080" type="curve" smooth="yes"/>
      <point x="735" y="1080"/>
      <point x="775" y="1048"/>
      <point x="775" y="997" type="curve" smooth="yes"/>
      <point x="775" y="897"/>
      <point x="699" y="819"/>
      <point x="587" y="819" type="curve" smooth="yes"/>
      <point x="519" y="819"/>
      <point x="484" y="859"/>
      <point x="484" y="912" type="curve" smooth="yes"/>
      <point x="484" y="1016"/>
      <point x="570" y="1080"/>
    </contour>
  </outline>
</glyph>
<glyph name="colon" format="2">
  <advance width="564"/>
  <unicode hex="003A"/>
  <outline>
    <contour>
      <point x="176" y="-10" type="curve" smooth="yes"/>
      <point x="297" y="-10"/>
      <point x="396" y="76"/>
      <point x="396" y="201" type="curve" smooth="yes"/>
      <point x="396" y="333"/>
      <point x="305" y="436"/>
      <point x="174" y="436" type="curve" smooth="yes"/>
      <point x="47" y="436"/>
      <point x="-54" y="323"/>
      <point x="-54" y="199" type="curve" smooth="yes"/>
      <point x="-54" y="86"/>
      <point x="46" y="-10"/>
    </contour>
    <component base="period" xOffset="126" yOffset="638"/>
  </outline>
</glyph>
<glyph name="less" format="2">
  <advance width="807"/>
  <unicode hex="003C"/>
  <outline>
    <contour>
      <point x="756" y="1149" type="curve"/>
      <point x="660" y="1107"/>
      <point x="322" y="845"/>
      <point x="107" y="660" type="curve"/>
      <point x="25" y="368" type="line"/>
      <point x="226" y="301"/>
      <point x="406" y="216"/>
      <point x="581" y="128" type="curve"/>
      <point x="631" y="216"/>
      <point x="694" y="352"/>
      <point x="717" y="436" type="curve"/>
      <point x="660" y="478"/>
      <point x="359" y="597"/>
      <point x="304" y="617" type="curve"/>
      <point x="349" y="524" type="line"/>
      <point x="565" y="674"/>
      <point x="716" y="773"/>
      <point x="935" y="913" type="curve"/>
      <point x="930" y="986"/>
      <point x="828" y="1100"/>
    </contour>
  </outline>
</glyph>
<glyph name="equal" format="2">
  <advance width="1050"/>
  <unicode hex="003D"/>
  <outline>
    <contour>
      <point x="250" y="1103" type="curve"/>
      <point x="220" y="1068"/>
      <point x="151" y="862"/>
      <point x="133" y="797" type="curve"/>
      <point x="298" y="797"/>
      <point x="919" y="804"/>
      <point x="1102" y="807" type="curve"/>
      <point x="1112" y="846"/>
      <point x="1165" y="1125"/>
      <point x="1170" y="1173" type="curve"/>
      <point x="935" y="1173"/>
      <point x="402" y="1132"/>
    </contour>
    <contour>
      <point x="60" y="680" type="curve"/>
      <point x="42" y="614"/>
      <point x="-4" y="420"/>
      <point x="-4" y="384" type="curve"/>
      <point x="168" y="376"/>
      <point x="858" y="368"/>
      <point x="989" y="368" type="curve"/>
      <point x="1000" y="407"/>
      <point x="1049" y="660"/>
      <point x="1053" y="708" type="curve"/>
      <point x="989" y="712"/>
      <point x="910" y="714"/>
      <point x="823" y="714" type="curve" smooth="yes"/>
      <point x="587" y="714"/>
      <point x="289" y="700"/>
    </contour>
  </outline>
</glyph>
<glyph name="greater" format="2">
  <advance width="790"/>
  <unicode hex="003E"/>
  <outline>
    <contour>
      <point x="161" y="944" type="curve"/>
      <point x="260" y="871"/>
      <point x="483" y="699"/>
      <point x="535" y="655" type="curve"/>
      <point x="555" y="780" type="line"/>
      <point x="406" y="691"/>
      <point x="27" y="462"/>
      <point x="1" y="444" type="curve"/>
      <point x="1" y="383"/>
      <point x="54" y="220"/>
      <point x="72" y="169" type="curve"/>
      <point x="114" y="179"/>
      <point x="476" y="339"/>
      <point x="767" y="480" type="curve"/>
      <point x="852" y="831" type="line"/>
      <point x="703" y="963"/>
      <point x="490" y="1143"/>
      <point x="440" y="1157" type="curve"/>
      <point x="362" y="1121"/>
      <point x="235" y="1015"/>
    </contour>
  </outline>
</glyph>
<glyph name="question" format="2">
  <advance width="1036"/>
  <unicode hex="003F"/>
  <outline>
    <contour>
      <point x="705" y="468" type="curve"/>
      <point x="740" y="591"/>
      <point x="842" y="703"/>
      <point x="937" y="771" type="curve" smooth="yes"/>
      <point x="1090" y="880"/>
      <point x="1194" y="974"/>
      <point x="1194" y="1173" type="curve" smooth="yes"/>
      <point x="1194" y="1379"/>
      <point x="1017" y="1472"/>
      <point x="775" y="1472" type="curve" smooth="yes"/>
      <point x="522" y="1472"/>
      <point x="298" y="1350"/>
      <point x="152" y="1115" type="curve"/>
      <point x="425" y="930" type="line"/>
      <point x="542" y="1073"/>
      <point x="616" y="1124"/>
      <point x="695" y="1124" type="curve" smooth="yes"/>
      <point x="735" y="1124"/>
      <point x="767" y="1106"/>
      <point x="767" y="1073" type="curve" smooth="yes"/>
      <point x="767" y="1021"/>
      <point x="694" y="968"/>
      <point x="604" y="907" type="curve" smooth="yes"/>
      <point x="442" y="797"/>
      <point x="343" y="669"/>
      <point x="295" y="487" type="curve"/>
      <point x="434" y="473"/>
      <point x="530" y="468"/>
    </contour>
    <contour>
      <point x="403" y="-10" type="curve" smooth="yes"/>
      <point x="547" y="-10"/>
      <point x="696" y="96"/>
      <point x="696" y="234" type="curve" smooth="yes"/>
      <point x="696" y="333"/>
      <point x="614" y="403"/>
      <point x="488" y="403" type="curve" smooth="yes"/>
      <point x="349" y="403"/>
      <point x="203" y="309"/>
      <point x="203" y="166" type="curve" smooth="yes"/>
      <point x="203" y="55"/>
      <point x="288" y="-10"/>
    </contour>
  </outline>
</glyph>
<glyph name="B" format="2">
  <advance width="1174"/>
  <unicode hex="0042"/>
  <anchor x="444.585" y="0" name="bottom"/>
  <anchor x="790.507" y="1291" name="top"/>
  <outline>
    <contour>
      <point x="-53" y="27" type="curve"/>
      <point x="13" y="10"/>
      <point x="122" y="2"/>
      <point x="237" y="2" type="curve" smooth="yes"/>
      <point x="694" y="2"/>
      <point x="1102" y="136"/>
      <point x="1102" y="490" type="curve" smooth="yes"/>
      <point x="1102" y="637"/>
      <point x="1018" y="724"/>
      <point x="874" y="736" type="curve" smooth="yes"/>
      <point x="862" y="737"/>
      <point x="855" y="737"/>
      <point x="848" y="737" type="curve"/>
      <point x="1015" y="763"/>
      <point x="1166" y="895"/>
      <point x="1166" y="1063" type="curve" smooth="yes"/>
      <point x="1166" y="1229"/>
      <point x="1027" y="1306"/>
      <point x="817" y="1306" type="curve" smooth="yes"/>
      <point x="655" y="1306"/>
      <point x="428" y="1293"/>
      <point x="315" y="1285" type="curve"/>
      <point x="307" y="1256"/>
      <point x="-4" y="209"/>
    </contour>
    <contour>
      <point x="449" y="373" type="curve"/>
      <point x="485" y="543" type="line"/>
      <point x="532" y="548"/>
      <point x="564" y="550"/>
      <point x="598" y="550" type="curve" smooth="yes"/>
      <point x="707" y="550"/>
      <point x="731" y="524"/>
      <point x="731" y="493" type="curve" smooth="yes"/>
      <point x="731" y="403"/>
      <point x="596" y="372"/>
      <point x="501" y="372" type="curve" smooth="yes"/>
      <point x="480" y="372"/>
      <point x="461" y="372"/>
    </contour>
    <contour>
      <point x="564" y="857" type="curve"/>
      <point x="599" y="1012" type="line"/>
      <point x="641" y="1017"/>
      <point x="696" y="1023"/>
      <point x="729" y="1023" type="curve" smooth="yes"/>
      <point x="776" y="1023"/>
      <point x="809" y="998"/>
      <point x="809" y="962" type="curve" smooth="yes"/>
      <point x="809" y="886"/>
      <point x="702" y="857"/>
      <point x="619" y="857" type="curve" smooth="yes"/>
      <point x="602" y="857"/>
      <point x="584" y="857"/>
    </contour>
  </outline>
</glyph>
<glyph name="C" format="2">
  <advance width="1137"/>
  <unicode hex="0043"/>
  <anchor x="426.585" y="0" name="bottom"/>
  <anchor x="772.507" y="1291" name="top"/>
  <outline>
    <contour>
      <point x="1039" y="185" type="curve"/>
      <point x="1009" y="278"/>
      <point x="910" y="434"/>
      <point x="836" y="499" type="curve"/>
      <point x="745" y="426"/>
      <point x="657" y="390"/>
      <point x="588" y="390" type="curve" smooth="yes"/>
      <point x="504" y="390"/>
      <point x="475" y="464"/>
      <point x="475" y="563" type="curve" smooth="yes"/>
      <point x="475" y="757"/>
      <point x="581" y="982"/>
      <point x="744" y="982" type="curve" smooth="yes"/>
      <point x="849" y="982"/>
      <point x="889" y="855"/>
      <point x="890" y="834" type="curve"/>
      <point x="985" y="885"/>
      <point x="1152" y="995"/>
      <point x="1241" y="1070" type="curve"/>
      <point x="1184" y="1246"/>
      <point x="993" y="1326"/>
      <point x="791" y="1326" type="curve" smooth="yes"/>
      <point x="353" y="1326"/>
      <point x="33" y="930"/>
      <point x="33" y="473" type="curve" smooth="yes"/>
      <point x="33" y="198"/>
      <point x="201" y="-14"/>
      <point x="516" y="-14" type="curve" smooth="yes"/>
      <point x="730" y="-14"/>
      <point x="908" y="73"/>
    </contour>
  </outline>
</glyph>
<glyph name="G" format="2">
  <advance width="1275"/>
  <unicode hex="0047"/>
  <anchor x="495.585" y="0" name="bottom"/>
  <anchor x="841.507" y="1291" name="top"/>
  <outline>
    <contour>
      <point x="601" y="-48" type="curve" smooth="yes"/>
      <point x="942" y="-48"/>
      <point x="1145" y="209"/>
      <point x="1220" y="488" type="curve" smooth="yes"/>
      <point x="1233" y="537"/>
      <point x="1244" y="608"/>
      <point x="1244" y="652" type="curve"/>
      <point x="1118" y="691"/>
      <point x="866" y="726"/>
      <point x="731" y="726" type="curve"/>
      <point x="705" y="662"/>
      <point x="659" y="514"/>
      <point x="641" y="447" type="curve"/>
      <point x="685" y="447"/>
      <point x="794" y="434"/>
      <point x="828" y="423" type="curve"/>
      <point x="827" y="415"/>
      <point x="826" y="407"/>
      <point x="823" y="393" type="curve" smooth="yes"/>
      <point x="810" y="340"/>
      <point x="725" y="299"/>
      <point x="659" y="299" type="curve" smooth="yes"/>
      <point x="545" y="299"/>
      <point x="509" y="379"/>
      <point x="509" y="491" type="curve" smooth="yes"/>
      <point x="509" y="706"/>
      <point x="624" y="954"/>
      <point x="800" y="954" type="curve" smooth="yes"/>
      <point x="909" y="954"/>
      <point x="946" y="884"/>
      <point x="960" y="855" type="curve"/>
      <point x="1098" y="927"/>
      <point x="1277" y="1063"/>
      <point x="1336" y="1115" type="curve"/>
      <point x="1266" y="1270"/>
      <point x="1047" y="1338"/>
      <point x="865" y="1338" type="curve" smooth="yes"/>
      <point x="408" y="1338"/>
      <point x="112" y="922"/>
      <point x="112" y="447" type="curve" smooth="yes"/>
      <point x="112" y="135"/>
      <point x="284" y="-48"/>
    </contour>
  </outline>
</glyph>
<glyph name="H" format="2">
  <advance width="1094"/>
  <unicode hex="0048"/>
  <anchor x="404.585" y="0" name="bottom"/>
  <anchor x="711" y="1063" name="center"/>
  <anchor x="750.507" y="1291" name="top"/>
  <anchor x="223.507" y="1291" name="topleft"/>
  <outline>
    <contour>
      <point x="-23" y="5" type="curve"/>
      <point x="55" y="5"/>
      <point x="291" y="12"/>
      <point x="373" y="22" type="curve"/>
      <point x="381" y="53"/>
      <point x="442" y="311"/>
      <point x="478" y="468" type="curve"/>
      <point x="536" y="468"/>
      <point x="569" y="468"/>
      <point x="638" y="470" type="curve"/>
      <point x="594" y="321"/>
      <point x="560" y="195"/>
      <point x="512" y="2" type="curve"/>
      <point x="655" y="2"/>
      <point x="820" y="7"/>
      <point x="874" y="12" type="curve"/>
      <point x="909" y="139"/>
      <point x="982" y="386"/>
      <point x="1060" y="640" type="curve" smooth="yes"/>
      <point x="1152" y="939"/>
      <point x="1248" y="1234"/>
      <point x="1276" y="1299" type="curve"/>
      <point x="1230" y="1304"/>
      <point x="1124" y="1309"/>
      <point x="1021" y="1309" type="curve" smooth="yes"/>
      <point x="968" y="1309"/>
      <point x="906" y="1306"/>
      <point x="875" y="1304" type="curve"/>
      <point x="830" y="1142"/>
      <point x="775" y="956"/>
      <point x="731" y="812" type="curve"/>
      <point x="679" y="812"/>
      <point x="628" y="810"/>
      <point x="553" y="802" type="curve"/>
      <point x="565" y="850"/>
      <point x="594" y="973"/>
      <point x="614" y="1060" type="curve" smooth="yes"/>
      <point x="631" y="1133"/>
      <point x="655" y="1239"/>
      <point x="663" y="1297" type="curve"/>
      <point x="565" y="1297"/>
      <point x="311" y="1285"/>
      <point x="284" y="1282" type="curve"/>
      <point x="266" y="1228"/>
      <point x="242" y="1148"/>
      <point x="217" y="1052" type="curve" smooth="yes"/>
      <point x="125" y="699"/>
      <point x="-3" y="147"/>
    </contour>
  </outline>
</glyph>
<glyph name="K" format="2">
  <advance width="1115"/>
  <unicode hex="004B"/>
  <anchor x="415.585" y="0" name="bottom"/>
  <anchor x="761.507" y="1291" name="top"/>
  <outline>
    <contour>
      <point x="-58" y="-32" type="curve"/>
      <point x="118" y="-12"/>
      <point x="324" y="8"/>
      <point x="368" y="10" type="curve"/>
      <point x="381" y="56"/>
      <point x="422" y="272"/>
      <point x="447" y="409" type="curve"/>
      <point x="469" y="417"/>
      <point x="493" y="426"/>
      <point x="519" y="443" type="curve"/>
      <point x="551" y="355"/>
      <point x="608" y="102"/>
      <point x="623" y="-5" type="curve"/>
      <point x="746" y="31"/>
      <point x="946" y="121"/>
      <point x="1019" y="162" type="curve"/>
      <point x="1010" y="236"/>
      <point x="919" y="467"/>
      <point x="815" y="654" type="curve"/>
      <point x="962" y="767"/>
      <point x="1189" y="1043"/>
      <point x="1234" y="1118" type="curve"/>
      <point x="1188" y="1146"/>
      <point x="1056" y="1235"/>
      <point x="950" y="1326" type="curve"/>
      <point x="780" y="1097"/>
      <point x="624" y="892"/>
      <point x="529" y="809" type="curve"/>
      <point x="562" y="962"/>
      <point x="628" y="1226"/>
      <point x="646" y="1297" type="curve"/>
      <point x="609" y="1304"/>
      <point x="537" y="1311"/>
      <point x="457" y="1311" type="curve" smooth="yes"/>
      <point x="393" y="1311"/>
      <point x="309" y="1306"/>
      <point x="248" y="1296" type="curve"/>
      <point x="172" y="937"/>
      <point x="15" y="240"/>
    </contour>
  </outline>
</glyph>
<glyph name="L" format="2">
  <advance width="961"/>
  <unicode hex="004C"/>
  <anchor x="338.585" y="0" name="bottom"/>
  <anchor x="511.68" y="646" name="center"/>
  <anchor x="518" y="1300" name="top"/>
  <anchor x="701" y="911" name="topright"/>
  <outline>
    <contour>
      <point x="-56" y="31" type="curve"/>
      <point x="24" y="20"/>
      <point x="154" y="13"/>
      <point x="281" y="13" type="curve" smooth="yes"/>
      <point x="444" y="13"/>
      <point x="635" y="24"/>
      <point x="808" y="48" type="curve"/>
      <point x="840" y="166"/>
      <point x="888" y="379"/>
      <point x="892" y="439" type="curve"/>
      <point x="745" y="439"/>
      <point x="632" y="436"/>
      <point x="460" y="426" type="curve"/>
      <point x="483" y="488"/>
      <point x="506" y="553"/>
      <point x="527" y="617" type="curve" smooth="yes"/>
      <point x="627" y="921"/>
      <point x="709" y="1189"/>
      <point x="736" y="1292" type="curve"/>
      <point x="712" y="1297"/>
      <point x="628" y="1300"/>
      <point x="577" y="1300" type="curve" smooth="yes"/>
      <point x="461" y="1300"/>
      <point x="338" y="1289"/>
      <point x="288" y="1282" type="curve"/>
      <point x="257" y="1150"/>
      <point x="188" y="882"/>
      <point x="122" y="633" type="curve" smooth="yes"/>
      <point x="56" y="383"/>
      <point x="-19" y="141"/>
    </contour>
  </outline>
</glyph>
<glyph name="N" format="2">
  <advance width="1282"/>
  <unicode hex="004E"/>
  <anchor x="498.585" y="0" name="bottom"/>
  <anchor x="844.507" y="1291" name="top"/>
  <outline>
    <contour>
      <point x="386" y="-7" type="curve"/>
      <point x="420" y="121"/>
      <point x="514" y="533"/>
      <point x="528" y="637" type="curve"/>
      <point x="615" y="360"/>
      <point x="666" y="103"/>
      <point x="683" y="14" type="curve"/>
      <point x="731" y="5"/>
      <point x="811" y="2"/>
      <point x="891" y="2" type="curve" smooth="yes"/>
      <point x="944" y="2"/>
      <point x="996" y="3"/>
      <point x="1040" y="5" type="curve"/>
      <point x="1075" y="63"/>
      <point x="1190" y="418"/>
      <point x="1277" y="746" type="curve" smooth="yes"/>
      <point x="1325" y="926"/>
      <point x="1366" y="1097"/>
      <point x="1381" y="1207" type="curve"/>
      <point x="1322" y="1226"/>
      <point x="1094" y="1243"/>
      <point x="1003" y="1243" type="curve"/>
      <point x="851" y="532" type="line"/>
      <point x="818" y="752"/>
      <point x="765" y="1016"/>
      <point x="677" y="1236" type="curve"/>
      <point x="570" y="1253"/>
      <point x="355" y="1264"/>
      <point x="293" y="1264" type="curve"/>
      <point x="263" y="1111"/>
      <point x="190" y="825"/>
      <point x="120" y="566" type="curve" smooth="yes"/>
      <point x="45" y="287"/>
      <point x="-24" y="39"/>
      <point x="-31" y="21" type="curve"/>
      <point x="42" y="11"/>
      <point x="230" y="-7"/>
    </contour>
  </outline>
</glyph>
<glyph name="O" format="2">
  <advance width="1354"/>
  <unicode hex="004F"/>
  <anchor x="534.585" y="0" name="bottom"/>
  <anchor x="661" y="646" name="center"/>
  <anchor x="895" y="0" name="ogonek"/>
  <anchor x="880.507" y="1291" name="top"/>
  <anchor x="223.507" y="1291" name="topleft"/>
  <anchor x="1198" y="1190" name="topright"/>
  <outline>
    <contour>
      <point x="594" y="-51" type="curve" smooth="yes"/>
      <point x="1122" y="-51"/>
      <point x="1352" y="266"/>
      <point x="1352" y="797" type="curve" smooth="yes"/>
      <point x="1352" y="1107"/>
      <point x="1212" y="1320"/>
      <point x="822" y="1320" type="curve" smooth="yes"/>
      <point x="341" y="1320"/>
      <point x="64" y="991"/>
      <point x="64" y="459" type="curve" smooth="yes"/>
      <point x="64" y="165"/>
      <point x="234" y="-51"/>
    </contour>
    <contour>
      <point x="659" y="350" type="curve" smooth="yes"/>
      <point x="518" y="350"/>
      <point x="469" y="469"/>
      <point x="469" y="578" type="curve" smooth="yes"/>
      <point x="469" y="817"/>
      <point x="578" y="995"/>
      <point x="799" y="995" type="curve" smooth="yes"/>
      <point x="946" y="995"/>
      <point x="983" y="874"/>
      <point x="983" y="758" type="curve" smooth="yes"/>
      <point x="983" y="513"/>
      <point x="886" y="350"/>
    </contour>
  </outline>
</glyph>
<glyph name="P" format="2">
  <advance width="1010"/>
  <unicode hex="0050"/>
  <anchor x="343" y="0" name="bottom"/>
  <anchor x="689" y="1291" name="top"/>
  <outline>
    <contour>
      <point x="-81" y="-4" type="curve"/>
      <point x="5" y="-10"/>
      <point x="242" y="-14"/>
      <point x="318" y="-14" type="curve"/>
      <point x="349" y="85"/>
      <point x="447" y="421"/>
      <point x="465" y="491" type="curve"/>
      <point x="478" y="482"/>
      <point x="544" y="474"/>
      <point x="574" y="474" type="curve" smooth="yes"/>
      <point x="874" y="474"/>
      <point x="1109" y="711"/>
      <point x="1109" y="989" type="curve" smooth="yes"/>
      <point x="1109" y="1193"/>
      <point x="956" y="1292"/>
      <point x="726" y="1292" type="curve" smooth="yes"/>
      <point x="583" y="1292"/>
      <point x="439" y="1283"/>
      <point x="299" y="1256" type="curve"/>
      <point x="230" y="1087"/>
      <point x="-74" y="25"/>
    </contour>
    <contour>
      <point x="542" y="811" type="curve"/>
      <point x="552" y="849"/>
      <point x="586" y="987"/>
      <point x="589" y="1003" type="curve"/>
      <point x="615" y="1006"/>
      <point x="644" y="1009"/>
      <point x="671" y="1009" type="curve" smooth="yes"/>
      <point x="730" y="1009"/>
      <point x="768" y="986"/>
      <point x="768" y="919" type="curve" smooth="yes"/>
      <point x="768" y="860"/>
      <point x="715" y="804"/>
      <point x="625" y="804" type="curve" smooth="yes"/>
      <point x="595" y="804"/>
      <point x="558" y="807"/>
    </contour>
  </outline>
</glyph>
<glyph name="R" format="2">
  <advance width="1094"/>
  <unicode hex="0052"/>
  <anchor x="404.585" y="0" name="bottom"/>
  <anchor x="702" y="1331" name="top"/>
  <outline>
    <contour>
      <point x="-51" y="-24" type="curve"/>
      <point x="82" y="-24"/>
      <point x="260" y="-20"/>
      <point x="365" y="2" type="curve"/>
      <point x="400" y="130"/>
      <point x="466" y="469"/>
      <point x="477" y="561" type="curve"/>
      <point x="504" y="562"/>
      <point x="516" y="564"/>
      <point x="544" y="569" type="curve"/>
      <point x="553" y="495"/>
      <point x="555" y="129"/>
      <point x="555" y="-21" type="curve"/>
      <point x="586" y="-19"/>
      <point x="821" y="26"/>
      <point x="963" y="89" type="curve"/>
      <point x="956" y="154"/>
      <point x="899" y="551"/>
      <point x="880" y="653" type="curve"/>
      <point x="1048" y="733"/>
      <point x="1162" y="845"/>
      <point x="1162" y="1026" type="curve" smooth="yes"/>
      <point x="1162" y="1263"/>
      <point x="972" y="1331"/>
      <point x="716" y="1331" type="curve" smooth="yes"/>
      <point x="566" y="1331"/>
      <point x="367" y="1321"/>
      <point x="238" y="1303" type="curve"/>
      <point x="143" y="852"/>
      <point x="25" y="297"/>
    </contour>
    <contour>
      <point x="520" y="855" type="curve"/>
      <point x="528" y="903"/>
      <point x="539" y="981"/>
      <point x="547" y="1038" type="curve"/>
      <point x="570" y="1041"/>
      <point x="621" y="1047"/>
      <point x="664" y="1047" type="curve" smooth="yes"/>
      <point x="768" y="1047"/>
      <point x="807" y="1028"/>
      <point x="807" y="964" type="curve" smooth="yes"/>
      <point x="807" y="896"/>
      <point x="715" y="869"/>
      <point x="634" y="862" type="curve" smooth="yes"/>
      <point x="581" y="857"/>
      <point x="550" y="855"/>
    </contour>
  </outline>
</glyph>
<glyph name="S" format="2">
  <advance width="1152"/>
  <unicode hex="0053"/>
  <anchor x="463" y="0" name="bottom"/>
  <anchor x="730" y="1339" name="top"/>
  <outline>
    <contour>
      <point x="463" y="-18" type="curve" smooth="yes"/>
      <point x="784" y="-18"/>
      <point x="1073" y="155"/>
      <point x="1073" y="472" type="curve" smooth="yes"/>
      <point x="1073" y="690"/>
      <point x="920" y="795"/>
      <point x="682" y="891" type="curve" smooth="yes"/>
      <point x="617" y="917"/>
      <point x="594" y="945"/>
      <point x="594" y="974" type="curve" smooth="yes"/>
      <point x="594" y="1033"/>
      <point x="661" y="1056"/>
      <point x="724" y="1056" type="curve" smooth="yes"/>
      <point x="786" y="1056"/>
      <point x="879" y="1017"/>
      <point x="951" y="928" type="curve"/>
      <point x="1032" y="976"/>
      <point x="1144" y="1085"/>
      <point x="1220" y="1181" type="curve"/>
      <point x="1102" y="1333"/>
      <point x="902" y="1349"/>
      <point x="733" y="1349" type="curve" smooth="yes"/>
      <point x="447" y="1349"/>
      <point x="200" y="1197"/>
      <point x="200" y="916" type="curve" smooth="yes"/>
      <point x="200" y="727"/>
      <point x="343" y="641"/>
      <point x="539" y="547" type="curve" smooth="yes"/>
      <point x="665" y="486"/>
      <point x="677" y="429"/>
      <point x="677" y="385" type="curve" smooth="yes"/>
      <point x="677" y="332"/>
      <point x="618" y="287"/>
      <point x="542" y="287" type="curve" smooth="yes"/>
      <point x="434" y="287"/>
      <point x="363" y="347"/>
      <point x="287" y="460" type="curve"/>
      <point x="208" y="426"/>
      <point x="-10" y="231"/>
      <point x="-36" y="200" type="curve"/>
      <point x="75" y="13"/>
      <point x="296" y="-18"/>
    </contour>
  </outline>
</glyph>
<glyph name="V" format="2">
  <advance width="1183"/>
  <unicode hex="0056"/>
  <anchor x="450" y="0" name="bottom"/>
  <anchor x="796" y="1291" name="top"/>
  <outline>
    <contour>
      <point x="501" y="-22" type="curve" smooth="yes"/>
      <point x="586" y="-22"/>
      <point x="670" y="-21"/>
      <point x="718" y="-16" type="curve"/>
      <point x="769" y="69"/>
      <point x="1186" y="836"/>
      <point x="1389" y="1301" type="curve"/>
      <point x="1268" y="1342"/>
      <point x="1083" y="1366"/>
      <point x="951" y="1366" type="curve"/>
      <point x="924" y="1287"/>
      <point x="716" y="720"/>
      <point x="603" y="428" type="curve"/>
      <point x="650" y="857"/>
      <point x="657" y="1244"/>
      <point x="657" y="1359" type="curve"/>
      <point x="551" y="1359"/>
      <point x="341" y="1340"/>
      <point x="206" y="1301" type="curve"/>
      <point x="206" y="945"/>
      <point x="228" y="221"/>
      <point x="265" y="-10" type="curve"/>
      <point x="313" y="-16"/>
      <point x="407" y="-22"/>
    </contour>
  </outline>
</glyph>
<glyph name="W" format="2">
  <advance width="1344"/>
  <unicode hex="0057"/>
  <anchor x="529.585" y="0" name="bottom"/>
  <anchor x="875.507" y="1291" name="top"/>
  <outline>
    <contour>
      <point x="630" y="-15" type="curve"/>
      <point x="1008" y="24" type="line"/>
      <point x="1065" y="139"/>
      <point x="1419" y="832"/>
      <point x="1568" y="1391" type="curve"/>
      <point x="1169" y="1350" type="line"/>
      <point x="1118" y="1159"/>
      <point x="999" y="773"/>
      <point x="892" y="498" type="curve"/>
      <point x="902" y="652"/>
      <point x="924" y="873"/>
      <point x="933" y="973" type="curve"/>
      <point x="673" y="945" type="line"/>
      <point x="618" y="859"/>
      <point x="520" y="705"/>
      <point x="452" y="586" type="curve"/>
      <point x="517" y="790"/>
      <point x="632" y="1159"/>
      <point x="681" y="1340" type="curve"/>
      <point x="250" y="1356" type="line"/>
      <point x="103" y="807"/>
      <point x="21" y="173"/>
      <point x="2" y="21" type="curve"/>
      <point x="405" y="3" type="line"/>
      <point x="473" y="106"/>
      <point x="575" y="291"/>
      <point x="642" y="416" type="curve"/>
      <point x="632" y="280"/>
      <point x="626" y="97"/>
    </contour>
  </outline>
</glyph>
<glyph name="Y" format="2">
  <advance width="1065"/>
  <unicode hex="0059"/>
  <anchor x="411" y="0" name="bottom"/>
  <anchor x="757" y="1291" name="top"/>
  <anchor x="244" y="1291" name="topleft"/>
  <outline>
    <contour>
      <point x="409" y="583" type="curve"/>
      <point x="376" y="522"/>
      <point x="304" y="271"/>
      <point x="234" y="24" type="curve"/>
      <point x="281" y="14"/>
      <point x="367" y="7"/>
      <point x="448" y="7" type="curve" smooth="yes"/>
      <point x="525" y="7"/>
      <point x="598" y="14"/>
      <point x="617" y="22" type="curve"/>
      <point x="624" y="40"/>
      <point x="655" y="147"/>
      <point x="678" y="236" type="curve" smooth="yes"/>
      <point x="698" y="312"/>
      <point x="737" y="477"/>
      <point x="768" y="612" type="curve"/>
      <point x="941" y="836"/>
      <point x="1151" y="1074"/>
      <point x="1273" y="1192" type="curve"/>
      <point x="1201" y="1242"/>
      <point x="1038" y="1304"/>
      <point x="905" y="1309" type="curve"/>
      <point x="834" y="1241"/>
      <point x="695" y="1037"/>
      <point x="653" y="972" type="curve"/>
      <point x="631" y="1063"/>
      <point x="602" y="1262"/>
      <point x="594" y="1325" type="curve"/>
      <point x="509" y="1325"/>
      <point x="371" y="1308"/>
      <point x="201" y="1250" type="curve"/>
      <point x="249" y="950"/>
      <point x="323" y="768"/>
    </contour>
  </outline>
</glyph>
<glyph name="Z" format="2">
  <advance width="1044"/>
  <unicode hex="005A"/>
  <anchor x="379.585" y="0" name="bottom"/>
  <anchor x="552.68" y="646" name="center"/>
  <anchor x="725.507" y="1291" name="top"/>
  <outline>
    <contour>
      <point x="838" y="-14" type="curve"/>
      <point x="855" y="18"/>
      <point x="890" y="113"/>
      <point x="914" y="202" type="curve" smooth="yes"/>
      <point x="934" y="277"/>
      <point x="951" y="356"/>
      <point x="958" y="397" type="curve"/>
      <point x="852" y="392"/>
      <point x="744" y="387"/>
      <point x="658" y="387" type="curve" smooth="yes"/>
      <point x="577" y="387"/>
      <point x="545" y="389"/>
      <point x="521" y="393" type="curve"/>
      <point x="649" y="509"/>
      <point x="1041" y="897"/>
      <point x="1143" y="1005" type="curve"/>
      <point x="1153" y="1025"/>
      <point x="1175" y="1093"/>
      <point x="1194" y="1166" type="curve" smooth="yes"/>
      <point x="1209" y="1225"/>
      <point x="1224" y="1288"/>
      <point x="1227" y="1330" type="curve"/>
      <point x="1196" y="1334"/>
      <point x="1100" y="1336"/>
      <point x="1048" y="1336" type="curve" smooth="yes"/>
      <point x="835" y="1336"/>
      <point x="467" y="1306"/>
      <point x="353" y="1294" type="curve"/>
      <point x="338" y="1256"/>
      <point x="320" y="1198"/>
      <point x="303" y="1135" type="curve" smooth="yes"/>
      <point x="288" y="1080"/>
      <point x="274" y="1011"/>
      <point x="267" y="969" type="curve"/>
      <point x="400" y="977"/>
      <point x="637" y="991"/>
      <point x="699" y="991" type="curve"/>
      <point x="628" y="912"/>
      <point x="242" y="546"/>
      <point x="59" y="388" type="curve"/>
      <point x="34" y="297"/>
      <point x="-14" y="99"/>
      <point x="-29" y="22" type="curve"/>
      <point x="315" y="-3"/>
      <point x="602" y="-14"/>
    </contour>
  </outline>
</glyph>
<glyph name="backslash" format="2">
  <advance width="725"/>
  <unicode hex="005C"/>
  <outline>
    <contour>
      <point x="620" y="31" type="curve"/>
      <point x="542" y="537"/>
      <point x="503" y="838"/>
      <point x="503" y="1477" type="curve"/>
      <point x="360" y="1467"/>
      <point x="209" y="1427"/>
      <point x="144" y="1367" type="curve"/>
      <point x="144" y="822"/>
      <point x="173" y="382"/>
      <point x="261" y="-120" type="curve"/>
      <point x="374" y="-95"/>
      <point x="486" y="-46"/>
    </contour>
  </outline>
</glyph>
<glyph name="bracketright" format="2">
  <advance width="619"/>
  <unicode hex="005D"/>
  <outline>
    <contour>
      <point x="662" y="573" type="curve" smooth="yes"/>
      <point x="756" y="924"/>
      <point x="834" y="1308"/>
      <point x="855" y="1645" type="curve"/>
      <point x="741" y="1669"/>
      <point x="622" y="1679"/>
      <point x="481" y="1679" type="curve" smooth="yes"/>
      <point x="442" y="1679"/>
      <point x="382" y="1678"/>
      <point x="352" y="1676" type="curve"/>
      <point x="329" y="1625"/>
      <point x="297" y="1523"/>
      <point x="272" y="1436" type="curve" smooth="yes"/>
      <point x="266" y="1415"/>
      <point x="261" y="1395"/>
      <point x="257" y="1377" type="curve"/>
      <point x="315" y="1375"/>
      <point x="373" y="1375"/>
      <point x="436" y="1375" type="curve"/>
      <point x="429" y="1247"/>
      <point x="367" y="947"/>
      <point x="282" y="629" type="curve" smooth="yes"/>
      <point x="205" y="342"/>
      <point x="109" y="42"/>
      <point x="21" y="-160" type="curve"/>
      <point x="-22" y="-170"/>
      <point x="-107" y="-181"/>
      <point x="-138" y="-181" type="curve"/>
      <point x="-158" y="-260"/>
      <point x="-194" y="-403"/>
      <point x="-213" y="-494" type="curve"/>
      <point x="-79" y="-494"/>
      <point x="133" y="-488"/>
      <point x="299" y="-450" type="curve"/>
      <point x="395" y="-269"/>
      <point x="542" y="126"/>
    </contour>
  </outline>
</glyph>
<glyph name="asciicircum" format="2">
  <advance width="1032"/>
  <unicode hex="005E"/>
  <outline>
    <contour>
      <point x="911" y="1325" type="curve"/>
      <point x="886" y="1334"/>
      <point x="833" y="1337"/>
      <point x="776" y="1337" type="curve" smooth="yes"/>
      <point x="720" y="1337"/>
      <point x="662" y="1332"/>
      <point x="624" y="1326" type="curve"/>
      <point x="479" y="1217"/>
      <point x="246" y="976"/>
      <point x="96" y="812" type="curve"/>
      <point x="164" y="726"/>
      <point x="277" y="679"/>
      <point x="369" y="667" type="curve"/>
      <point x="458" y="788"/>
      <point x="628" y="992"/>
      <point x="833" y="1124" type="curve"/>
      <point x="649" y="1135" type="line"/>
      <point x="735" y="972"/>
      <point x="738" y="849"/>
      <point x="738" y="699" type="curve"/>
      <point x="895" y="725"/>
      <point x="1002" y="759"/>
      <point x="1070" y="805" type="curve"/>
      <point x="1049" y="1025"/>
      <point x="982" y="1209"/>
    </contour>
  </outline>
</glyph>
<glyph name="underscore" format="2">
  <advance width="1549"/>
  <unicode hex="005F"/>
  <outline>
    <contour>
      <point x="95" y="30" type="curve" smooth="yes"/>
      <point x="40" y="30"/>
      <point x="-13" y="30"/>
      <point x="-64" y="32" type="curve"/>
      <point x="-81" y="-55"/>
      <point x="-115" y="-251"/>
      <point x="-122" y="-301" type="curve"/>
      <point x="228" y="-310"/>
      <point x="514" y="-313"/>
      <point x="737" y="-313" type="curve" smooth="yes"/>
      <point x="999" y="-313"/>
      <point x="1173" y="-309"/>
      <point x="1261" y="-306" type="curve"/>
      <point x="1297" y="-221"/>
      <point x="1346" y="-72"/>
      <point x="1383" y="65" type="curve"/>
      <point x="1168" y="55"/>
      <point x="570" y="30"/>
    </contour>
  </outline>
</glyph>
<glyph name="c" format="2">
  <advance width="1026"/>
  <unicode hex="0063"/>
  <anchor x="403" y="0" name="bottom"/>
  <anchor x="655.415" y="1063" name="top"/>
  <outline>
    <contour>
      <point x="936" y="215" type="curve"/>
      <point x="740" y="501" type="line"/>
      <point x="720" y="479"/>
      <point x="625" y="393"/>
      <point x="523" y="393" type="curve" smooth="yes"/>
      <point x="441" y="393"/>
      <point x="416" y="445"/>
      <point x="416" y="513" type="curve" smooth="yes"/>
      <point x="416" y="666"/>
      <point x="498" y="786"/>
      <point x="654" y="786" type="curve" smooth="yes"/>
      <point x="746" y="786"/>
      <point x="765" y="727"/>
      <point x="767" y="711" type="curve"/>
      <point x="1076" y="855" type="line"/>
      <point x="1028" y="1011"/>
      <point x="874" y="1096"/>
      <point x="686" y="1096" type="curve" smooth="yes"/>
      <point x="311" y="1096"/>
      <point x="35" y="814"/>
      <point x="35" y="428" type="curve" smooth="yes"/>
      <point x="35" y="174"/>
      <point x="154" y="-12"/>
      <point x="425" y="-12" type="curve" smooth="yes"/>
      <point x="669" y="-12"/>
      <point x="859" y="105"/>
    </contour>
  </outline>
</glyph>
<glyph name="e" format="2">
  <advance width="1123"/>
  <unicode hex="0065"/>
  <anchor x="403" y="10" name="bottom"/>
  <anchor x="678" y="18" name="ogonek"/>
  <anchor x="737" y="1063" name="top"/>
  <outline>
    <contour>
      <point x="978" y="152" type="curve"/>
      <point x="950" y="253"/>
      <point x="811" y="429"/>
      <point x="797" y="442" type="curve"/>
      <point x="698" y="368"/>
      <point x="635" y="349"/>
      <point x="560" y="349" type="curve" smooth="yes"/>
      <point x="482" y="349"/>
      <point x="417" y="375"/>
      <point x="417" y="440" type="curve" smooth="yes"/>
      <point x="417" y="461"/>
      <point x="420" y="472"/>
      <point x="425" y="482" type="curve"/>
      <point x="476" y="491"/>
      <point x="570" y="502"/>
      <point x="673" y="502" type="curve" smooth="yes"/>
      <point x="718" y="502"/>
      <point x="1014" y="497"/>
      <point x="1056" y="495" type="curve"/>
      <point x="1096" y="562"/>
      <point x="1118" y="654"/>
      <point x="1118" y="736" type="curve" smooth="yes"/>
      <point x="1118" y="945"/>
      <point x="974" y="1063"/>
      <point x="727" y="1063" type="curve" smooth="yes"/>
      <point x="336" y="1063"/>
      <point x="30" y="792"/>
      <point x="30" y="363" type="curve" smooth="yes"/>
      <point x="30" y="116"/>
      <point x="205" y="-16"/>
      <point x="467" y="-16" type="curve" smooth="yes"/>
      <point x="708" y="-16"/>
      <point x="865" y="50"/>
    </contour>
    <contour>
      <point x="499" y="704" type="curve"/>
      <point x="516" y="748"/>
      <point x="581" y="831"/>
      <point x="680" y="831" type="curve" smooth="yes"/>
      <point x="749" y="831"/>
      <point x="792" y="793"/>
      <point x="794" y="744" type="curve" smooth="yes"/>
      <point x="794" y="734"/>
      <point x="794" y="724"/>
      <point x="791" y="714" type="curve"/>
      <point x="774" y="715"/>
      <point x="728" y="717"/>
      <point x="682" y="717" type="curve" smooth="yes"/>
      <point x="600" y="717"/>
      <point x="538" y="710"/>
    </contour>
  </outline>
</glyph>
<glyph name="j" format="2">
  <advance width="717"/>
  <unicode hex="006A"/>
  <outline>
    <contour>
      <point x="567" y="235" type="curve" smooth="yes"/>
      <point x="628" y="481"/>
      <point x="647" y="790"/>
      <point x="647" y="863" type="curve"/>
      <point x="223" y="844" type="line"/>
      <point x="223" y="681"/>
      <point x="175" y="388"/>
      <point x="121" y="184" type="curve" smooth="yes"/>
      <point x="81" y="34"/>
      <point x="20" y="-177"/>
      <point x="-74" y="-177" type="curve" smooth="yes"/>
      <point x="-135" y="-177"/>
      <point x="-164" y="-125"/>
      <point x="-164" y="-54" type="curve"/>
      <point x="-268" y="-82"/>
      <point x="-432" y="-147"/>
      <point x="-556" y="-219" type="curve"/>
      <point x="-556" y="-398"/>
      <point x="-369" y="-522"/>
      <point x="-138" y="-522" type="curve" smooth="yes"/>
      <point x="230" y="-522"/>
      <point x="439" y="-281"/>
    </contour>
    <contour>
      <point x="502" y="1437" type="curve" smooth="yes"/>
      <point x="339" y="1437"/>
      <point x="192" y="1301"/>
      <point x="192" y="1145" type="curve" smooth="yes"/>
      <point x="192" y="1041"/>
      <point x="280" y="955"/>
      <point x="411" y="955" type="curve" smooth="yes"/>
      <point x="564" y="955"/>
      <point x="730" y="1082"/>
      <point x="730" y="1237" type="curve" smooth="yes"/>
      <point x="730" y="1338"/>
      <point x="648" y="1437"/>
    </contour>
  </outline>
</glyph>
<glyph name="k" format="2">
  <advance width="1156"/>
  <unicode hex="006B"/>
  <anchor x="435.585" y="0" name="bottom"/>
  <anchor x="829.47" y="1470" name="top"/>
  <outline>
    <contour>
      <point x="667" y="-57" type="curve"/>
      <point x="740" y="-40"/>
      <point x="1006" y="53"/>
      <point x="1064" y="84" type="curve"/>
      <point x="999" y="279"/>
      <point x="887" y="439"/>
      <point x="807" y="499" type="curve"/>
      <point x="883" y="545"/>
      <point x="1090" y="667"/>
      <point x="1226" y="744" type="curve"/>
      <point x="1202" y="819"/>
      <point x="1116" y="988"/>
      <point x="1060" y="1034" type="curve"/>
      <point x="887" y="942"/>
      <point x="663" y="820"/>
      <point x="535" y="700" type="curve"/>
      <point x="578" y="818"/>
      <point x="681" y="1160"/>
      <point x="757" y="1428" type="curve"/>
      <point x="697" y="1448"/>
      <point x="624" y="1456"/>
      <point x="545" y="1456" type="curve" smooth="yes"/>
      <point x="492" y="1456"/>
      <point x="436" y="1452"/>
      <point x="379" y="1447" type="curve"/>
      <point x="324" y="1275"/>
      <point x="1" y="246"/>
      <point x="-81" y="-19" type="curve"/>
      <point x="-32" y="-25"/>
      <point x="39" y="-31"/>
      <point x="121" y="-31" type="curve" smooth="yes"/>
      <point x="179" y="-31"/>
      <point x="243" y="-28"/>
      <point x="308" y="-21" type="curve"/>
      <point x="328" y="36"/>
      <point x="360" y="131"/>
      <point x="393" y="246" type="curve"/>
      <point x="405" y="253"/>
      <point x="471" y="291"/>
      <point x="496" y="304" type="curve"/>
      <point x="575" y="268"/>
      <point x="656" y="27"/>
    </contour>
  </outline>
</glyph>
<glyph name="m" format="2">
  <advance width="1858"/>
  <unicode hex="006D"/>
  <anchor x="786.585" y="0" name="bottom"/>
  <anchor x="1071.415" y="1063" name="top"/>
  <outline>
    <contour>
      <point x="-36" y="-7" type="curve"/>
      <point x="9" y="-12"/>
      <point x="128" y="-17"/>
      <point x="235" y="-17" type="curve" smooth="yes"/>
      <point x="277" y="-17"/>
      <point x="348" y="-15"/>
      <point x="365" y="-14" type="curve"/>
      <point x="369" y="9"/>
      <point x="425" y="274"/>
      <point x="498" y="593" type="curve"/>
      <point x="546" y="668"/>
      <point x="635" y="717"/>
      <point x="711" y="717" type="curve" smooth="yes"/>
      <point x="766" y="717"/>
      <point x="789" y="680"/>
      <point x="789" y="612" type="curve" smooth="yes"/>
      <point x="789" y="504"/>
      <point x="717" y="234"/>
      <point x="652" y="-7" type="curve"/>
      <point x="680" y="-11"/>
      <point x="760" y="-13"/>
      <point x="839" y="-13" type="curve" smooth="yes"/>
      <point x="905" y="-13"/>
      <point x="970" y="-11"/>
      <point x="1002" y="-9" type="curve"/>
      <point x="1028" y="81"/>
      <point x="1053" y="166"/>
      <point x="1078" y="244" type="curve" smooth="yes"/>
      <point x="1165" y="517"/>
      <point x="1249" y="706"/>
      <point x="1390" y="706" type="curve" smooth="yes"/>
      <point x="1436" y="706"/>
      <point x="1456" y="676"/>
      <point x="1456" y="621" type="curve" smooth="yes"/>
      <point x="1456" y="489"/>
      <point x="1344" y="208"/>
      <point x="1254" y="-5" type="curve"/>
      <point x="1318" y="-11"/>
      <point x="1384" y="-13"/>
      <point x="1451" y="-13" type="curve" smooth="yes"/>
      <point x="1513" y="-13"/>
      <point x="1580" y="-11"/>
      <point x="1641" y="-8" type="curve"/>
      <point x="1735" y="292"/>
      <point x="1822" y="573"/>
      <point x="1822" y="760" type="curve" smooth="yes"/>
      <point x="1822" y="950"/>
      <point x="1725" y="1044"/>
      <point x="1505" y="1044" type="curve" smooth="yes"/>
      <point x="1330" y="1044"/>
      <point x="1165" y="925"/>
      <point x="1083" y="812" type="curve"/>
      <point x="1083" y="835"/>
      <point x="1083" y="860"/>
      <point x="1078" y="883" type="curve" smooth="yes"/>
      <point x="1060" y="965"/>
      <point x="1002" y="1039"/>
      <point x="876" y="1039" type="curve" smooth="yes"/>
      <point x="705" y="1039"/>
      <point x="586" y="931"/>
      <point x="560" y="885" type="curve"/>
      <point x="567" y="913"/>
      <point x="584" y="981"/>
      <point x="596" y="1027" type="curve"/>
      <point x="514" y="1027"/>
      <point x="288" y="1003"/>
      <point x="204" y="983" type="curve"/>
      <point x="159" y="815"/>
      <point x="3" y="191"/>
    </contour>
  </outline>
</glyph>
<glyph name="n" format="2">
  <advance width="1330"/>
  <unicode hex="006E"/>
  <anchor x="522.585" y="0" name="bottom"/>
  <anchor x="807.415" y="1063" name="top"/>
  <outline>
    <contour>
      <point x="350" y="-14" type="curve"/>
      <point x="395" y="99"/>
      <point x="470" y="303"/>
      <point x="551" y="605" type="curve"/>
      <point x="624" y="659"/>
      <point x="727" y="708"/>
      <point x="805" y="708" type="curve" smooth="yes"/>
      <point x="886" y="708"/>
      <point x="915" y="669"/>
      <point x="915" y="604" type="curve" smooth="yes"/>
      <point x="915" y="470"/>
      <point x="773" y="125"/>
      <point x="707" y="-3" type="curve"/>
      <point x="739" y="-6"/>
      <point x="824" y="-8"/>
      <point x="909" y="-8" type="curve" smooth="yes"/>
      <point x="987" y="-8"/>
      <point x="1065" y="-6"/>
      <point x="1100" y="-3" type="curve"/>
      <point x="1195" y="238"/>
      <point x="1318" y="621"/>
      <point x="1318" y="810" type="curve" smooth="yes"/>
      <point x="1318" y="978"/>
      <point x="1238" y="1060"/>
      <point x="1035" y="1060" type="curve" smooth="yes"/>
      <point x="873" y="1060"/>
      <point x="689" y="957"/>
      <point x="634" y="885" type="curve"/>
      <point x="649" y="935"/>
      <point x="672" y="1017"/>
      <point x="676" y="1034" type="curve"/>
      <point x="634" y="1041"/>
      <point x="575" y="1044"/>
      <point x="513" y="1044" type="curve" smooth="yes"/>
      <point x="427" y="1044"/>
      <point x="333" y="1039"/>
      <point x="268" y="1031" type="curve"/>
      <point x="152" y="599"/>
      <point x="45" y="219"/>
      <point x="-38" y="-3" type="curve"/>
      <point x="-11" y="-6"/>
      <point x="85" y="-10"/>
      <point x="144" y="-12" type="curve" smooth="yes"/>
      <point x="220" y="-14"/>
      <point x="299" y="-14"/>
    </contour>
  </outline>
</glyph>
<glyph name="r" format="2">
  <advance width="853"/>
  <unicode hex="0072"/>
  <anchor x="295" y="0" name="bottom"/>
  <anchor x="579" y="1063" name="top"/>
  <outline>
    <contour>
      <point x="500" y="902" type="curve"/>
      <point x="502" y="941"/>
      <point x="504" y="1029"/>
      <point x="504" y="1074" type="curve"/>
      <point x="474" y="1072"/>
      <point x="293" y="1043"/>
      <point x="161" y="1009" type="curve"/>
      <point x="154" y="832"/>
      <point x="39" y="261"/>
      <point x="-29" y="-8" type="curve"/>
      <point x="113" y="-8"/>
      <point x="273" y="-4"/>
      <point x="396" y="12" type="curve"/>
      <point x="418" y="96"/>
      <point x="465" y="441"/>
      <point x="480" y="578" type="curve"/>
      <point x="547" y="641"/>
      <point x="617" y="677"/>
      <point x="694" y="677" type="curve" smooth="yes"/>
      <point x="745" y="677"/>
      <point x="786" y="659"/>
      <point x="811" y="648" type="curve"/>
      <point x="994" y="1044" type="line"/>
      <point x="975" y="1062"/>
      <point x="902" y="1078"/>
      <point x="842" y="1078" type="curve" smooth="yes"/>
      <point x="694" y="1078"/>
      <point x="558" y="985"/>
    </contour>
  </outline>
</glyph>
<glyph name="s" format="2">
  <advance width="988"/>
  <unicode hex="0073"/>
  <anchor x="337" y="-70" name="bottom"/>
  <anchor x="641" y="1124" name="top"/>
  <outline>
    <contour>
      <point x="362" y="-77" type="curve" smooth="yes"/>
      <point x="643" y="-77"/>
      <point x="908" y="79"/>
      <point x="908" y="348" type="curve" smooth="yes"/>
      <point x="908" y="524"/>
      <point x="760" y="631"/>
      <point x="663" y="680" type="curve" smooth="yes"/>
      <point x="574" y="725"/>
      <point x="535" y="749"/>
      <point x="535" y="783" type="curve" smooth="yes"/>
      <point x="535" y="832"/>
      <point x="597" y="844"/>
      <point x="644" y="844" type="curve" smooth="yes"/>
      <point x="712" y="844"/>
      <point x="791" y="788"/>
      <point x="826" y="738" type="curve"/>
      <point x="930" y="831"/>
      <point x="1038" y="967"/>
      <point x="1063" y="1010" type="curve"/>
      <point x="982" y="1081"/>
      <point x="826" y="1127"/>
      <point x="669" y="1127" type="curve" smooth="yes"/>
      <point x="414" y="1127"/>
      <point x="177" y="1005"/>
      <point x="177" y="751" type="curve" smooth="yes"/>
      <point x="177" y="606"/>
      <point x="265" y="506"/>
      <point x="380" y="446" type="curve" smooth="yes"/>
      <point x="461" y="404"/>
      <point x="535" y="363"/>
      <point x="535" y="316" type="curve" smooth="yes"/>
      <point x="535" y="268"/>
      <point x="491" y="250"/>
      <point x="445" y="250" type="curve" smooth="yes"/>
      <point x="364" y="250"/>
      <point x="266" y="330"/>
      <point x="185" y="405" type="curve"/>
      <point x="110" y="345"/>
      <point x="-59" y="126"/>
      <point x="-88" y="70" type="curve"/>
      <point x="-60" y="34"/>
      <point x="93" y="-77"/>
    </contour>
  </outline>
</glyph>
<glyph name="t" format="2">
  <advance width="964"/>
  <unicode hex="0074"/>
  <anchor x="459" y="-53" name="bottom"/>
  <anchor x="462" y="532" name="center"/>
  <anchor x="631" y="1421" name="top"/>
  <anchor x="863" y="1376" name="topright"/>
  <outline>
    <contour>
      <point x="833" y="64" type="curve"/>
      <point x="823" y="92"/>
      <point x="739" y="323"/>
      <point x="722" y="353" type="curve"/>
      <point x="690" y="323"/>
      <point x="648" y="289"/>
      <point x="600" y="289" type="curve" smooth="yes"/>
      <point x="553" y="289"/>
      <point x="546" y="314"/>
      <point x="546" y="358" type="curve" smooth="yes"/>
      <point x="546" y="440"/>
      <point x="609" y="663"/>
      <point x="670" y="832" type="curve"/>
      <point x="711" y="835"/>
      <point x="768" y="840"/>
      <point x="812" y="844" type="curve" smooth="yes"/>
      <point x="879" y="850"/>
      <point x="968" y="855"/>
      <point x="981" y="855" type="curve"/>
      <point x="1007" y="950"/>
      <point x="1039" y="1080"/>
      <point x="1050" y="1162" type="curve"/>
      <point x="1035" y="1162"/>
      <point x="992" y="1162"/>
      <point x="913" y="1157" type="curve" smooth="yes"/>
      <point x="878" y="1155"/>
      <point x="808" y="1151"/>
      <point x="762" y="1149" type="curve"/>
      <point x="775" y="1208"/>
      <point x="788" y="1260"/>
      <point x="799" y="1302" type="curve" smooth="yes"/>
      <point x="817" y="1369"/>
      <point x="832" y="1421"/>
      <point x="836" y="1434" type="curve"/>
      <point x="465" y="1397" type="line"/>
      <point x="460" y="1372"/>
      <point x="448" y="1318"/>
      <point x="438" y="1273" type="curve" smooth="yes"/>
      <point x="428" y="1227"/>
      <point x="417" y="1179"/>
      <point x="406" y="1132" type="curve"/>
      <point x="308" y="1128"/>
      <point x="230" y="1122"/>
      <point x="148" y="1113" type="curve"/>
      <point x="142" y="1091"/>
      <point x="102" y="923"/>
      <point x="90" y="779" type="curve"/>
      <point x="130" y="787"/>
      <point x="231" y="800"/>
      <point x="321" y="809" type="curve"/>
      <point x="254" y="627"/>
      <point x="187" y="345"/>
      <point x="187" y="237" type="curve" smooth="yes"/>
      <point x="187" y="78"/>
      <point x="272" y="-53"/>
      <point x="472" y="-53" type="curve" smooth="yes"/>
      <point x="662" y="-53"/>
      <point x="773" y="5"/>
    </contour>
  </outline>
</glyph>
<glyph name="w" format="2">
  <advance width="1520"/>
  <unicode hex="0077"/>
  <anchor x="617.585" y="0" name="bottom"/>
  <anchor x="902.415" y="1063" name="top"/>
  <outline>
    <contour>
      <point x="323" y="7" type="curve" smooth="yes"/>
      <point x="487" y="7"/>
      <point x="600" y="104"/>
      <point x="666" y="194" type="curve"/>
      <point x="693" y="75"/>
      <point x="765" y="15"/>
      <point x="908" y="15" type="curve" smooth="yes"/>
      <point x="1223" y="15"/>
      <point x="1396" y="243"/>
      <point x="1516" y="685" type="curve" smooth="yes"/>
      <point x="1538" y="766"/>
      <point x="1576" y="944"/>
      <point x="1593" y="1033" type="curve"/>
      <point x="1555" y="1036"/>
      <point x="1468" y="1041"/>
      <point x="1416" y="1041" type="curve" smooth="yes"/>
      <point x="1361" y="1041"/>
      <point x="1307" y="1041"/>
      <point x="1252" y="1041" type="curve"/>
      <point x="1223" y="923"/>
      <point x="1195" y="812"/>
      <point x="1169" y="715" type="curve" smooth="yes"/>
      <point x="1106" y="480"/>
      <point x="1038" y="328"/>
      <point x="955" y="328" type="curve" smooth="yes"/>
      <point x="919" y="328"/>
      <point x="903" y="356"/>
      <point x="903" y="412" type="curve" smooth="yes"/>
      <point x="903" y="491"/>
      <point x="923" y="570"/>
      <point x="1044" y="1036" type="curve"/>
      <point x="964" y="1039"/>
      <point x="789" y="1041"/>
      <point x="719" y="1041" type="curve"/>
      <point x="692" y="925"/>
      <point x="661" y="805"/>
      <point x="633" y="700" type="curve" smooth="yes"/>
      <point x="583" y="515"/>
      <point x="512" y="373"/>
      <point x="442" y="373" type="curve" smooth="yes"/>
      <point x="411" y="373"/>
      <point x="397" y="397"/>
      <point x="397" y="442" type="curve" smooth="yes"/>
      <point x="397" y="550"/>
      <point x="489" y="825"/>
      <point x="563" y="1044" type="curve"/>
      <point x="455" y="1052"/>
      <point x="317" y="1060"/>
      <point x="211" y="1060" type="curve"/>
      <point x="117" y="805"/>
      <point x="28" y="544"/>
      <point x="28" y="337" type="curve" smooth="yes"/>
      <point x="28" y="143"/>
      <point x="106" y="7"/>
    </contour>
  </outline>
</glyph>
<glyph name="x" format="2">
  <advance width="1142"/>
  <unicode hex="0078"/>
  <anchor x="428.585" y="0" name="bottom"/>
  <anchor x="713.415" y="1063" name="top"/>
  <outline>
    <contour>
      <point x="150" y="-36" type="curve"/>
      <point x="242" y="31"/>
      <point x="340" y="112"/>
      <point x="526" y="289" type="curve"/>
      <point x="590" y="184"/>
      <point x="625" y="94"/>
      <point x="669" y="-21" type="curve"/>
      <point x="771" y="24"/>
      <point x="916" y="94"/>
      <point x="1012" y="162" type="curve"/>
      <point x="934" y="333"/>
      <point x="888" y="432"/>
      <point x="817" y="561" type="curve"/>
      <point x="965" y="684"/>
      <point x="1166" y="884"/>
      <point x="1263" y="995" type="curve"/>
      <point x="1197" y="1044"/>
      <point x="1058" y="1116"/>
      <point x="965" y="1164" type="curve"/>
      <point x="847" y="1014"/>
      <point x="754" y="909"/>
      <point x="655" y="805" type="curve"/>
      <point x="626" y="892"/>
      <point x="517" y="1104"/>
      <point x="475" y="1169" type="curve"/>
      <point x="401" y="1135"/>
      <point x="175" y="990"/>
      <point x="146" y="961" type="curve"/>
      <point x="190" y="892"/>
      <point x="264" y="775"/>
      <point x="393" y="568" type="curve"/>
      <point x="251" y="450"/>
      <point x="12" y="263"/>
      <point x="-55" y="212" type="curve"/>
      <point x="-15" y="138"/>
      <point x="104" y="11"/>
    </contour>
  </outline>
</glyph>
<glyph name="y" format="2">
  <advance width="1079"/>
  <unicode hex="0079"/>
  <anchor x="397.585" y="0" name="bottom"/>
  <anchor x="682.415" y="1063" name="top"/>
  <outline>
    <contour>
      <point x="231" y="-526" type="curve" smooth="yes"/>
      <point x="577" y="-526"/>
      <point x="768" y="-300"/>
      <point x="881" y="56" type="curve" smooth="yes"/>
      <point x="946" y="260"/>
      <point x="1005" y="461"/>
      <point x="1053" y="640" type="curve" smooth="yes"/>
      <point x="1082" y="749"/>
      <point x="1107" y="849"/>
      <point x="1127" y="937" type="curve"/>
      <point x="1052" y="954"/>
      <point x="981" y="962"/>
      <point x="904" y="962" type="curve" smooth="yes"/>
      <point x="868" y="962"/>
      <point x="831" y="960"/>
      <point x="792" y="957" type="curve"/>
      <point x="789" y="934"/>
      <point x="780" y="888"/>
      <point x="758" y="806" type="curve" smooth="yes"/>
      <point x="695" y="570"/>
      <point x="612" y="391"/>
      <point x="483" y="391" type="curve" smooth="yes"/>
      <point x="436" y="391"/>
      <point x="418" y="431"/>
      <point x="418" y="490" type="curve" smooth="yes"/>
      <point x="418" y="612"/>
      <point x="500" y="845"/>
      <point x="553" y="957" type="curve"/>
      <point x="523" y="964"/>
      <point x="420" y="970"/>
      <point x="327" y="970" type="curve" smooth="yes"/>
      <point x="263" y="970"/>
      <point x="205" y="967"/>
      <point x="176" y="961" type="curve"/>
      <point x="102" y="730"/>
      <point x="37" y="517"/>
      <point x="37" y="347" type="curve" smooth="yes"/>
      <point x="37" y="160"/>
      <point x="115" y="36"/>
      <point x="331" y="36" type="curve" smooth="yes"/>
      <point x="432" y="36"/>
      <point x="549" y="81"/>
      <point x="601" y="167" type="curve"/>
      <point x="555" y="16"/>
      <point x="458" y="-179"/>
      <point x="296" y="-179" type="curve" smooth="yes"/>
      <point x="163" y="-179"/>
      <point x="36" y="-106"/>
      <point x="-29" y="-56" type="curve"/>
      <point x="-86" y="-113"/>
      <point x="-227" y="-292"/>
      <point x="-277" y="-373" type="curve"/>
      <point x="-180" y="-450"/>
      <point x="16" y="-526"/>
    </contour>
  </outline>
</glyph>
<glyph name="z" format="2">
  <advance width="1074"/>
  <unicode hex="007A"/>
  <anchor x="375" y="0" name="bottom"/>
  <anchor x="517" y="532" name="center"/>
  <anchor x="659" y="1063" name="top"/>
  <outline>
    <contour>
      <point x="855" y="2" type="curve"/>
      <point x="873" y="43"/>
      <point x="950" y="305"/>
      <point x="958" y="334" type="curve"/>
      <point x="878" y="326"/>
      <point x="745" y="315"/>
      <point x="637" y="315" type="curve" smooth="yes"/>
      <point x="606" y="315"/>
      <point x="527" y="315"/>
      <point x="501" y="316" type="curve"/>
      <point x="586" y="398"/>
      <point x="869" y="653"/>
      <point x="1058" y="791" type="curve"/>
      <point x="1070" y="833"/>
      <point x="1117" y="1023"/>
      <point x="1117" y="1045" type="curve"/>
      <point x="1016" y="1045"/>
      <point x="843" y="1045"/>
      <point x="698" y="1045" type="curve" smooth="yes"/>
      <point x="579" y="1045"/>
      <point x="341" y="1055"/>
      <point x="242" y="1060" type="curve"/>
      <point x="147" y="764" type="line"/>
      <point x="154" y="763"/>
      <point x="174" y="763"/>
      <point x="202" y="763" type="curve" smooth="yes"/>
      <point x="307" y="763"/>
      <point x="522" y="767"/>
      <point x="579" y="771" type="curve"/>
      <point x="344" y="595"/>
      <point x="112" y="386"/>
      <point x="11" y="280" type="curve"/>
      <point x="-77" y="12" type="line"/>
      <point x="33" y="-5"/>
      <point x="215" y="-11"/>
      <point x="394" y="-11" type="curve" smooth="yes"/>
      <point x="574" y="-11"/>
      <point x="752" y="-5"/>
    </contour>
  </outline>
</glyph>
<glyph name="braceleft" format="2">
  <advance width="665"/>
  <unicode hex="007B"/>
  <outline>
    <contour>
      <point x="244" y="-465" type="curve"/>
      <point x="317" y="-383"/>
      <point x="388" y="-298"/>
      <point x="460" y="-200" type="curve"/>
      <point x="385" y="-183"/>
      <point x="349" y="-135"/>
      <point x="349" y="-64" type="curve" smooth="yes"/>
      <point x="349" y="5"/>
      <point x="382" y="80"/>
      <point x="417" y="156" type="curve" smooth="yes"/>
      <point x="452" y="231"/>
      <point x="484" y="308"/>
      <point x="484" y="380" type="curve" smooth="yes"/>
      <point x="484" y="514"/>
      <point x="360" y="565"/>
      <point x="197" y="573" type="curve"/>
      <point x="190" y="548" type="line"/>
      <point x="375" y="550"/>
      <point x="541" y="681"/>
      <point x="586" y="846" type="curve" smooth="yes"/>
      <point x="602" y="903"/>
      <point x="605" y="943"/>
      <point x="605" y="983" type="curve" smooth="yes"/>
      <point x="605" y="1020"/>
      <point x="609" y="1058"/>
      <point x="622" y="1108" type="curve" smooth="yes"/>
      <point x="650" y="1213"/>
      <point x="726" y="1301"/>
      <point x="835" y="1332" type="curve"/>
      <point x="835" y="1411"/>
      <point x="828" y="1561"/>
      <point x="788" y="1607" type="curve"/>
      <point x="512" y="1585"/>
      <point x="327" y="1403"/>
      <point x="276" y="1191" type="curve" smooth="yes"/>
      <point x="267" y="1153"/>
      <point x="262" y="1125"/>
      <point x="260" y="1089" type="curve" smooth="yes"/>
      <point x="258" y="1056"/>
      <point x="258" y="1018"/>
      <point x="258" y="961" type="curve" smooth="yes"/>
      <point x="258" y="815"/>
      <point x="207" y="715"/>
      <point x="62" y="696" type="curve"/>
      <point x="47" y="663"/>
      <point x="27" y="602"/>
      <point x="14" y="552" type="curve" smooth="yes"/>
      <point x="0" y="499"/>
      <point x="-13" y="436"/>
      <point x="-13" y="406" type="curve"/>
      <point x="76" y="390"/>
      <point x="125" y="342"/>
      <point x="125" y="282" type="curve" smooth="yes"/>
      <point x="125" y="190"/>
      <point x="90" y="122"/>
      <point x="55" y="54" type="curve" smooth="yes"/>
      <point x="21" y="-13"/>
      <point x="-13" y="-81"/>
      <point x="-13" y="-173" type="curve" smooth="yes"/>
      <point x="-13" y="-331"/>
      <point x="71" y="-440"/>
    </contour>
  </outline>
</glyph>
<glyph name="braceright" format="2">
  <advance width="614"/>
  <unicode hex="007D"/>
  <outline>
    <contour>
      <point x="-83" y="-482" type="curve"/>
      <point x="149" y="-438"/>
      <point x="394" y="-241"/>
      <point x="394" y="1" type="curve" smooth="yes"/>
      <point x="394" y="18"/>
      <point x="394" y="52"/>
      <point x="392" y="87" type="curve" smooth="yes"/>
      <point x="390" y="123"/>
      <point x="390" y="159"/>
      <point x="390" y="177" type="curve" smooth="yes"/>
      <point x="390" y="333"/>
      <point x="434" y="423"/>
      <point x="576" y="446" type="curve"/>
      <point x="602" y="477"/>
      <point x="624" y="541"/>
      <point x="637" y="588" type="curve" smooth="yes"/>
      <point x="648" y="627"/>
      <point x="651" y="680"/>
      <point x="651" y="737" type="curve"/>
      <point x="585" y="737"/>
      <point x="522" y="763"/>
      <point x="522" y="845" type="curve" smooth="yes"/>
      <point x="522" y="927"/>
      <point x="555" y="993"/>
      <point x="591" y="1061" type="curve" smooth="yes"/>
      <point x="630" y="1135"/>
      <point x="669" y="1210"/>
      <point x="669" y="1312" type="curve" smooth="yes"/>
      <point x="669" y="1461"/>
      <point x="585" y="1600"/>
      <point x="441" y="1638" type="curve"/>
      <point x="363" y="1571"/>
      <point x="248" y="1462"/>
      <point x="176" y="1376" type="curve"/>
      <point x="262" y="1348"/>
      <point x="301" y="1295"/>
      <point x="301" y="1218" type="curve" smooth="yes"/>
      <point x="301" y="1145"/>
      <point x="271" y="1078"/>
      <point x="240" y="1011" type="curve" smooth="yes"/>
      <point x="209" y="943"/>
      <point x="178" y="875"/>
      <point x="178" y="799" type="curve" smooth="yes"/>
      <point x="178" y="643"/>
      <point x="314" y="549"/>
      <point x="459" y="549" type="curve"/>
      <point x="475" y="596" type="line"/>
      <point x="268" y="596"/>
      <point x="61" y="433"/>
      <point x="61" y="223" type="curve" smooth="yes"/>
      <point x="61" y="194"/>
      <point x="64" y="166"/>
      <point x="67" y="138" type="curve" smooth="yes"/>
      <point x="70" y="108"/>
      <point x="72" y="79"/>
      <point x="72" y="50" type="curve" smooth="yes"/>
      <point x="72" y="-86"/>
      <point x="12" y="-133"/>
      <point x="-132" y="-204" type="curve"/>
      <point x="-132" y="-328"/>
      <point x="-106" y="-441"/>
    </contour>
  </outline>
</glyph>
<glyph name="asciitilde" format="2">
  <advance width="1115"/>
  <unicode hex="007E"/>
  <outline>
    <contour>
      <point x="201" y="760" type="curve"/>
      <point x="378" y="607" type="line"/>
      <point x="392" y="636"/>
      <point x="432" y="718"/>
      <point x="509" y="718" type="curve" smooth="yes"/>
      <point x="545" y="718"/>
      <point x="583" y="693"/>
      <point x="623" y="663" type="curve" smooth="yes"/>
      <point x="671" y="627"/>
      <point x="727" y="588"/>
      <point x="792" y="588" type="curve" smooth="yes"/>
      <point x="961" y="588"/>
      <point x="1055" y="749"/>
      <point x="1067" y="815" type="curve"/>
      <point x="886" y="933" type="line"/>
      <point x="869" y="882"/>
      <point x="831" y="827"/>
      <point x="773" y="827" type="curve" smooth="yes"/>
      <point x="731" y="827"/>
      <point x="697" y="852"/>
      <point x="661" y="881" type="curve" smooth="yes"/>
      <point x="617" y="916"/>
      <point x="566" y="953"/>
      <point x="490" y="953" type="curve" smooth="yes"/>
      <point x="354" y="953"/>
      <point x="235" y="857"/>
    </contour>
  </outline>
</glyph>
<glyph name="exclamdown" format="2">
  <advance width="708"/>
  <unicode hex="00A1"/>
  <outline>
    <contour>
      <point x="228" y="597" type="curve"/>
      <point x="152" y="358"/>
      <point x="-76" y="-278"/>
      <point x="-118" y="-388" type="curve"/>
      <point x="341" y="-407" type="line"/>
      <point x="434" y="-62"/>
      <point x="504" y="266"/>
      <point x="561" y="580" type="curve"/>
      <point x="479" y="590"/>
      <point x="303" y="597"/>
    </contour>
    <contour>
      <point x="497" y="1093" type="curve" smooth="yes"/>
      <point x="351" y="1093"/>
      <point x="209" y="983"/>
      <point x="209" y="842" type="curve" smooth="yes"/>
      <point x="209" y="737"/>
      <point x="293" y="652"/>
      <point x="413" y="652" type="curve" smooth="yes"/>
      <point x="570" y="652"/>
      <point x="703" y="767"/>
      <point x="703" y="917" type="curve" smooth="yes"/>
      <point x="703" y="1017"/>
      <point x="622" y="1093"/>
    </contour>
  </outline>
</glyph>
<glyph name="section" format="2">
  <advance width="1000"/>
  <unicode hex="00A7"/>
  <outline>
    <contour>
      <point x="570" y="648" type="curve"/>
      <point x="348" y="797" type="line"/>
      <point x="188" y="732"/>
      <point x="77" y="647"/>
      <point x="77" y="470" type="curve" smooth="yes"/>
      <point x="77" y="323"/>
      <point x="175" y="227"/>
      <point x="290" y="174" type="curve" smooth="yes"/>
      <point x="412" y="118"/>
      <point x="494" y="67"/>
      <point x="494" y="17" type="curve" smooth="yes"/>
      <point x="494" y="-32"/>
      <point x="436" y="-42"/>
      <point x="367" y="-42" type="curve" smooth="yes"/>
      <point x="281" y="-42"/>
      <point x="171" y="18"/>
      <point x="71" y="83" type="curve"/>
      <point x="7" y="34"/>
      <point x="-146" y="-146"/>
      <point x="-189" y="-202" type="curve"/>
      <point x="-159" y="-238"/>
      <point x="21" y="-359"/>
      <point x="306" y="-359" type="curve" smooth="yes"/>
      <point x="576" y="-359"/>
      <point x="834" y="-207"/>
      <point x="834" y="56" type="curve" smooth="yes"/>
      <point x="834" y="239"/>
      <point x="706" y="339"/>
      <point x="601" y="388" type="curve" smooth="yes"/>
      <point x="503" y="434"/>
      <point x="432" y="478"/>
      <point x="432" y="525" type="curve" smooth="yes"/>
      <point x="432" y="583"/>
      <point x="512" y="637"/>
    </contour>
    <contour>
      <point x="501" y="414" type="curve"/>
      <point x="616" y="192" type="line"/>
      <point x="816" y="254"/>
      <point x="984" y="367"/>
      <point x="984" y="576" type="curve" smooth="yes"/>
      <point x="984" y="752"/>
      <point x="845" y="860"/>
      <point x="741" y="909" type="curve" smooth="yes"/>
      <point x="642" y="956"/>
      <point x="576" y="989"/>
      <point x="576" y="1026" type="curve" smooth="yes"/>
      <point x="576" y="1069"/>
      <point x="649" y="1083"/>
      <point x="700" y="1083" type="curve" smooth="yes"/>
      <point x="772" y="1083"/>
      <point x="880" y="1037"/>
      <point x="918" y="987" type="curve"/>
      <point x="1027" y="1081"/>
      <point x="1131" y="1232"/>
      <point x="1141" y="1249" type="curve"/>
      <point x="1042" y="1330"/>
      <point x="867" y="1366"/>
      <point x="733" y="1366" type="curve" smooth="yes"/>
      <point x="464" y="1366"/>
      <point x="244" y="1238"/>
      <point x="244" y="965" type="curve" smooth="yes"/>
      <point x="244" y="827"/>
      <point x="312" y="746"/>
      <point x="429" y="695" type="curve" smooth="yes"/>
      <point x="545" y="645"/>
      <point x="644" y="595"/>
      <point x="644" y="547" type="curve" smooth="yes"/>
      <point x="644" y="489"/>
      <point x="570" y="416"/>
    </contour>
  </outline>
</glyph>
<glyph name="copyright" format="2">
  <advance width="1745"/>
  <unicode hex="00A9"/>
  <outline>
    <contour>
      <point x="731" y="-68" type="curve" smooth="yes"/>
      <point x="1288" y="-68"/>
      <point x="1715" y="253"/>
      <point x="1715" y="797" type="curve" smooth="yes"/>
      <point x="1715" y="1171"/>
      <point x="1482" y="1350"/>
      <point x="1078" y="1350" type="curve" smooth="yes"/>
      <point x="501" y="1350"/>
      <point x="26" y="999"/>
      <point x="26" y="452" type="curve" smooth="yes"/>
      <point x="26" y="117"/>
      <point x="314" y="-68"/>
    </contour>
    <contour>
      <point x="771" y="227" type="curve" smooth="yes"/>
      <point x="547" y="227"/>
      <point x="439" y="351"/>
      <point x="439" y="529" type="curve" smooth="yes"/>
      <point x="439" y="850"/>
      <point x="702" y="1063"/>
      <point x="1023" y="1063" type="curve" smooth="yes"/>
      <point x="1257" y="1063"/>
      <point x="1355" y="957"/>
      <point x="1355" y="778" type="curve" smooth="yes"/>
      <point x="1355" y="419"/>
      <point x="1129" y="227"/>
    </contour>
    <contour>
      <point x="820" y="290" type="curve" smooth="yes"/>
      <point x="973" y="290"/>
      <point x="1123" y="364"/>
      <point x="1225" y="501" type="curve"/>
      <point x="1170" y="557"/>
      <point x="1103" y="613"/>
      <point x="1043" y="646" type="curve"/>
      <point x="978" y="576"/>
      <point x="921" y="564"/>
      <point x="886" y="564" type="curve" smooth="yes"/>
      <point x="832" y="564"/>
      <point x="807" y="590"/>
      <point x="807" y="626" type="curve" smooth="yes"/>
      <point x="807" y="688"/>
      <point x="870" y="748"/>
      <point x="942" y="748" type="curve" smooth="yes"/>
      <point x="979" y="748"/>
      <point x="1027" y="730"/>
      <point x="1040" y="706" type="curve"/>
      <point x="1092" y="740"/>
      <point x="1184" y="820"/>
      <point x="1271" y="907" type="curve"/>
      <point x="1235" y="966"/>
      <point x="1131" y="995"/>
      <point x="1019" y="995" type="curve" smooth="yes"/>
      <point x="754" y="995"/>
      <point x="532" y="802"/>
      <point x="532" y="543" type="curve" smooth="yes"/>
      <point x="532" y="384"/>
      <point x="635" y="290"/>
    </contour>
  </outline>
</glyph>
<glyph name="logicalnot" format="2">
  <advance width="1000"/>
  <unicode hex="00AC"/>
  <outline>
    <contour>
      <point x="1068" y="909" type="curve"/>
      <point x="876" y="909"/>
      <point x="271" y="885"/>
      <point x="116" y="869" type="curve"/>
      <point x="91" y="784"/>
      <point x="50" y="634"/>
      <point x="30" y="554" type="curve"/>
      <point x="141" y="558"/>
      <point x="470" y="577"/>
      <point x="669" y="592" type="curve"/>
      <point x="644" y="522"/>
      <point x="585" y="340"/>
      <point x="560" y="244" type="curve"/>
      <point x="604" y="240"/>
      <point x="804" y="240"/>
      <point x="859" y="240" type="curve"/>
      <point x="887" y="337"/>
      <point x="1040" y="821"/>
    </contour>
  </outline>
</glyph>
<glyph name="registered" format="2">
  <advance width="1400"/>
  <unicode hex="00AE"/>
  <outline>
    <contour>
      <point x="653" y="265" type="curve" smooth="yes"/>
      <point x="1083" y="265"/>
      <point x="1431" y="498"/>
      <point x="1431" y="910" type="curve" smooth="yes"/>
      <point x="1431" y="1184"/>
      <point x="1223" y="1321"/>
      <point x="875" y="1321" type="curve" smooth="yes"/>
      <point x="452" y="1321"/>
      <point x="63" y="1083"/>
      <point x="63" y="665" type="curve" smooth="yes"/>
      <point x="63" y="335"/>
      <point x="365" y="265"/>
    </contour>
    <contour>
      <point x="673" y="489" type="curve" smooth="yes"/>
      <point x="538" y="489"/>
      <point x="369" y="491"/>
      <point x="369" y="672" type="curve" smooth="yes"/>
      <point x="369" y="925"/>
      <point x="578" y="1103"/>
      <point x="841" y="1103" type="curve" smooth="yes"/>
      <point x="995" y="1103"/>
      <point x="1122" y="1071"/>
      <point x="1122" y="912" type="curve" smooth="yes"/>
      <point x="1122" y="663"/>
      <point x="932" y="489"/>
    </contour>
    <contour>
      <point x="682" y="556" type="curve"/>
      <point x="690" y="585"/>
      <point x="715" y="681"/>
      <point x="720" y="709" type="curve"/>
      <point x="725" y="710"/>
      <point x="734" y="711"/>
      <point x="738" y="711" type="curve"/>
      <point x="738" y="672"/>
      <point x="728" y="590"/>
      <point x="718" y="556" type="curve"/>
      <point x="799" y="556"/>
      <point x="877" y="565"/>
      <point x="925" y="589" type="curve"/>
      <point x="925" y="627"/>
      <point x="924" y="740"/>
      <point x="909" y="771" type="curve"/>
      <point x="966" y="791"/>
      <point x="1031" y="865"/>
      <point x="1031" y="925" type="curve" smooth="yes"/>
      <point x="1031" y="1010"/>
      <point x="923" y="1040"/>
      <point x="812" y="1040" type="curve" smooth="yes"/>
      <point x="734" y="1040"/>
      <point x="670" y="1028"/>
      <point x="598" y="991" type="curve"/>
      <point x="565" y="917"/>
      <point x="496" y="694"/>
      <point x="468" y="588" type="curve"/>
      <point x="517" y="572"/>
      <point x="607" y="556"/>
    </contour>
    <contour>
      <point x="747" y="855" type="curve"/>
      <point x="751" y="870"/>
      <point x="756" y="893"/>
      <point x="757" y="903" type="curve"/>
      <point x="769" y="905"/>
      <point x="781" y="906"/>
      <point x="791" y="906" type="curve" smooth="yes"/>
      <point x="807" y="906"/>
      <point x="818" y="903"/>
      <point x="818" y="890" type="curve" smooth="yes"/>
      <point x="818" y="860"/>
      <point x="781" y="855"/>
    </contour>
  </outline>
</glyph>
<glyph name="degree" format="2">
  <advance width="814"/>
  <unicode hex="00B0"/>
  <outline>
    <contour>
      <point x="509" y="860" type="curve" smooth="yes"/>
      <point x="746" y="860"/>
      <point x="969" y="1054"/>
      <point x="969" y="1282" type="curve" smooth="yes"/>
      <point x="969" y="1436"/>
      <point x="833" y="1540"/>
      <point x="641" y="1540" type="curve" smooth="yes"/>
      <point x="407" y="1540"/>
      <point x="203" y="1364"/>
      <point x="203" y="1138" type="curve" smooth="yes"/>
      <point x="203" y="980"/>
      <point x="332" y="860"/>
    </contour>
    <contour>
      <point x="559" y="1130" type="curve" smooth="yes"/>
      <point x="525" y="1130"/>
      <point x="506" y="1151"/>
      <point x="506" y="1182" type="curve" smooth="yes"/>
      <point x="506" y="1235"/>
      <point x="548" y="1270"/>
      <point x="596" y="1270" type="curve" smooth="yes"/>
      <point x="640" y="1270"/>
      <point x="661" y="1249"/>
      <point x="661" y="1219" type="curve" smooth="yes"/>
      <point x="661" y="1170"/>
      <point x="609" y="1130"/>
    </contour>
  </outline>
</glyph>
<glyph name="twosuperior" format="2">
  <advance width="727"/>
  <unicode hex="00B2"/>
  <outline>
    <contour>
      <point x="725" y="787" type="curve"/>
      <point x="638" y="780"/>
      <point x="573" y="771"/>
      <point x="519" y="763" type="curve"/>
      <point x="545" y="770"/>
      <point x="598" y="807"/>
      <point x="656" y="859" type="curve" smooth="yes"/>
      <point x="746" y="939"/>
      <point x="815" y="1058"/>
      <point x="815" y="1157" type="curve" smooth="yes"/>
      <point x="815" y="1266"/>
      <point x="724" y="1330"/>
      <point x="591" y="1330" type="curve" smooth="yes"/>
      <point x="450" y="1330"/>
      <point x="294" y="1242"/>
      <point x="190" y="1131" type="curve"/>
      <point x="218" y="1091"/>
      <point x="302" y="1008"/>
      <point x="360" y="976" type="curve"/>
      <point x="381" y="990"/>
      <point x="450" y="1033"/>
      <point x="485" y="1033" type="curve" smooth="yes"/>
      <point x="506" y="1033"/>
      <point x="513" y="1025"/>
      <point x="513" y="1013" type="curve" smooth="yes"/>
      <point x="513" y="966"/>
      <point x="402" y="904"/>
      <point x="314" y="857" type="curve" smooth="yes"/>
      <point x="202" y="797"/>
      <point x="136" y="762"/>
      <point x="104" y="746" type="curve"/>
      <point x="85" y="665"/>
      <point x="83" y="505"/>
      <point x="83" y="490" type="curve"/>
      <point x="664" y="516" type="line"/>
      <point x="673" y="547"/>
      <point x="723" y="739"/>
    </contour>
  </outline>
</glyph>
<glyph name="threesuperior" format="2">
  <advance width="784"/>
  <unicode hex="00B3"/>
  <outline>
    <contour>
      <point x="368" y="498" type="curve" smooth="yes"/>
      <point x="570" y="498"/>
      <point x="766" y="564"/>
      <point x="766" y="758" type="curve" smooth="yes"/>
      <point x="766" y="845"/>
      <point x="713" y="911"/>
      <point x="629" y="917" type="curve"/>
      <point x="734" y="949"/>
      <point x="816" y="1016"/>
      <point x="816" y="1122" type="curve" smooth="yes"/>
      <point x="816" y="1236"/>
      <point x="705" y="1301"/>
      <point x="572" y="1301" type="curve" smooth="yes"/>
      <point x="375" y="1301"/>
      <point x="240" y="1208"/>
      <point x="214" y="1186" type="curve"/>
      <point x="230" y="1156"/>
      <point x="306" y="1068"/>
      <point x="355" y="1019" type="curve"/>
      <point x="374" y="1029"/>
      <point x="463" y="1063"/>
      <point x="502" y="1063" type="curve" smooth="yes"/>
      <point x="526" y="1063"/>
      <point x="535" y="1055"/>
      <point x="535" y="1041" type="curve" smooth="yes"/>
      <point x="535" y="988"/>
      <point x="402" y="972"/>
      <point x="329" y="972" type="curve"/>
      <point x="312" y="907"/>
      <point x="304" y="837"/>
      <point x="304" y="796" type="curve"/>
      <point x="459" y="796"/>
      <point x="488" y="772"/>
      <point x="488" y="749" type="curve" smooth="yes"/>
      <point x="488" y="723"/>
      <point x="455" y="711"/>
      <point x="422" y="711" type="curve" smooth="yes"/>
      <point x="365" y="711"/>
      <point x="335" y="740"/>
      <point x="326" y="759" type="curve"/>
      <point x="264" y="737"/>
      <point x="144" y="677"/>
      <point x="81" y="641" type="curve"/>
      <point x="119" y="567"/>
      <point x="202" y="498"/>
    </contour>
  </outline>
</glyph>
<glyph name="micro" format="2">
  <advance width="1178"/>
  <unicode hex="00B5"/>
  <anchor x="437" y="0" name="bottom"/>
  <anchor x="698" y="0" name="ogonek"/>
  <anchor x="721" y="1063" name="top"/>
  <anchor x="1137" y="902" name="topright"/>
  <outline>
    <contour>
      <point x="-137" y="-431" type="curve"/>
      <point x="-24" y="-431"/>
      <point x="125" y="-422"/>
      <point x="208" y="-411" type="curve"/>
      <point x="236" y="-262"/>
      <point x="266" y="-120"/>
      <point x="304" y="21" type="curve" smooth="yes"/>
      <point x="366" y="253"/>
      <point x="431" y="480"/>
      <point x="506" y="719" type="curve"/>
      <point x="125" y="750" type="line"/>
      <point x="70" y="543"/>
      <point x="-79" y="-64"/>
    </contour>
    <component base="u"/>
  </outline>
</glyph>
<glyph name="periodcentered" format="2">
  <advance width="450"/>
  <unicode hex="00B7"/>
  <outline>
    <contour>
      <point x="288" y="648" type="curve" smooth="yes"/>
      <point x="408" y="648"/>
      <point x="525" y="743"/>
      <point x="525" y="870" type="curve" smooth="yes"/>
      <point x="525" y="962"/>
      <point x="470" y="1036"/>
      <point x="366" y="1036" type="curve" smooth="yes"/>
      <point x="237" y="1036"/>
      <point x="121" y="944"/>
      <point x="121" y="808" type="curve" smooth="yes"/>
      <point x="121" y="723"/>
      <point x="168" y="648"/>
    </contour>
  </outline>
</glyph>
<glyph name="ordmasculine" format="2">
  <advance width="750"/>
  <unicode hex="00BA"/>
  <outline>
    <contour>
      <point x="466" y="768" type="curve" smooth="yes"/>
      <point x="702" y="768"/>
      <point x="854" y="907"/>
      <point x="854" y="1150" type="curve" smooth="yes"/>
      <point x="854" y="1310"/>
      <point x="770" y="1431"/>
      <point x="596" y="1431" type="curve" smooth="yes"/>
      <point x="338" y="1431"/>
      <point x="184" y="1266"/>
      <point x="184" y="1013" type="curve" smooth="yes"/>
      <point x="184" y="858"/>
      <point x="278" y="768"/>
    </contour>
    <contour>
      <point x="505" y="1022" type="curve" smooth="yes"/>
      <point x="471" y="1022"/>
      <point x="456" y="1047"/>
      <point x="456" y="1082" type="curve" smooth="yes"/>
      <point x="456" y="1151"/>
      <point x="503" y="1231"/>
      <point x="568" y="1231" type="curve" smooth="yes"/>
      <point x="601" y="1231"/>
      <point x="624" y="1205"/>
      <point x="624" y="1163" type="curve" smooth="yes"/>
      <point x="624" y="1096"/>
      <point x="579" y="1022"/>
    </contour>
  </outline>
</glyph>
<glyph name="guillemetright" format="2">
  <advance width="1313"/>
  <unicode hex="00BB"/>
  <outline>
    <contour>
      <point x="159" y="935" type="curve"/>
      <point x="228" y="873"/>
      <point x="356" y="775"/>
      <point x="433" y="717" type="curve"/>
      <point x="293" y="620"/>
      <point x="100" y="487"/>
      <point x="81" y="474" type="curve"/>
      <point x="81" y="399"/>
      <point x="102" y="260"/>
      <point x="112" y="200" type="curve"/>
      <point x="346" y="325"/>
      <point x="608" y="511"/>
      <point x="821" y="689" type="curve"/>
      <point x="756" y="817"/>
      <point x="538" y="1091"/>
      <point x="493" y="1121" type="curve"/>
      <point x="425" y="1091"/>
      <point x="263" y="1002"/>
    </contour>
    <contour>
      <point x="671" y="1026" type="curve"/>
      <point x="740" y="963"/>
      <point x="862" y="814"/>
      <point x="935" y="711" type="curve"/>
      <point x="791" y="584"/>
      <point x="578" y="399"/>
      <point x="490" y="337" type="curve"/>
      <point x="499" y="289"/>
      <point x="590" y="162"/>
      <point x="615" y="132" type="curve"/>
      <point x="875" y="303"/>
      <point x="1097" y="487"/>
      <point x="1335" y="689" type="curve"/>
      <point x="1315" y="723"/>
      <point x="1048" y="1122"/>
      <point x="965" y="1190" type="curve"/>
      <point x="902" y="1162"/>
      <point x="760" y="1080"/>
    </contour>
  </outline>
</glyph>
<glyph name="questiondown" format="2">
  <advance width="1036"/>
  <unicode hex="00BF"/>
  <outline>
    <contour>
      <point x="425" y="625" type="curve"/>
      <point x="390" y="502"/>
      <point x="288" y="390"/>
      <point x="193" y="322" type="curve" smooth="yes"/>
      <point x="40" y="213"/>
      <point x="-64" y="119"/>
      <point x="-64" y="-80" type="curve" smooth="yes"/>
      <point x="-64" y="-286"/>
      <point x="113" y="-379"/>
      <point x="355" y="-379" type="curve" smooth="yes"/>
      <point x="608" y="-379"/>
      <point x="832" y="-257"/>
      <point x="978" y="-22" type="curve"/>
      <point x="705" y="163" type="line"/>
      <point x="588" y="20"/>
      <point x="514" y="-31"/>
      <point x="435" y="-31" type="curve" smooth="yes"/>
      <point x="395" y="-31"/>
      <point x="363" y="-13"/>
      <point x="363" y="20" type="curve" smooth="yes"/>
      <point x="363" y="72"/>
      <point x="436" y="125"/>
      <point x="526" y="186" type="curve" smooth="yes"/>
      <point x="688" y="296"/>
      <point x="787" y="424"/>
      <point x="835" y="606" type="curve"/>
      <point x="696" y="620"/>
      <point x="600" y="625"/>
    </contour>
    <contour>
      <point x="727" y="1103" type="curve" smooth="yes"/>
      <point x="583" y="1103"/>
      <point x="434" y="997"/>
      <point x="434" y="859" type="curve" smooth="yes"/>
      <point x="434" y="760"/>
      <point x="516" y="690"/>
      <point x="642" y="690" type="curve" smooth="yes"/>
      <point x="781" y="690"/>
      <point x="927" y="784"/>
      <point x="927" y="927" type="curve" smooth="yes"/>
      <point x="927" y="1038"/>
      <point x="842" y="1103"/>
    </contour>
  </outline>
</glyph>
<glyph name="Eth" format="2">
  <advance width="1198"/>
  <unicode hex="00D0"/>
  <anchor x="456.585" y="0.0" name="bottom"/>
  <anchor x="354" y="646" name="center"/>
  <anchor x="716" y="1291" name="top"/>
  <outline>
    <contour>
      <point x="625" y="553" type="curve"/>
      <point x="649" y="644"/>
      <point x="668" y="736"/>
      <point x="672" y="768" type="curve"/>
      <point x="552" y="768"/>
      <point x="204" y="740"/>
      <point x="60" y="710" type="curve"/>
      <point x="43" y="648"/>
      <point x="33" y="589"/>
      <point x="23" y="525" type="curve"/>
      <point x="210" y="543"/>
      <point x="521" y="553"/>
    </contour>
    <component base="D"/>
  </outline>
</glyph>
<glyph name="Oslash" format="2">
  <advance width="1354"/>
  <unicode hex="00D8"/>
  <anchor x="534.585" y="0" name="bottom"/>
  <anchor x="803" y="1370" name="top"/>
  <anchor x="661" y="646" name="center"/>
  <anchor x="895" y="0" name="ogonek"/>
  <anchor x="223.507" y="1291.0" name="topleft"/>
  <anchor x="1198" y="1190" name="topright"/>
  <outline>
    <contour>
      <point x="1094" y="1419" type="curve"/>
      <point x="814" y="869"/>
      <point x="306" y="350"/>
      <point x="-58" y="30" type="curve"/>
      <point x="-11" y="-34"/>
      <point x="52" y="-97"/>
      <point x="157" y="-122" type="curve"/>
      <point x="461" y="143"/>
      <point x="975" y="631"/>
      <point x="1346" y="1301" type="curve"/>
      <point x="1315" y="1354"/>
      <point x="1217" y="1408"/>
    </contour>
    <component base="O"/>
  </outline>
</glyph>
<glyph name="Thorn" format="2">
  <advance width="1316"/>
  <unicode hex="00DE"/>
  <outline>
    <contour>
      <point x="634" y="1282" type="curve"/>
      <point x="442" y="1282"/>
      <point x="288" y="1265"/>
      <point x="267" y="1262" type="curve"/>
      <point x="220" y="1017"/>
      <point x="11" y="191"/>
      <point x="-46" y="-22" type="curve"/>
      <point x="81" y="-22"/>
      <point x="283" y="-12"/>
      <point x="389" y="7" type="curve"/>
      <point x="450" y="234"/>
      <point x="605" y="1046"/>
    </contour>
    <contour>
      <point x="469" y="727" type="line"/>
      <point x="539" y="755"/>
      <point x="649" y="791"/>
      <point x="777" y="791" type="curve" smooth="yes"/>
      <point x="878" y="791"/>
      <point x="942" y="762"/>
      <point x="942" y="697" type="curve" smooth="yes"/>
      <point x="942" y="573"/>
      <point x="798" y="547"/>
      <point x="659" y="547" type="curve" smooth="yes"/>
      <point x="577" y="547"/>
      <point x="498" y="555"/>
      <point x="451" y="561" type="curve"/>
      <point x="342" y="209" type="line"/>
      <point x="414" y="199"/>
      <point x="519" y="194"/>
      <point x="596" y="194" type="curve" smooth="yes"/>
      <point x="1004" y="194"/>
      <point x="1318" y="365"/>
      <point x="1318" y="755" type="curve" smooth="yes"/>
      <point x="1318" y="1014"/>
      <point x="1104" y="1129"/>
      <point x="826" y="1129" type="curve" smooth="yes"/>
      <point x="709" y="1129"/>
      <point x="593" y="1103"/>
      <point x="522" y="1083" type="curve"/>
    </contour>
  </outline>
</glyph>
<glyph name="germandbls" format="2">
  <advance width="1144"/>
  <unicode hex="00DF"/>
  <anchor x="430" y="0" name="bottom"/>
  <anchor x="733" y="1372" name="top"/>
  <outline>
    <contour>
      <point x="6" y="-5" type="curve"/>
      <point x="365" y="53" type="line"/>
      <point x="375" y="141"/>
      <point x="458" y="785"/>
      <point x="521" y="1021" type="curve" smooth="yes"/>
      <point x="546" y="1114"/>
      <point x="632" y="1114"/>
      <point x="669" y="1114" type="curve" smooth="yes"/>
      <point x="731" y="1114"/>
      <point x="773" y="1069"/>
      <point x="773" y="1020" type="curve" smooth="yes"/>
      <point x="773" y="957"/>
      <point x="719" y="912"/>
      <point x="663" y="867" type="curve" smooth="yes"/>
      <point x="601" y="818"/>
      <point x="538" y="763"/>
      <point x="538" y="679" type="curve" smooth="yes"/>
      <point x="538" y="628"/>
      <point x="566" y="600"/>
      <point x="590" y="584" type="curve" smooth="yes"/>
      <point x="688" y="521"/>
      <point x="772" y="456"/>
      <point x="772" y="382" type="curve" smooth="yes"/>
      <point x="772" y="341"/>
      <point x="747" y="295"/>
      <point x="704" y="295" type="curve" smooth="yes"/>
      <point x="664" y="295"/>
      <point x="629" y="326"/>
      <point x="599" y="354" type="curve"/>
      <point x="409" y="65" type="line"/>
      <point x="434" y="34"/>
      <point x="500" y="-10"/>
      <point x="638" y="-10" type="curve" smooth="yes"/>
      <point x="874" y="-10"/>
      <point x="1085" y="216"/>
      <point x="1085" y="450" type="curve" smooth="yes"/>
      <point x="1085" y="552"/>
      <point x="1036" y="628"/>
      <point x="977" y="669" type="curve" smooth="yes"/>
      <point x="942" y="693"/>
      <point x="909" y="724"/>
      <point x="909" y="761" type="curve" smooth="yes"/>
      <point x="909" y="785"/>
      <point x="938" y="812"/>
      <point x="981" y="850" type="curve" smooth="yes"/>
      <point x="1044" y="905"/>
      <point x="1117" y="990"/>
      <point x="1117" y="1124" type="curve" smooth="yes"/>
      <point x="1117" y="1293"/>
      <point x="969" y="1415"/>
      <point x="759" y="1415" type="curve" smooth="yes"/>
      <point x="509" y="1415"/>
      <point x="238" y="1291"/>
      <point x="156" y="988" type="curve" smooth="yes"/>
      <point x="85" y="726"/>
      <point x="6" y="104"/>
    </contour>
  </outline>
</glyph>
<glyph name="ae" format="2">
  <advance width="1867"/>
  <unicode hex="00E6"/>
  <anchor x="775" y="0" name="bottom"/>
  <anchor x="1069" y="1063" name="top"/>
  <anchor x="1446" y="18" name="ogonek"/>
  <outline>
    <contour>
      <point x="468" y="-18" type="curve" smooth="yes"/>
      <point x="765" y="-18"/>
      <point x="1048" y="190"/>
      <point x="1122" y="462" type="curve" smooth="yes"/>
      <point x="1144" y="543"/>
      <point x="1159" y="624"/>
      <point x="1159" y="704" type="curve" smooth="yes"/>
      <point x="1159" y="970"/>
      <point x="1008" y="1115"/>
      <point x="732" y="1115" type="curve" smooth="yes"/>
      <point x="568" y="1115"/>
      <point x="315" y="1039"/>
      <point x="199" y="952" type="curve"/>
      <point x="413" y="727" type="line"/>
      <point x="471" y="768"/>
      <point x="591" y="798"/>
      <point x="670" y="798" type="curve" smooth="yes"/>
      <point x="753" y="798"/>
      <point x="811" y="767"/>
      <point x="811" y="694" type="curve" smooth="yes"/>
      <point x="811" y="681"/>
      <point x="809" y="667"/>
      <point x="805" y="653" type="curve"/>
      <point x="780" y="677"/>
      <point x="663" y="684"/>
      <point x="610" y="684" type="curve" smooth="yes"/>
      <point x="334" y="684"/>
      <point x="51" y="599"/>
      <point x="51" y="318" type="curve" smooth="yes"/>
      <point x="51" y="98"/>
      <point x="222" y="-18"/>
    </contour>
    <contour>
      <point x="511" y="272" type="curve" smooth="yes"/>
      <point x="459" y="272"/>
      <point x="407" y="274"/>
      <point x="407" y="318" type="curve" smooth="yes"/>
      <point x="407" y="405"/>
      <point x="559" y="428"/>
      <point x="652" y="428" type="curve" smooth="yes"/>
      <point x="691" y="428"/>
      <point x="727" y="422"/>
      <point x="754" y="408" type="curve"/>
      <point x="753" y="391"/>
      <point x="748" y="368"/>
      <point x="741" y="343" type="curve" smooth="yes"/>
      <point x="733" y="313"/>
      <point x="643" y="272"/>
    </contour>
    <component base="e" xOffset="768"/>
  </outline>
</glyph>
<glyph name="ccedilla" format="2">
  <advance width="1026"/>
  <unicode hex="00E7"/>
  <anchor x="403" y="0" name="bottom"/>
  <anchor x="655.415" y="1063.0" name="top"/>
  <outline>
    <contour>
      <point x="297" y="-537" type="curve" smooth="yes"/>
      <point x="531" y="-537"/>
      <point x="784" y="-453"/>
      <point x="784" y="-231" type="curve" smooth="yes"/>
      <point x="784" y="-124"/>
      <point x="720" y="-77"/>
      <point x="624" y="-77" type="curve" smooth="yes"/>
      <point x="554" y="-77"/>
      <point x="495" y="-105"/>
      <point x="467" y="-139" type="curve"/>
      <point x="512" y="39" type="line"/>
      <point x="292" y="27" type="line"/>
      <point x="201" y="-257" type="line"/>
      <point x="238" y="-244"/>
      <point x="322" y="-229"/>
      <point x="399" y="-229" type="curve" smooth="yes"/>
      <point x="464" y="-229"/>
      <point x="515" y="-239"/>
      <point x="515" y="-272" type="curve" smooth="yes"/>
      <point x="515" y="-315"/>
      <point x="446" y="-337"/>
      <point x="324" y="-337" type="curve" smooth="yes"/>
      <point x="291" y="-337"/>
      <point x="209" y="-325"/>
      <point x="181" y="-312" type="curve"/>
      <point x="92" y="-515" type="line"/>
      <point x="112" y="-520"/>
      <point x="192" y="-537"/>
    </contour>
    <component base="c"/>
  </outline>
</glyph>
<glyph name="oslash" format="2">
  <advance width="1170"/>
  <unicode hex="00F8"/>
  <anchor x="737.415" y="1063" name="top"/>
  <anchor x="434" y="0" name="bottom"/>
  <anchor x="576" y="532" name="center"/>
  <anchor x="620" y="0" name="ogonek"/>
  <anchor x="973" y="941" name="topright"/>
  <outline>
    <contour>
      <point x="1186" y="1063" type="curve"/>
      <point x="1161" y="1085"/>
      <point x="1105" y="1117"/>
      <point x="1057" y="1144" type="curve"/>
      <point x="836" y="862"/>
      <point x="205" y="259"/>
      <point x="-61" y="17" type="curve"/>
      <point x="-39" y="-26"/>
      <point x="10" y="-70"/>
      <point x="41" y="-90" type="curve"/>
      <point x="281" y="95"/>
      <point x="883" y="637"/>
    </contour>
    <component base="o"/>
  </outline>
</glyph>
<glyph name="thorn" format="2">
  <advance width="1200"/>
  <unicode hex="00FE"/>
  <anchor x="458" y="0" name="bottom"/>
  <anchor x="465" y="1350" name="top"/>
  <outline>
    <contour>
      <point x="253" y="-395" type="line"/>
      <point x="294" y="-248"/>
      <point x="370" y="28"/>
      <point x="388" y="96" type="curve"/>
      <point x="427" y="65"/>
      <point x="525" y="43"/>
      <point x="624" y="43" type="curve" smooth="yes"/>
      <point x="942" y="43"/>
      <point x="1187" y="305"/>
      <point x="1187" y="636" type="curve" smooth="yes"/>
      <point x="1187" y="847"/>
      <point x="1077" y="1008"/>
      <point x="856" y="1008" type="curve" smooth="yes"/>
      <point x="761" y="1008"/>
      <point x="683" y="989"/>
      <point x="567" y="917" type="curve"/>
      <point x="610" y="1090"/>
      <point x="665" y="1312"/>
      <point x="675" y="1397" type="curve"/>
      <point x="283" y="1330" type="line"/>
      <point x="188" y="976"/>
      <point x="-102" y="-214"/>
      <point x="-138" y="-379" type="curve"/>
    </contour>
    <contour>
      <point x="637" y="409" type="curve" smooth="yes"/>
      <point x="572" y="409"/>
      <point x="505" y="433"/>
      <point x="466" y="449" type="curve"/>
      <point x="478" y="490"/>
      <point x="491" y="541"/>
      <point x="499" y="586" type="curve"/>
      <point x="536" y="619"/>
      <point x="632" y="665"/>
      <point x="723" y="665" type="curve" smooth="yes"/>
      <point x="802" y="665"/>
      <point x="842" y="641"/>
      <point x="842" y="588" type="curve" smooth="yes"/>
      <point x="842" y="490"/>
      <point x="748" y="409"/>
    </contour>
  </outline>
</glyph>
<glyph name="aogonek" format="2">
  <advance width="1295"/>
  <unicode hex="0105"/>
  <anchor x="475" y="0" name="bottom"/>
  <anchor x="1064" y="0" name="ogonek"/>
  <anchor x="748" y="1063" name="top"/>
  <outline>
    <contour>
      <point x="1178" y="-254" type="line"/>
      <point x="1139" y="-282"/>
      <point x="1094" y="-291"/>
      <point x="1051" y="-291" type="curve" smooth="yes"/>
      <point x="998" y="-291"/>
      <point x="944" y="-267"/>
      <point x="944" y="-195" type="curve" smooth="yes"/>
      <point x="944" y="-115"/>
      <point x="1019" y="-31"/>
      <point x="1064" y="0" type="curve"/>
      <point x="928" y="58" type="line"/>
      <point x="863" y="39"/>
      <point x="681" y="-112"/>
      <point x="681" y="-284" type="curve" smooth="yes"/>
      <point x="681" y="-451"/>
      <point x="825" y="-536"/>
      <point x="983" y="-536" type="curve" smooth="yes"/>
      <point x="1087" y="-536"/>
      <point x="1149" y="-523"/>
      <point x="1178" y="-511" type="curve"/>
    </contour>
    <component base="a"/>
  </outline>
</glyph>
<glyph name="dcroat" format="2">
  <advance width="1195"/>
  <unicode hex="0111"/>
  <anchor x="426" y="0" name="bottom"/>
  <anchor x="1054" y="1177" name="center"/>
  <anchor x="819" y="1470" name="top"/>
  <anchor x="1277" y="1023" name="topright"/>
  <outline>
    <contour>
      <point x="1333" y="1073" type="curve"/>
      <point x="1357" y="1133"/>
      <point x="1377" y="1188"/>
      <point x="1393" y="1245" type="curve"/>
      <point x="1249" y="1273"/>
      <point x="874" y="1300"/>
      <point x="739" y="1300" type="curve"/>
      <point x="728" y="1270"/>
      <point x="697" y="1184"/>
      <point x="675" y="1099" type="curve"/>
      <point x="791" y="1099"/>
      <point x="1133" y="1089"/>
    </contour>
    <component base="d"/>
  </outline>
</glyph>
<glyph name="Eogonek" format="2">
  <advance width="957"/>
  <unicode hex="0118"/>
  <anchor x="337" y="0" name="bottom"/>
  <anchor x="599" y="0" name="ogonek"/>
  <anchor x="683" y="1321" name="top"/>
  <anchor x="224" y="1291" name="topleft"/>
  <outline>
    <contour>
      <point x="669" y="-249" type="line"/>
      <point x="630" y="-277"/>
      <point x="585" y="-286"/>
      <point x="542" y="-286" type="curve" smooth="yes"/>
      <point x="489" y="-286"/>
      <point x="435" y="-262"/>
      <point x="435" y="-190" type="curve" smooth="yes"/>
      <point x="435" y="-110"/>
      <point x="510" y="-26"/>
      <point x="555" y="5" type="curve"/>
      <point x="419" y="63" type="line"/>
      <point x="354" y="44"/>
      <point x="172" y="-107"/>
      <point x="172" y="-279" type="curve" smooth="yes"/>
      <point x="172" y="-446"/>
      <point x="316" y="-531"/>
      <point x="474" y="-531" type="curve" smooth="yes"/>
      <point x="578" y="-531"/>
      <point x="640" y="-518"/>
      <point x="669" y="-506" type="curve"/>
    </contour>
    <component base="E"/>
  </outline>
</glyph>
<glyph name="eogonek" format="2">
  <advance width="1123"/>
  <unicode hex="0119"/>
  <anchor x="403" y="10" name="bottom"/>
  <anchor x="678" y="18" name="ogonek"/>
  <anchor x="737" y="1063" name="top"/>
  <outline>
    <contour>
      <point x="792" y="-236" type="line"/>
      <point x="753" y="-264"/>
      <point x="708" y="-273"/>
      <point x="665" y="-273" type="curve" smooth="yes"/>
      <point x="612" y="-273"/>
      <point x="558" y="-249"/>
      <point x="558" y="-177" type="curve" smooth="yes"/>
      <point x="558" y="-97"/>
      <point x="633" y="-13"/>
      <point x="678" y="18" type="curve"/>
      <point x="542" y="76" type="line"/>
      <point x="477" y="57"/>
      <point x="295" y="-94"/>
      <point x="295" y="-266" type="curve" smooth="yes"/>
      <point x="295" y="-433"/>
      <point x="439" y="-518"/>
      <point x="597" y="-518" type="curve" smooth="yes"/>
      <point x="701" y="-518"/>
      <point x="763" y="-505"/>
      <point x="792" y="-493" type="curve"/>
    </contour>
    <component base="e"/>
  </outline>
</glyph>
<glyph name="Hbar" format="2">
  <advance width="1094"/>
  <unicode hex="0126"/>
  <anchor x="404.585" y="0.0" name="bottom"/>
  <anchor x="711" y="1063" name="center"/>
  <anchor x="750.507" y="1291.0" name="top"/>
  <anchor x="223.507" y="1291.0" name="topleft"/>
  <outline>
    <contour>
      <point x="1217" y="939" type="curve"/>
      <point x="1252" y="1023"/>
      <point x="1285" y="1154"/>
      <point x="1293" y="1188" type="curve"/>
      <point x="1101" y="1188"/>
      <point x="376" y="1179"/>
      <point x="193" y="1136" type="curve"/>
      <point x="169" y="1072"/>
      <point x="149" y="994"/>
      <point x="132" y="919" type="curve"/>
      <point x="439" y="933"/>
      <point x="1051" y="939"/>
    </contour>
    <component base="H"/>
  </outline>
</glyph>
<glyph name="hbar" format="2">
  <advance width="1123"/>
  <unicode hex="0127"/>
  <anchor x="419.585" y="0.0" name="bottom"/>
  <anchor x="523" y="1189" name="center"/>
  <anchor x="439" y="1412" name="top"/>
  <outline>
    <contour>
      <point x="804" y="1099" type="curve"/>
      <point x="826" y="1184"/>
      <point x="841" y="1270"/>
      <point x="846" y="1300" type="curve"/>
      <point x="711" y="1300"/>
      <point x="322" y="1273"/>
      <point x="164" y="1245" type="curve"/>
      <point x="148" y="1188"/>
      <point x="140" y="1133"/>
      <point x="132" y="1073" type="curve"/>
      <point x="340" y="1089"/>
      <point x="688" y="1099"/>
    </contour>
    <component base="h"/>
  </outline>
</glyph>
<glyph name="Iogonek" format="2">
  <advance width="588"/>
  <unicode hex="012E"/>
  <anchor x="147" y="0" name="bottom"/>
  <anchor x="322" y="-24" name="ogonek"/>
  <anchor x="493" y="1291" name="top"/>
  <anchor x="238" y="1291" name="topleft"/>
  <outline>
    <contour>
      <point x="296" y="-258" type="line"/>
      <point x="257" y="-286"/>
      <point x="212" y="-295"/>
      <point x="169" y="-295" type="curve" smooth="yes"/>
      <point x="116" y="-295"/>
      <point x="62" y="-271"/>
      <point x="62" y="-199" type="curve" smooth="yes"/>
      <point x="62" y="-119"/>
      <point x="135" y="-35"/>
      <point x="182" y="-4" type="curve"/>
      <point x="46" y="54" type="line"/>
      <point x="-19" y="35"/>
      <point x="-201" y="-116"/>
      <point x="-201" y="-288" type="curve" smooth="yes"/>
      <point x="-201" y="-455"/>
      <point x="-57" y="-540"/>
      <point x="101" y="-540" type="curve" smooth="yes"/>
      <point x="205" y="-540"/>
      <point x="267" y="-527"/>
      <point x="296" y="-515" type="curve"/>
    </contour>
    <component base="I"/>
  </outline>
</glyph>
<glyph name="oe" format="2">
  <advance width="1795"/>
  <unicode hex="0153"/>
  <anchor x="828" y="0" name="bottom"/>
  <anchor x="1062" y="1063" name="top"/>
  <outline>
    <contour>
      <point x="487" y="-17" type="curve" smooth="yes"/>
      <point x="878" y="-17"/>
      <point x="1119" y="243"/>
      <point x="1119" y="648" type="curve" smooth="yes"/>
      <point x="1119" y="897"/>
      <point x="1001" y="1058"/>
      <point x="711" y="1058" type="curve" smooth="yes"/>
      <point x="313" y="1058"/>
      <point x="38" y="788"/>
      <point x="38" y="375" type="curve" smooth="yes"/>
      <point x="38" y="126"/>
      <point x="186" y="-17"/>
    </contour>
    <contour>
      <point x="541" y="342" type="curve" smooth="yes"/>
      <point x="462" y="342"/>
      <point x="425" y="404"/>
      <point x="425" y="490" type="curve" smooth="yes"/>
      <point x="425" y="634"/>
      <point x="508" y="773"/>
      <point x="646" y="773" type="curve" smooth="yes"/>
      <point x="735" y="773"/>
      <point x="768" y="699"/>
      <point x="768" y="614" type="curve" smooth="yes"/>
      <point x="768" y="467"/>
      <point x="692" y="342"/>
    </contour>
    <contour>
      <point x="1651" y="150" type="curve"/>
      <point x="1633" y="261"/>
      <point x="1504" y="429"/>
      <point x="1490" y="442" type="curve"/>
      <point x="1381" y="368"/>
      <point x="1293" y="349"/>
      <point x="1243" y="349" type="curve" smooth="yes"/>
      <point x="1165" y="349"/>
      <point x="1104" y="381"/>
      <point x="1104" y="447" type="curve" smooth="yes"/>
      <point x="1104" y="461"/>
      <point x="1104" y="476"/>
      <point x="1109" y="492" type="curve"/>
      <point x="1140" y="497"/>
      <point x="1264" y="502"/>
      <point x="1357" y="505" type="curve" smooth="yes"/>
      <point x="1422" y="507"/>
      <point x="1686" y="515"/>
      <point x="1719" y="515" type="curve"/>
      <point x="1759" y="598"/>
      <point x="1789" y="677"/>
      <point x="1789" y="767" type="curve" smooth="yes"/>
      <point x="1789" y="957"/>
      <point x="1644" y="1063"/>
      <point x="1410" y="1063" type="curve" smooth="yes"/>
      <point x="1007" y="1063"/>
      <point x="745" y="791"/>
      <point x="745" y="379" type="curve" smooth="yes"/>
      <point x="745" y="144"/>
      <point x="892" y="-16"/>
      <point x="1170" y="-16" type="curve" smooth="yes"/>
      <point x="1348" y="-16"/>
      <point x="1528" y="48"/>
    </contour>
    <contour>
      <point x="1182" y="704" type="curve"/>
      <point x="1199" y="748"/>
      <point x="1274" y="831"/>
      <point x="1373" y="831" type="curve" smooth="yes"/>
      <point x="1442" y="831"/>
      <point x="1477" y="791"/>
      <point x="1477" y="744" type="curve" smooth="yes"/>
      <point x="1477" y="724"/>
      <point x="1476" y="719"/>
      <point x="1474" y="714" type="curve"/>
      <point x="1457" y="716"/>
      <point x="1411" y="717"/>
      <point x="1365" y="717" type="curve" smooth="yes"/>
      <point x="1283" y="717"/>
      <point x="1211" y="708"/>
    </contour>
  </outline>
</glyph>
<glyph name="tbar" format="2">
  <advance width="964"/>
  <unicode hex="0167"/>
  <anchor x="459" y="-53" name="bottom"/>
  <anchor x="462" y="532" name="center"/>
  <anchor x="631" y="1421" name="top"/>
  <anchor x="863" y="1376" name="topright"/>
  <outline>
    <contour>
      <point x="879" y="460" type="curve"/>
      <point x="908" y="568"/>
      <point x="932" y="688"/>
      <point x="938" y="727" type="curve"/>
      <point x="795" y="727"/>
      <point x="234" y="718"/>
      <point x="96" y="667" type="curve"/>
      <point x="76" y="593"/>
      <point x="63" y="523"/>
      <point x="49" y="436" type="curve"/>
      <point x="279" y="453"/>
      <point x="755" y="460"/>
    </contour>
    <component base="t"/>
  </outline>
</glyph>
<glyph name="Ohorn" format="2">
  <advance width="1354"/>
  <unicode hex="01A0"/>
  <anchor x="535" y="0" name="bottom"/>
  <anchor x="881" y="1291" name="top"/>
  <outline>
    <contour>
      <point x="574" y="-51" type="curve" smooth="yes"/>
      <point x="1102" y="-51"/>
      <point x="1352" y="266"/>
      <point x="1352" y="797" type="curve" smooth="yes"/>
      <point x="1352" y="1107"/>
      <point x="1242" y="1320"/>
      <point x="852" y="1320" type="curve" smooth="yes"/>
      <point x="371" y="1320"/>
      <point x="64" y="991"/>
      <point x="64" y="459" type="curve" smooth="yes"/>
      <point x="64" y="165"/>
      <point x="214" y="-51"/>
    </contour>
    <contour>
      <point x="659" y="350" type="curve" smooth="yes"/>
      <point x="518" y="350"/>
      <point x="469" y="469"/>
      <point x="469" y="578" type="curve" smooth="yes"/>
      <point x="469" y="817"/>
      <point x="578" y="995"/>
      <point x="799" y="995" type="curve" smooth="yes"/>
      <point x="946" y="995"/>
      <point x="983" y="874"/>
      <point x="983" y="758" type="curve" smooth="yes"/>
      <point x="983" y="513"/>
      <point x="886" y="350"/>
    </contour>
    <contour>
      <point x="1245" y="1043" type="line"/>
      <point x="1427" y="1043"/>
      <point x="1600" y="1163"/>
      <point x="1600" y="1412" type="curve"/>
      <point x="1575" y="1440"/>
      <point x="1422" y="1470"/>
      <point x="1303" y="1470" type="curve"/>
      <point x="1303" y="1312"/>
      <point x="1192" y="1220"/>
      <point x="1051" y="1220" type="curve"/>
    </contour>
  </outline>
</glyph>
<glyph name="ohorn" format="2">
  <advance width="1183"/>
  <unicode hex="01A1"/>
  <anchor x="429" y="0" name="bottom"/>
  <anchor x="713" y="1063" name="top"/>
  <outline>
    <contour>
      <point x="487" y="-17" type="curve" smooth="yes"/>
      <point x="878" y="-17"/>
      <point x="1119" y="243"/>
      <point x="1119" y="648" type="curve" smooth="yes"/>
      <point x="1119" y="897"/>
      <point x="1001" y="1058"/>
      <point x="711" y="1058" type="curve" smooth="yes"/>
      <point x="313" y="1058"/>
      <point x="38" y="788"/>
      <point x="38" y="375" type="curve" smooth="yes"/>
      <point x="38" y="126"/>
      <point x="186" y="-17"/>
    </contour>
    <contour>
      <point x="541" y="342" type="curve" smooth="yes"/>
      <point x="462" y="342"/>
      <point x="425" y="404"/>
      <point x="425" y="490" type="curve" smooth="yes"/>
      <point x="425" y="634"/>
      <point x="508" y="773"/>
      <point x="646" y="773" type="curve" smooth="yes"/>
      <point x="735" y="773"/>
      <point x="768" y="699"/>
      <point x="768" y="614" type="curve" smooth="yes"/>
      <point x="768" y="467"/>
      <point x="692" y="342"/>
    </contour>
    <contour>
      <point x="849" y="817" type="line"/>
      <point x="1031" y="817"/>
      <point x="1275" y="910"/>
      <point x="1347" y="1180" type="curve"/>
      <point x="1329" y="1208"/>
      <point x="1210" y="1238"/>
      <point x="1091" y="1238" type="curve"/>
      <point x="1054" y="1100"/>
      <point x="990" y="1011"/>
      <point x="849" y="1011" type="curve"/>
    </contour>
  </outline>
</glyph>
<glyph name="Uhorn" format="2">
  <advance width="1404"/>
  <unicode hex="01AF"/>
  <anchor x="516" y="0" name="bottom"/>
  <anchor x="834" y="1345" name="top"/>
  <outline>
    <contour>
      <point x="487" y="-27" type="curve" smooth="yes"/>
      <point x="957" y="-27"/>
      <point x="1116" y="418"/>
      <point x="1261" y="957" type="curve" smooth="yes"/>
      <point x="1282" y="1036"/>
      <point x="1299" y="1113"/>
      <point x="1312" y="1185" type="curve"/>
      <point x="1464" y="1234"/>
      <point x="1624" y="1345"/>
      <point x="1686" y="1522" type="curve"/>
      <point x="1668" y="1550"/>
      <point x="1484" y="1571"/>
      <point x="1365" y="1571" type="curve"/>
      <point x="1315" y="1384"/>
      <point x="1190" y="1328"/>
      <point x="922" y="1328" type="curve"/>
      <point x="911" y="1245"/>
      <point x="810" y="833"/>
      <point x="777" y="710" type="curve" smooth="yes"/>
      <point x="740" y="570"/>
      <point x="693" y="458"/>
      <point x="589" y="458" type="curve" smooth="yes"/>
      <point x="540" y="458"/>
      <point x="519" y="488"/>
      <point x="519" y="554" type="curve" smooth="yes"/>
      <point x="519" y="617"/>
      <point x="539" y="712"/>
      <point x="574" y="844" type="curve" smooth="yes"/>
      <point x="619" y="1014"/>
      <point x="675" y="1193"/>
      <point x="725" y="1335" type="curve"/>
      <point x="660" y="1342"/>
      <point x="575" y="1347"/>
      <point x="494" y="1347" type="curve" smooth="yes"/>
      <point x="431" y="1347"/>
      <point x="358" y="1342"/>
      <point x="287" y="1335" type="curve"/>
      <point x="263" y="1256"/>
      <point x="241" y="1183"/>
      <point x="223" y="1115" type="curve" smooth="yes"/>
      <point x="146" y="830"/>
      <point x="98" y="592"/>
      <point x="98" y="410" type="curve" smooth="yes"/>
      <point x="98" y="116"/>
      <point x="210" y="-27"/>
    </contour>
  </outline>
</glyph>
<glyph name="Oogonek" format="2">
  <advance width="1354"/>
  <unicode hex="01EA"/>
  <anchor x="534.585" y="0.0" name="bottom"/>
  <anchor x="661" y="646" name="center"/>
  <anchor x="895" y="0" name="ogonek"/>
  <anchor x="880.507" y="1291.0" name="top"/>
  <anchor x="223.507" y="1291.0" name="topleft"/>
  <anchor x="1198" y="1190" name="topright"/>
  <outline>
    <contour>
      <point x="1001" y="-251" type="line"/>
      <point x="962" y="-279"/>
      <point x="917" y="-288"/>
      <point x="874" y="-288" type="curve" smooth="yes"/>
      <point x="821" y="-288"/>
      <point x="767" y="-264"/>
      <point x="767" y="-192" type="curve" smooth="yes"/>
      <point x="767" y="-112"/>
      <point x="842" y="-28"/>
      <point x="887" y="3" type="curve"/>
      <point x="751" y="61" type="line"/>
      <point x="686" y="42"/>
      <point x="504" y="-109"/>
      <point x="504" y="-281" type="curve" smooth="yes"/>
      <point x="504" y="-448"/>
      <point x="648" y="-533"/>
      <point x="806" y="-533" type="curve" smooth="yes"/>
      <point x="910" y="-533"/>
      <point x="972" y="-520"/>
      <point x="1001" y="-508" type="curve"/>
    </contour>
    <component base="O"/>
  </outline>
</glyph>
<glyph name="oogonek" format="2">
  <advance width="1170"/>
  <unicode hex="01EB"/>
  <anchor x="434" y="0" name="bottom"/>
  <anchor x="576" y="532" name="center"/>
  <anchor x="620" y="0" name="ogonek"/>
  <anchor x="718" y="1063" name="top"/>
  <anchor x="973" y="941" name="topright"/>
  <outline>
    <contour>
      <point x="870" y="-219" type="line"/>
      <point x="831" y="-247"/>
      <point x="786" y="-256"/>
      <point x="743" y="-256" type="curve" smooth="yes"/>
      <point x="690" y="-256"/>
      <point x="636" y="-232"/>
      <point x="636" y="-160" type="curve" smooth="yes"/>
      <point x="636" y="-80"/>
      <point x="711" y="4"/>
      <point x="756" y="35" type="curve"/>
      <point x="620" y="93" type="line"/>
      <point x="555" y="74"/>
      <point x="373" y="-77"/>
      <point x="373" y="-249" type="curve" smooth="yes"/>
      <point x="373" y="-416"/>
      <point x="517" y="-501"/>
      <point x="675" y="-501" type="curve" smooth="yes"/>
      <point x="779" y="-501"/>
      <point x="841" y="-488"/>
      <point x="870" y="-476" type="curve"/>
    </contour>
    <component base="o"/>
  </outline>
</glyph>
<glyph name="gravecomb" format="2">
  <unicode hex="0300"/>
  <anchor x="588" y="1063" name="_top"/>
  <anchor x="700" y="1558" name="top"/>
  <outline>
    <contour>
      <point x="390" y="1558" type="curve"/>
      <point x="291" y="1474"/>
      <point x="211" y="1338"/>
      <point x="197" y="1313" type="curve"/>
      <point x="324" y="1280"/>
      <point x="556" y="1206"/>
      <point x="645" y="1155" type="curve"/>
      <point x="672" y="1167"/>
      <point x="768" y="1257"/>
      <point x="811" y="1326" type="curve"/>
      <point x="700" y="1430"/>
      <point x="452" y="1551"/>
    </contour>
  </outline>
</glyph>
<glyph name="tildecomb" format="2">
  <unicode hex="0303"/>
  <anchor x="728" y="1063" name="_top"/>
  <anchor x="800" y="1531" name="top"/>
  <outline>
    <contour>
      <point x="288" y="1348" type="curve"/>
      <point x="465" y="1195" type="line"/>
      <point x="479" y="1224"/>
      <point x="519" y="1306"/>
      <point x="596" y="1306" type="curve" smooth="yes"/>
      <point x="632" y="1306"/>
      <point x="670" y="1281"/>
      <point x="710" y="1251" type="curve" smooth="yes"/>
      <point x="758" y="1215"/>
      <point x="814" y="1176"/>
      <point x="879" y="1176" type="curve" smooth="yes"/>
      <point x="1048" y="1176"/>
      <point x="1142" y="1337"/>
      <point x="1154" y="1403" type="curve"/>
      <point x="973" y="1521" type="line"/>
      <point x="956" y="1470"/>
      <point x="918" y="1415"/>
      <point x="860" y="1415" type="curve" smooth="yes"/>
      <point x="818" y="1415"/>
      <point x="784" y="1440"/>
      <point x="748" y="1469" type="curve" smooth="yes"/>
      <point x="704" y="1504"/>
      <point x="653" y="1541"/>
      <point x="577" y="1541" type="curve" smooth="yes"/>
      <point x="441" y="1541"/>
      <point x="322" y="1445"/>
    </contour>
  </outline>
</glyph>
<glyph name="macroncomb" format="2">
  <unicode hex="0304"/>
  <anchor x="697" y="1063" name="_top"/>
  <anchor x="799" y="1476" name="top"/>
  <outline>
    <contour>
      <point x="1133" y="1219" type="curve"/>
      <point x="1162" y="1327"/>
      <point x="1182" y="1437"/>
      <point x="1188" y="1476" type="curve"/>
      <point x="1028" y="1476"/>
      <point x="567" y="1442"/>
      <point x="378" y="1406" type="curve"/>
      <point x="358" y="1332"/>
      <point x="347" y="1262"/>
      <point x="336" y="1185" type="curve"/>
      <point x="583" y="1206"/>
      <point x="995" y="1219"/>
    </contour>
  </outline>
</glyph>
<glyph name="dieresiscomb" format="2">
  <unicode hex="0308"/>
  <anchor x="640" y="1063" name="_top"/>
  <anchor x="707" y="1486" name="top"/>
  <outline>
    <contour>
      <point x="467" y="1178" type="curve" smooth="yes"/>
      <point x="566" y="1178"/>
      <point x="647" y="1240"/>
      <point x="647" y="1327" type="curve" smooth="yes"/>
      <point x="647" y="1419"/>
      <point x="575" y="1493"/>
      <point x="466" y="1493" type="curve" smooth="yes"/>
      <point x="367" y="1493"/>
      <point x="288" y="1419"/>
      <point x="288" y="1325" type="curve" smooth="yes"/>
      <point x="288" y="1238"/>
      <point x="373" y="1178"/>
    </contour>
    <contour>
      <point x="899" y="1185" type="curve" smooth="yes"/>
      <point x="986" y="1185"/>
      <point x="1082" y="1250"/>
      <point x="1082" y="1347" type="curve" smooth="yes"/>
      <point x="1082" y="1441"/>
      <point x="994" y="1510"/>
      <point x="893" y="1510" type="curve" smooth="yes"/>
      <point x="802" y="1510"/>
      <point x="726" y="1434"/>
      <point x="726" y="1344" type="curve" smooth="yes"/>
      <point x="726" y="1254"/>
      <point x="805" y="1185"/>
    </contour>
  </outline>
</glyph>
<glyph name="ringcomb" format="2">
  <unicode hex="030A"/>
  <anchor x="560" y="1063" name="_top"/>
  <anchor x="699" y="1738" name="top"/>
  <outline>
    <contour>
      <point x="562" y="1166" type="curve" smooth="yes"/>
      <point x="759" y="1166"/>
      <point x="952" y="1339"/>
      <point x="952" y="1526" type="curve" smooth="yes"/>
      <point x="952" y="1645"/>
      <point x="829" y="1738"/>
      <point x="679" y="1738" type="curve" smooth="yes"/>
      <point x="484" y="1738"/>
      <point x="299" y="1589"/>
      <point x="299" y="1391" type="curve" smooth="yes"/>
      <point x="299" y="1263"/>
      <point x="415" y="1166"/>
    </contour>
    <contour>
      <point x="596" y="1388" type="curve" smooth="yes"/>
      <point x="569" y="1388"/>
      <point x="547" y="1404"/>
      <point x="547" y="1434" type="curve" smooth="yes"/>
      <point x="547" y="1479"/>
      <point x="593" y="1516"/>
      <point x="636" y="1516" type="curve" smooth="yes"/>
      <point x="670" y="1516"/>
      <point x="695" y="1500"/>
      <point x="695" y="1469" type="curve" smooth="yes"/>
      <point x="695" y="1423"/>
      <point x="644" y="1388"/>
    </contour>
  </outline>
</glyph>
<glyph name="hungarumlautcomb" format="2">
  <unicode hex="030B"/>
  <anchor x="737" y="1063" name="_top"/>
  <anchor x="895" y="1626" name="top"/>
  <outline>
    <contour>
      <point x="700" y="1626" type="curve"/>
      <point x="593" y="1568"/>
      <point x="408" y="1414"/>
      <point x="333" y="1311" type="curve"/>
      <point x="524" y="1228" type="line"/>
      <point x="695" y="1364"/>
      <point x="793" y="1422"/>
      <point x="946" y="1510" type="curve"/>
      <point x="917" y="1542"/>
      <point x="812" y="1626"/>
    </contour>
    <contour>
      <point x="1140" y="1542" type="curve"/>
      <point x="1053" y="1517"/>
      <point x="810" y="1375"/>
      <point x="714" y="1285" type="curve"/>
      <point x="877" y="1181" type="line"/>
      <point x="929" y="1214"/>
      <point x="1141" y="1321"/>
      <point x="1309" y="1387" type="curve"/>
      <point x="1301" y="1422"/>
      <point x="1231" y="1513"/>
    </contour>
  </outline>
</glyph>
<glyph name="caroncomb" format="2">
  <unicode hex="030C"/>
  <anchor x="531" y="1063" name="_top"/>
  <anchor x="675" y="1535" name="top"/>
  <outline>
    <contour>
      <point x="836" y="1540" type="curve"/>
      <point x="727" y="1440"/>
      <point x="612" y="1349"/>
      <point x="592" y="1337" type="curve"/>
      <point x="609" y="1337" type="line"/>
      <point x="580" y="1365"/>
      <point x="524" y="1455"/>
      <point x="483" y="1553" type="curve"/>
      <point x="392" y="1531"/>
      <point x="258" y="1459"/>
      <point x="197" y="1413" type="curve"/>
      <point x="268" y="1311"/>
      <point x="330" y="1233"/>
      <point x="398" y="1163" type="curve"/>
      <point x="464" y="1157"/>
      <point x="610" y="1152"/>
      <point x="693" y="1152" type="curve"/>
      <point x="763" y="1184"/>
      <point x="964" y="1306"/>
      <point x="1060" y="1377" type="curve"/>
      <point x="1045" y="1393"/>
      <point x="911" y="1509"/>
    </contour>
  </outline>
</glyph>
<glyph name="dotbelowcomb" format="2">
  <unicode hex="0323"/>
  <anchor x="112" y="0" name="_bottom"/>
  <anchor x="-5" y="-473" name="bottom"/>
  <outline>
    <contour>
      <point x="25" y="-159" type="curve" smooth="yes"/>
      <point x="-77" y="-159"/>
      <point x="-149" y="-217"/>
      <point x="-149" y="-328" type="curve" smooth="yes"/>
      <point x="-149" y="-416"/>
      <point x="-63" y="-473"/>
      <point x="45" y="-473" type="curve" smooth="yes"/>
      <point x="137" y="-473"/>
      <point x="204" y="-393"/>
      <point x="204" y="-307" type="curve" smooth="yes"/>
      <point x="204" y="-222"/>
      <point x="130" y="-159"/>
    </contour>
  </outline>
</glyph>
<glyph name="dieresisbelowcomb" format="2">
  <unicode hex="0324"/>
  <anchor x="343.416" y="0" name="_bottom"/>
  <anchor x="231" y="-461" name="bottom"/>
  <outline>
    <contour>
      <point x="53" y="-470" type="curve" smooth="yes"/>
      <point x="152" y="-470"/>
      <point x="233" y="-408"/>
      <point x="233" y="-321" type="curve" smooth="yes"/>
      <point x="233" y="-229"/>
      <point x="161" y="-155"/>
      <point x="52" y="-155" type="curve" smooth="yes"/>
      <point x="-47" y="-155"/>
      <point x="-126" y="-229"/>
      <point x="-126" y="-323" type="curve" smooth="yes"/>
      <point x="-126" y="-410"/>
      <point x="-41" y="-470"/>
    </contour>
    <contour>
      <point x="485" y="-463" type="curve" smooth="yes"/>
      <point x="572" y="-463"/>
      <point x="668" y="-398"/>
      <point x="668" y="-301" type="curve" smooth="yes"/>
      <point x="668" y="-207"/>
      <point x="580" y="-138"/>
      <point x="479" y="-138" type="curve" smooth="yes"/>
      <point x="388" y="-138"/>
      <point x="312" y="-214"/>
      <point x="312" y="-304" type="curve" smooth="yes"/>
      <point x="312" y="-394"/>
      <point x="391" y="-463"/>
    </contour>
  </outline>
</glyph>
<glyph name="ogonekcomb" format="2">
  <unicode hex="0328"/>
  <anchor x="258" y="0" name="_ogonek"/>
  <outline>
    <contour>
      <point x="372" y="-254" type="line"/>
      <point x="333" y="-282"/>
      <point x="288" y="-291"/>
      <point x="245" y="-291" type="curve" smooth="yes"/>
      <point x="192" y="-291"/>
      <point x="138" y="-267"/>
      <point x="138" y="-195" type="curve" smooth="yes"/>
      <point x="138" y="-115"/>
      <point x="213" y="-31"/>
      <point x="258" y="0" type="curve"/>
      <point x="122" y="58" type="line"/>
      <point x="57" y="39"/>
      <point x="-125" y="-112"/>
      <point x="-125" y="-284" type="curve" smooth="yes"/>
      <point x="-125" y="-451"/>
      <point x="19" y="-536"/>
      <point x="177" y="-536" type="curve" smooth="yes"/>
      <point x="281" y="-536"/>
      <point x="343" y="-523"/>
      <point x="372" y="-511" type="curve"/>
    </contour>
  </outline>
</glyph>
<glyph name="brevebelowcomb" format="2">
  <unicode hex="032E"/>
  <anchor x="271" y="0" name="_bottom"/>
  <anchor x="127" y="-537" name="bottom"/>
  <outline>
    <contour>
      <point x="548" y="-203" type="curve"/>
      <point x="501" y="-180"/>
      <point x="399" y="-159"/>
      <point x="277" y="-159" type="curve"/>
      <point x="261" y="-284"/>
      <point x="225" y="-305"/>
      <point x="187" y="-305" type="curve" smooth="yes"/>
      <point x="159" y="-305"/>
      <point x="136" y="-285"/>
      <point x="136" y="-213" type="curve" smooth="yes"/>
      <point x="136" y="-198"/>
      <point x="137" y="-181"/>
      <point x="140" y="-161" type="curve"/>
      <point x="69" y="-161"/>
      <point x="-76" y="-163"/>
      <point x="-138" y="-182" type="curve"/>
      <point x="-141" y="-210"/>
      <point x="-143" y="-237"/>
      <point x="-143" y="-262" type="curve" smooth="yes"/>
      <point x="-143" y="-434"/>
      <point x="-54" y="-530"/>
      <point x="160" y="-530" type="curve" smooth="yes"/>
      <point x="376" y="-530"/>
      <point x="525" y="-397"/>
    </contour>
  </outline>
</glyph>
<glyph name="Ecedillabreve" format="2">
  <advance width="957"/>
  <unicode hex="1E1C"/>
  <anchor x="337" y="0" name="bottom"/>
  <anchor x="599" y="0" name="ogonek"/>
  <anchor x="797" y="1802" name="top"/>
  <anchor x="224" y="1291" name="topleft"/>
  <outline>
    <contour>
      <point x="237" y="-537" type="curve" smooth="yes"/>
      <point x="471" y="-537"/>
      <point x="724" y="-453"/>
      <point x="724" y="-231" type="curve" smooth="yes"/>
      <point x="724" y="-124"/>
      <point x="660" y="-77"/>
      <point x="564" y="-77" type="curve" smooth="yes"/>
      <point x="494" y="-77"/>
      <point x="435" y="-105"/>
      <point x="407" y="-139" type="curve"/>
      <point x="452" y="39" type="line"/>
      <point x="232" y="27" type="line"/>
      <point x="141" y="-257" type="line"/>
      <point x="178" y="-244"/>
      <point x="262" y="-229"/>
      <point x="339" y="-229" type="curve" smooth="yes"/>
      <point x="404" y="-229"/>
      <point x="455" y="-239"/>
      <point x="455" y="-272" type="curve" smooth="yes"/>
      <point x="455" y="-315"/>
      <point x="386" y="-337"/>
      <point x="264" y="-337" type="curve" smooth="yes"/>
      <point x="231" y="-337"/>
      <point x="149" y="-325"/>
      <point x="121" y="-312" type="curve"/>
      <point x="32" y="-515" type="line"/>
      <point x="52" y="-520"/>
      <point x="132" y="-537"/>
    </contour>
    <component base="E"/>
    <component base="brevecomb.case" xOffset="46" yOffset="30"/>
  </outline>
</glyph>
<glyph name="daggerdbl" format="2">
  <advance width="1060"/>
  <unicode hex="2021"/>
  <outline>
    <contour>
      <point x="846" y="30" type="curve"/>
      <point x="872" y="128"/>
      <point x="890" y="228"/>
      <point x="894" y="264" type="curve"/>
      <point x="721" y="264"/>
      <point x="225" y="233"/>
      <point x="22" y="200" type="curve"/>
      <point x="4" y="133"/>
      <point x="-5" y="69"/>
      <point x="-13" y="-1" type="curve"/>
      <point x="253" y="18"/>
      <point x="697" y="30"/>
    </contour>
    <component base="dagger"/>
  </outline>
</glyph>
<glyph name="ellipsis" format="2">
  <advance width="1544"/>
  <unicode hex="2026"/>
  <outline>
    <contour>
      <point x="632" y="-39" type="curve" smooth="yes"/>
      <point x="796" y="-39"/>
      <point x="917" y="54"/>
      <point x="917" y="225" type="curve" smooth="yes"/>
      <point x="917" y="344"/>
      <point x="842" y="423"/>
      <point x="721" y="423" type="curve" smooth="yes"/>
      <point x="562" y="423"/>
      <point x="437" y="296"/>
      <point x="437" y="130" type="curve" smooth="yes"/>
      <point x="437" y="21"/>
      <point x="515" y="-39"/>
    </contour>
    <contour>
      <point x="1171" y="-17" type="curve" smooth="yes"/>
      <point x="1371" y="-17"/>
      <point x="1421" y="96"/>
      <point x="1421" y="201" type="curve" smooth="yes"/>
      <point x="1421" y="304"/>
      <point x="1362" y="376"/>
      <point x="1245" y="376" type="curve" smooth="yes"/>
      <point x="1093" y="376"/>
      <point x="980" y="299"/>
      <point x="980" y="144" type="curve" smooth="yes"/>
      <point x="980" y="58"/>
      <point x="1042" y="-17"/>
    </contour>
    <component base="period" xOffset="-68"/>
  </outline>
</glyph>
<glyph name="perthousand" format="2">
  <advance width="1700"/>
  <unicode hex="2030"/>
  <outline>
    <contour>
      <point x="-1" y="206" type="curve"/>
      <point x="408" y="428"/>
      <point x="1251" y="903"/>
      <point x="1764" y="1223" type="curve"/>
      <point x="1753" y="1288"/>
      <point x="1688" y="1352"/>
      <point x="1626" y="1408" type="curve"/>
      <point x="1179" y="1092"/>
      <point x="372" y="666"/>
      <point x="-46" y="447" type="curve"/>
      <point x="-46" y="383"/>
      <point x="-28" y="245"/>
    </contour>
    <contour>
      <point x="650" y="93" type="curve" smooth="yes"/>
      <point x="610" y="93"/>
      <point x="589" y="114"/>
      <point x="589" y="149" type="curve" smooth="yes"/>
      <point x="589" y="213"/>
      <point x="641" y="252"/>
      <point x="704" y="252" type="curve" smooth="yes"/>
      <point x="737" y="252"/>
      <point x="766" y="238"/>
      <point x="766" y="200" type="curve" smooth="yes"/>
      <point x="766" y="141"/>
      <point x="704" y="93"/>
    </contour>
    <contour>
      <point x="586" y="-124" type="curve" smooth="yes"/>
      <point x="816" y="-124"/>
      <point x="979" y="6"/>
      <point x="979" y="225" type="curve" smooth="yes"/>
      <point x="979" y="362"/>
      <point x="882" y="454"/>
      <point x="729" y="454" type="curve" smooth="yes"/>
      <point x="524" y="454"/>
      <point x="353" y="284"/>
      <point x="353" y="84" type="curve" smooth="yes"/>
      <point x="353" y="-47"/>
      <point x="460" y="-124"/>
    </contour>
    <contour>
      <point x="461" y="810" type="curve" smooth="yes"/>
      <point x="646" y="810"/>
      <point x="796" y="963"/>
      <point x="796" y="1157" type="curve" smooth="yes"/>
      <point x="796" y="1276"/>
      <point x="727" y="1352"/>
      <point x="591" y="1352" type="curve" smooth="yes"/>
      <point x="392" y="1352"/>
      <point x="218" y="1222"/>
      <point x="218" y="1031" type="curve" smooth="yes"/>
      <point x="218" y="904"/>
      <point x="318" y="810"/>
    </contour>
    <contour>
      <point x="495" y="1022" type="curve" smooth="yes"/>
      <point x="467" y="1022"/>
      <point x="436" y="1034"/>
      <point x="436" y="1067" type="curve" smooth="yes"/>
      <point x="436" y="1119"/>
      <point x="478" y="1167"/>
      <point x="538" y="1167" type="curve" smooth="yes"/>
      <point x="578" y="1167"/>
      <point x="594" y="1147"/>
      <point x="594" y="1119" type="curve" smooth="yes"/>
      <point x="594" y="1064"/>
      <point x="559" y="1022"/>
    </contour>
    <contour>
      <point x="1319" y="222" type="curve" smooth="yes"/>
      <point x="1529" y="222"/>
      <point x="1682" y="364"/>
      <point x="1682" y="581" type="curve" smooth="yes"/>
      <point x="1682" y="719"/>
      <point x="1605" y="800"/>
      <point x="1426" y="800" type="curve" smooth="yes"/>
      <point x="1222" y="800"/>
      <point x="1069" y="652"/>
      <point x="1069" y="453" type="curve" smooth="yes"/>
      <point x="1069" y="319"/>
      <point x="1157" y="222"/>
    </contour>
    <contour>
      <point x="1364" y="424" type="curve" smooth="yes"/>
      <point x="1326" y="424"/>
      <point x="1288" y="441"/>
      <point x="1288" y="478" type="curve" smooth="yes"/>
      <point x="1288" y="529"/>
      <point x="1334" y="583"/>
      <point x="1394" y="583" type="curve" smooth="yes"/>
      <point x="1425" y="583"/>
      <point x="1465" y="560"/>
      <point x="1465" y="520" type="curve" smooth="yes"/>
      <point x="1465" y="471"/>
      <point x="1422" y="424"/>
    </contour>
  </outline>
</glyph>
<glyph name="guilsinglleft" format="2">
  <advance width="850"/>
  <unicode hex="2039"/>
  <outline>
    <contour>
      <point x="736" y="1154" type="curve"/>
      <point x="492" y="954"/>
      <point x="283" y="756"/>
      <point x="80" y="557" type="curve"/>
      <point x="231" y="340"/>
      <point x="396" y="174"/>
      <point x="567" y="34" type="curve"/>
      <point x="612" y="98"/>
      <point x="702" y="273"/>
      <point x="729" y="326" type="curve"/>
      <point x="704" y="344"/>
      <point x="553" y="462"/>
      <point x="461" y="563" type="curve"/>
      <point x="869" y="929" type="line"/>
      <point x="859" y="984"/>
      <point x="789" y="1103"/>
    </contour>
  </outline>
</glyph>
<glyph name="guilsinglright" format="2">
  <advance width="834"/>
  <unicode hex="203A"/>
  <outline>
    <contour>
      <point x="194" y="925" type="curve"/>
      <point x="263" y="862"/>
      <point x="386" y="768"/>
      <point x="459" y="717" type="curve"/>
      <point x="294" y="607"/>
      <point x="70" y="438"/>
      <point x="50" y="422" type="curve"/>
      <point x="66" y="364"/>
      <point x="155" y="202"/>
      <point x="181" y="171" type="curve"/>
      <point x="410" y="298"/>
      <point x="627" y="456"/>
      <point x="855" y="689" type="curve"/>
      <point x="762" y="882"/>
      <point x="540" y="1108"/>
      <point x="491" y="1121" type="curve"/>
      <point x="424" y="1091"/>
      <point x="284" y="992"/>
    </contour>
  </outline>
</glyph>
<glyph name="foursuperior" format="2">
  <advance width="837"/>
  <unicode hex="2074"/>
  <outline>
    <contour>
      <point x="819" y="634" type="curve"/>
      <point x="839" y="709"/>
      <point x="874" y="851"/>
      <point x="875" y="863" type="curve"/>
      <point x="863" y="865"/>
      <point x="829" y="868"/>
      <point x="793" y="868" type="curve"/>
      <point x="817" y="957"/>
      <point x="912" y="1266"/>
      <point x="926" y="1308" type="curve"/>
      <point x="868" y="1308"/>
      <point x="679" y="1293"/>
      <point x="635" y="1286" type="curve"/>
      <point x="596" y="1252"/>
      <point x="294" y="957"/>
      <point x="181" y="834" type="curve"/>
      <point x="177" y="783"/>
      <point x="170" y="690"/>
      <point x="170" y="606" type="curve"/>
      <point x="211" y="609"/>
      <point x="396" y="619"/>
      <point x="473" y="621" type="curve"/>
      <point x="459" y="582"/>
      <point x="443" y="528"/>
      <point x="434" y="495" type="curve"/>
      <point x="484" y="495"/>
      <point x="618" y="503"/>
      <point x="688" y="517" type="curve"/>
      <point x="694" y="544"/>
      <point x="708" y="598"/>
      <point x="718" y="636" type="curve"/>
      <point x="748" y="636"/>
      <point x="789" y="635"/>
    </contour>
    <contour>
      <point x="635" y="1040" type="curve"/>
      <point x="623" y="1009"/>
      <point x="575" y="885"/>
      <point x="563" y="858" type="curve"/>
      <point x="539" y="858"/>
      <point x="483" y="850"/>
      <point x="461" y="846" type="curve"/>
      <point x="476" y="864"/>
      <point x="599" y="1004"/>
    </contour>
  </outline>
</glyph>
<glyph name="ninesuperior" format="2">
  <advance width="766"/>
  <unicode hex="2079"/>
  <outline>
    <contour>
      <point x="652" y="525" type="curve"/>
      <point x="732" y="664"/>
      <point x="855" y="897"/>
      <point x="855" y="1069" type="curve" smooth="yes"/>
      <point x="855" y="1226"/>
      <point x="766" y="1330"/>
      <point x="568" y="1330" type="curve" smooth="yes"/>
      <point x="341" y="1330"/>
      <point x="147" y="1195"/>
      <point x="147" y="977" type="curve" smooth="yes"/>
      <point x="147" y="864"/>
      <point x="220" y="788"/>
      <point x="342" y="788" type="curve" smooth="yes"/>
      <point x="410" y="788"/>
      <point x="491" y="812"/>
      <point x="526" y="855" type="curve"/>
      <point x="473" y="710"/>
      <point x="345" y="525"/>
      <point x="326" y="500" type="curve"/>
      <point x="471" y="500"/>
      <point x="571" y="510"/>
    </contour>
    <contour>
      <point x="520" y="1129" type="curve" smooth="yes"/>
      <point x="562" y="1129"/>
      <point x="590" y="1114"/>
      <point x="590" y="1088" type="curve" smooth="yes"/>
      <point x="590" y="1047"/>
      <point x="535" y="1019"/>
      <point x="479" y="1019" type="curve" smooth="yes"/>
      <point x="441" y="1019"/>
      <point x="419" y="1034"/>
      <point x="419" y="1059" type="curve" smooth="yes"/>
      <point x="419" y="1102"/>
      <point x="475" y="1129"/>
    </contour>
  </outline>
</glyph>
<glyph name="naira" format="2">
  <advance width="1282"/>
  <unicode hex="20A6"/>
  <anchor x="498.585" y="0.0" name="bottom"/>
  <anchor x="844.507" y="1291.0" name="top"/>
  <outline>
    <contour>
      <point x="111" y="873" type="curve"/>
      <point x="52" y="682" type="line"/>
      <point x="245" y="692"/>
      <point x="929" y="702"/>
      <point x="1347" y="702" type="curve"/>
      <point x="1400" y="916" type="line"/>
      <point x="980" y="916"/>
      <point x="302" y="883"/>
    </contour>
    <contour>
      <point x="18" y="547" type="curve"/>
      <point x="-32" y="381" type="line"/>
      <point x="140" y="368"/>
      <point x="817" y="319"/>
      <point x="1243" y="319" type="curve"/>
      <point x="1302" y="514" type="line"/>
      <point x="877" y="514"/>
      <point x="192" y="534"/>
    </contour>
    <component base="N"/>
  </outline>
</glyph>
<glyph name="guarani" format="2">
  <advance width="1000"/>
  <unicode hex="20B2"/>
  <anchor x="362" y="100" name="bottom"/>
  <anchor x="658" y="1207" name="top"/>
  <outline>
    <contour>
      <point x="881" y="1412" type="curve"/>
      <point x="820" y="1412"/>
      <point x="706" y="1411"/>
      <point x="565" y="1409" type="curve"/>
      <point x="556" y="1374"/>
      <point x="525" y="1227"/>
      <point x="525" y="1198" type="curve"/>
      <point x="821" y="1200" type="line"/>
      <point x="844" y="1253"/>
      <point x="873" y="1361"/>
    </contour>
    <contour>
      <point x="568" y="162" type="curve"/>
      <point x="238" y="181" type="line"/>
      <point x="222" y="147"/>
      <point x="150" y="-50"/>
      <point x="142" y="-81" type="curve"/>
      <point x="248" y="-90"/>
      <point x="426" y="-92"/>
      <point x="510" y="-92" type="curve"/>
      <point x="532" y="-50"/>
      <point x="568" y="105"/>
    </contour>
    <contour>
      <point x="452" y="59" type="curve" smooth="yes"/>
      <point x="744" y="59"/>
      <point x="918" y="279"/>
      <point x="983" y="518" type="curve" smooth="yes"/>
      <point x="994" y="560"/>
      <point x="1003" y="621"/>
      <point x="1003" y="659" type="curve"/>
      <point x="895" y="692"/>
      <point x="679" y="722"/>
      <point x="564" y="722" type="curve"/>
      <point x="541" y="667"/>
      <point x="502" y="541"/>
      <point x="486" y="483" type="curve"/>
      <point x="524" y="483"/>
      <point x="618" y="472"/>
      <point x="647" y="463" type="curve"/>
      <point x="646" y="456"/>
      <point x="645" y="449"/>
      <point x="642" y="437" type="curve" smooth="yes"/>
      <point x="631" y="391"/>
      <point x="558" y="356"/>
      <point x="502" y="356" type="curve" smooth="yes"/>
      <point x="404" y="356"/>
      <point x="373" y="425"/>
      <point x="373" y="521" type="curve" smooth="yes"/>
      <point x="373" y="705"/>
      <point x="472" y="918"/>
      <point x="623" y="918" type="curve" smooth="yes"/>
      <point x="716" y="918"/>
      <point x="748" y="858"/>
      <point x="760" y="833" type="curve"/>
      <point x="878" y="895"/>
      <point x="1032" y="1011"/>
      <point x="1082" y="1056" type="curve"/>
      <point x="1022" y="1189"/>
      <point x="834" y="1247"/>
      <point x="678" y="1247" type="curve" smooth="yes"/>
      <point x="287" y="1247"/>
      <point x="33" y="890"/>
      <point x="33" y="483" type="curve" smooth="yes"/>
      <point x="33" y="216"/>
      <point x="180" y="59"/>
    </contour>
  </outline>
</glyph>
<glyph name="cedi" format="2">
  <advance width="1137"/>
  <unicode hex="20B5"/>
  <anchor x="426.585" y="0.0" name="bottom"/>
  <anchor x="772.507" y="1291.0" name="top"/>
  <outline>
    <contour>
      <point x="1044" y="1503" type="curve"/>
      <point x="798" y="1097"/>
      <point x="157" y="107"/>
      <point x="-6" y="-122" type="curve"/>
      <point x="10" y="-145"/>
      <point x="87" y="-181"/>
      <point x="115" y="-191" type="curve"/>
      <point x="342" y="120"/>
      <point x="857" y="924"/>
      <point x="1170" y="1420" type="curve"/>
      <point x="1155" y="1445"/>
      <point x="1086" y="1487"/>
    </contour>
    <component base="C"/>
  </outline>
</glyph>
<glyph name="rupeeIndian" format="2">
  <advance width="1094"/>
  <unicode hex="20B9"/>
  <outline>
    <contour>
      <point x="442" y="-21" type="curve"/>
      <point x="527" y="-11"/>
      <point x="788" y="52"/>
      <point x="859" y="89" type="curve"/>
      <point x="848" y="262"/>
      <point x="681" y="468"/>
      <point x="503" y="468" type="curve"/>
      <point x="760" y="484"/>
      <point x="1004" y="703"/>
      <point x="1004" y="963" type="curve" smooth="yes"/>
      <point x="1004" y="1212"/>
      <point x="780" y="1331"/>
      <point x="521" y="1331" type="curve" smooth="yes"/>
      <point x="445" y="1331"/>
      <point x="360" y="1331"/>
      <point x="291" y="1331" type="curve"/>
      <point x="221" y="1071" type="line"/>
      <point x="247" y="1071"/>
      <point x="336" y="1071"/>
      <point x="366" y="1071" type="curve" smooth="yes"/>
      <point x="463" y="1071"/>
      <point x="622" y="1040"/>
      <point x="622" y="898" type="curve" smooth="yes"/>
      <point x="622" y="704"/>
      <point x="361" y="634"/>
      <point x="135" y="634" type="curve"/>
      <point x="86" y="341" type="line"/>
      <point x="211" y="328"/>
      <point x="402" y="185"/>
    </contour>
    <contour>
      <point x="158" y="728" type="line"/>
      <point x="359" y="728"/>
      <point x="901" y="735"/>
      <point x="1050" y="735" type="curve"/>
      <point x="1125" y="948" type="line"/>
      <point x="1094" y="951"/>
      <point x="908" y="961"/>
      <point x="766" y="961" type="curve" smooth="yes"/>
      <point x="577" y="961"/>
      <point x="269" y="962"/>
      <point x="209" y="965" type="curve"/>
    </contour>
    <contour>
      <point x="221" y="1071" type="line"/>
      <point x="303" y="1068"/>
      <point x="959" y="1048"/>
      <point x="1141" y="1048" type="curve"/>
      <point x="1191" y="1327" type="line"/>
      <point x="956" y="1329"/>
      <point x="366" y="1331"/>
      <point x="291" y="1331" type="curve"/>
    </contour>
  </outline>
</glyph>
<glyph name="ruble" format="2">
  <advance width="1150"/>
  <unicode hex="20BD"/>
  <outline>
    <contour>
      <point x="427" y="-14" type="curve"/>
      <point x="454" y="95"/>
      <point x="615" y="702"/>
      <point x="698" y="1003" type="curve"/>
      <point x="724" y="1006"/>
      <point x="753" y="1009"/>
      <point x="780" y="1009" type="curve" smooth="yes"/>
      <point x="844" y="1009"/>
      <point x="873" y="996"/>
      <point x="873" y="938" type="curve" smooth="yes"/>
      <point x="873" y="803"/>
      <point x="655" y="776"/>
      <point x="421" y="776" type="curve" smooth="yes"/>
      <point x="302" y="776"/>
      <point x="134" y="790"/>
      <point x="122" y="792" type="curve"/>
      <point x="21" y="468" type="line"/>
      <point x="44" y="463"/>
      <point x="213" y="446"/>
      <point x="379" y="446" type="curve" smooth="yes"/>
      <point x="840" y="446"/>
      <point x="1206" y="597"/>
      <point x="1206" y="995" type="curve" smooth="yes"/>
      <point x="1206" y="1201"/>
      <point x="1078" y="1292"/>
      <point x="835" y="1292" type="curve" smooth="yes"/>
      <point x="692" y="1292"/>
      <point x="548" y="1283"/>
      <point x="408" y="1256" type="curve"/>
      <point x="339" y="1087"/>
      <point x="35" y="25"/>
      <point x="28" y="-4" type="curve"/>
      <point x="114" y="-10"/>
      <point x="351" y="-14"/>
    </contour>
    <contour>
      <point x="-83" y="123" type="curve"/>
      <point x="172" y="140"/>
      <point x="681" y="147"/>
      <point x="819" y="147" type="curve"/>
      <point x="848" y="255"/>
      <point x="876" y="395"/>
      <point x="882" y="434" type="curve"/>
      <point x="722" y="434"/>
      <point x="119" y="424"/>
      <point x="-33" y="374" type="curve"/>
      <point x="-53" y="300"/>
      <point x="-70" y="210"/>
    </contour>
  </outline>
</glyph>
<glyph name="numero" format="2">
  <advance width="2000"/>
  <unicode hex="2116"/>
  <anchor x="448.585" y="0.0" name="bottom"/>
  <anchor x="794.507" y="1291.0" name="top"/>
  <outline>
    <contour>
      <point x="1901" y="483" type="curve"/>
      <point x="1859" y="488"/>
      <point x="1770" y="489"/>
      <point x="1660" y="489" type="curve" smooth="yes"/>
      <point x="1546" y="489"/>
      <point x="1417" y="480"/>
      <point x="1350" y="475" type="curve"/>
      <point x="1329" y="398"/>
      <point x="1307" y="316"/>
      <point x="1294" y="257" type="curve"/>
      <point x="1461" y="257"/>
      <point x="1663" y="257"/>
      <point x="1838" y="257" type="curve"/>
      <point x="1854" y="309"/>
      <point x="1883" y="416"/>
    </contour>
    <component base="N" xOffset="-50"/>
    <component base="ordmasculine" xOffset="1232" yOffset="-191"/>
  </outline>
</glyph>
<glyph name="minus" format="2">
  <advance width="900"/>
  <unicode hex="2212"/>
  <outline>
    <contour>
      <point x="976" y="909" type="curve"/>
      <point x="756" y="909"/>
      <point x="353" y="891"/>
      <point x="144" y="869" type="curve"/>
      <point x="119" y="784"/>
      <point x="78" y="634"/>
      <point x="57" y="554" type="curve"/>
      <point x="232" y="561"/>
      <point x="763" y="601"/>
      <point x="881" y="611" type="curve"/>
      <point x="904" y="681"/>
      <point x="949" y="821"/>
    </contour>
  </outline>
</glyph>
<glyph name="notequal" format="2">
  <advance width="1050"/>
  <unicode hex="2260"/>
  <outline>
    <contour>
      <point x="927" y="1427" type="curve"/>
      <point x="819" y="1262"/>
      <point x="308" y="544"/>
      <point x="1" y="231" type="curve"/>
      <point x="14" y="223"/>
      <point x="169" y="130"/>
      <point x="193" y="116" type="curve"/>
      <point x="472" y="394"/>
      <point x="1014" y="1154"/>
      <point x="1107" y="1306" type="curve"/>
      <point x="1094" y="1321"/>
      <point x="956" y="1420"/>
    </contour>
    <component base="equal"/>
  </outline>
</glyph>
<glyph name="lozenge" format="2">
  <advance width="1200"/>
  <unicode hex="25CA"/>
  <outline>
    <contour>
      <point x="633" y="-26" type="line"/>
      <point x="813" y="204"/>
      <point x="993" y="425"/>
      <point x="1178" y="635" type="curve"/>
      <point x="1100" y="855"/>
      <point x="1036" y="1086"/>
      <point x="983" y="1326" type="curve"/>
      <point x="642" y="1316" type="line"/>
      <point x="450" y="1076"/>
      <point x="265" y="877"/>
      <point x="60" y="657" type="curve"/>
      <point x="155" y="452"/>
      <point x="238" y="208"/>
      <point x="307" y="-17" type="curve"/>
    </contour>
    <contour>
      <point x="535" y="351" type="line"/>
      <point x="514" y="434"/>
      <point x="483" y="550"/>
      <point x="454" y="634" type="curve"/>
      <point x="536" y="727"/>
      <point x="636" y="854"/>
      <point x="704" y="949" type="curve"/>
      <point x="724" y="953" type="line"/>
      <point x="736" y="856"/>
      <point x="766" y="754"/>
      <point x="795" y="656" type="curve"/>
      <point x="723" y="579"/>
      <point x="609" y="442"/>
      <point x="547" y="357" type="curve"/>
    </contour>
  </outline>
</glyph>
<glyph name="A.ss02" format="2">
  <advance width="1250"/>
  <anchor x="513" y="0" name="bottom"/>
  <anchor x="1210" y="7" name="ogonek"/>
  <anchor x="912" y="1327" name="top"/>
  <outline>
    <contour>
      <point x="304" y="-15" type="curve"/>
      <point x="329" y="44"/>
      <point x="394" y="180"/>
      <point x="429" y="246" type="curve"/>
      <point x="503" y="251"/>
      <point x="618" y="256"/>
      <point x="711" y="257" type="curve"/>
      <point x="711" y="181"/>
      <point x="696" y="50"/>
      <point x="686" y="-5" type="curve"/>
      <point x="764" y="-1"/>
      <point x="1058" y="56"/>
      <point x="1103" y="77" type="curve"/>
      <point x="1149" y="455"/>
      <point x="1047" y="1163"/>
      <point x="901" y="1338" type="curve"/>
      <point x="675" y="1193"/>
      <point x="189" y="591"/>
      <point x="-76" y="118" type="curve"/>
      <point x="-21" y="90"/>
      <point x="234" y="5"/>
    </contour>
    <contour>
      <point x="551" y="493" type="curve"/>
      <point x="600" y="580"/>
      <point x="691" y="720"/>
      <point x="730" y="777" type="curve"/>
      <point x="739" y="747"/>
      <point x="736" y="562"/>
      <point x="733" y="499" type="curve"/>
      <point x="677" y="498"/>
      <point x="605" y="496"/>
    </contour>
  </outline>
</glyph>
<glyph name="B_B" format="2">
  <advance width="2283"/>
  <anchor x="979" y="0" name="caret_1"/>
  <anchor x="444.585" y="0.0" name="bottom"/>
  <anchor x="790.507" y="1291.0" name="top"/>
  <outline>
    <contour>
      <point x="1574" y="4" type="curve" smooth="yes"/>
      <point x="1930" y="4"/>
      <point x="2205" y="153"/>
      <point x="2205" y="482" type="curve" smooth="yes"/>
      <point x="2205" y="637"/>
      <point x="2093" y="735"/>
      <point x="1994" y="735" type="curve"/>
      <point x="2163" y="751"/>
      <point x="2301" y="865"/>
      <point x="2301" y="1044" type="curve" smooth="yes"/>
      <point x="2301" y="1206"/>
      <point x="2163" y="1282"/>
      <point x="1954" y="1282" type="curve" smooth="yes"/>
      <point x="1772" y="1282"/>
      <point x="1572" y="1286"/>
      <point x="1485" y="1288" type="curve"/>
      <point x="1439" y="1150"/>
      <point x="1108" y="145"/>
      <point x="1078" y="49" type="curve"/>
      <point x="1169" y="24"/>
      <point x="1409" y="4"/>
    </contour>
    <contour>
      <point x="1691" y="346" type="curve" smooth="yes"/>
      <point x="1654" y="346"/>
      <point x="1594" y="346"/>
      <point x="1562" y="346" type="curve"/>
      <point x="1624" y="558" type="line"/>
      <point x="1674" y="565"/>
      <point x="1737" y="568"/>
      <point x="1776" y="568" type="curve" smooth="yes"/>
      <point x="1846" y="568"/>
      <point x="1864" y="537"/>
      <point x="1864" y="502" type="curve" smooth="yes"/>
      <point x="1864" y="402"/>
      <point x="1803" y="346"/>
    </contour>
    <contour>
      <point x="1728" y="886" type="curve"/>
      <point x="1771" y="1041" type="line"/>
      <point x="1801" y="1045"/>
      <point x="1834" y="1045"/>
      <point x="1863" y="1045" type="curve" smooth="yes"/>
      <point x="1928" y="1045"/>
      <point x="1984" y="1030"/>
      <point x="1984" y="986" type="curve" smooth="yes"/>
      <point x="1984" y="951"/>
      <point x="1955" y="923"/>
      <point x="1919" y="908" type="curve" smooth="yes"/>
      <point x="1900" y="900"/>
      <point x="1826" y="886"/>
    </contour>
    <component base="B"/>
  </outline>
</glyph>
<glyph name="C_C" format="2">
  <advance width="2210"/>
  <anchor x="1147" y="0" name="caret_1"/>
  <anchor x="1499.585" y="0.0" name="bottom"/>
  <anchor x="1845.507" y="1291.0" name="top"/>
  <outline>
    <contour>
      <point x="1049" y="103" type="curve"/>
      <point x="1003" y="218"/>
      <point x="939" y="354"/>
      <point x="878" y="448" type="curve"/>
      <point x="821" y="403"/>
      <point x="746" y="376"/>
      <point x="671" y="376" type="curve" smooth="yes"/>
      <point x="564" y="376"/>
      <point x="520" y="438"/>
      <point x="520" y="546" type="curve" smooth="yes"/>
      <point x="520" y="741"/>
      <point x="653" y="946"/>
      <point x="824" y="946" type="curve" smooth="yes"/>
      <point x="925" y="946"/>
      <point x="972" y="891"/>
      <point x="990" y="867" type="curve"/>
      <point x="1039" y="915"/>
      <point x="1197" y="1123"/>
      <point x="1233" y="1173" type="curve"/>
      <point x="1160" y="1259"/>
      <point x="1021" y="1294"/>
      <point x="860" y="1294" type="curve" smooth="yes"/>
      <point x="370" y="1294"/>
      <point x="38" y="981"/>
      <point x="38" y="485" type="curve" smooth="yes"/>
      <point x="38" y="120"/>
      <point x="254" y="-10"/>
      <point x="611" y="-10" type="curve" smooth="yes"/>
      <point x="755" y="-10"/>
      <point x="970" y="39"/>
    </contour>
    <component base="C" xOffset="1073"/>
  </outline>
</glyph>
<glyph name="F_F" format="2">
  <advance width="1868"/>
  <anchor x="707" y="0" name="caret_1"/>
  <anchor x="313" y="0" name="bottom"/>
  <anchor x="659" y="1291" name="top"/>
  <outline>
    <contour>
      <point x="1217" y="-7" type="line"/>
      <point x="1252" y="66"/>
      <point x="1319" y="263"/>
      <point x="1353" y="393" type="curve" smooth="yes"/>
      <point x="1359" y="416"/>
      <point x="1364" y="436"/>
      <point x="1368" y="454" type="curve"/>
      <point x="1469" y="454"/>
      <point x="1634" y="419"/>
      <point x="1689" y="403" type="curve"/>
      <point x="1742" y="535"/>
      <point x="1782" y="659"/>
      <point x="1809" y="759" type="curve"/>
      <point x="1731" y="783"/>
      <point x="1515" y="797"/>
      <point x="1460" y="797" type="curve"/>
      <point x="1474" y="842"/>
      <point x="1488" y="887"/>
      <point x="1501" y="932" type="curve"/>
      <point x="1618" y="932"/>
      <point x="1863" y="915"/>
      <point x="1905" y="911" type="curve"/>
      <point x="1915" y="932"/>
      <point x="1971" y="1067"/>
      <point x="2019" y="1246" type="curve"/>
      <point x="1888" y="1258"/>
      <point x="1450" y="1274"/>
      <point x="1214" y="1274" type="curve"/>
      <point x="1183" y="1096"/>
      <point x="1140" y="910"/>
      <point x="1090" y="723" type="curve" smooth="yes"/>
      <point x="1026" y="482"/>
      <point x="949" y="240"/>
      <point x="869" y="9" type="curve"/>
    </contour>
    <component base="F"/>
  </outline>
</glyph>
<glyph name="N.ss02" format="2">
  <advance width="1282"/>
  <anchor x="560" y="0" name="bottom"/>
  <anchor x="842" y="1291" name="top"/>
  <outline>
    <contour>
      <point x="347" y="-7" type="curve"/>
      <point x="381" y="121"/>
      <point x="481" y="474"/>
      <point x="510" y="578" type="curve"/>
      <point x="570" y="488"/>
      <point x="934" y="62"/>
      <point x="1037" y="-25" type="curve"/>
      <point x="1102" y="99"/>
      <point x="1258" y="631"/>
      <point x="1434" y="1287" type="curve"/>
      <point x="1345" y="1287"/>
      <point x="1117" y="1251"/>
      <point x="1021" y="1233" type="curve"/>
      <point x="907" y="690" type="line"/>
      <point x="768" y="896"/>
      <point x="488" y="1231"/>
      <point x="371" y="1324" type="curve"/>
      <point x="268" y="1050"/>
      <point x="-29" y="172"/>
      <point x="-69" y="21" type="curve"/>
      <point x="3" y="11"/>
      <point x="191" y="-7"/>
    </contour>
  </outline>
</glyph>
<glyph name="N_N" format="2">
  <advance width="2570"/>
  <anchor x="1117" y="0" name="caret_1"/>
  <anchor x="498.585" y="0.0" name="bottom"/>
  <anchor x="844.507" y="1291.0" name="top"/>
  <outline>
    <contour>
      <point x="1194" y="-3" type="curve"/>
      <point x="1336" y="-3"/>
      <point x="1496" y="0"/>
      <point x="1639" y="10" type="curve"/>
      <point x="1679" y="152"/>
      <point x="1771" y="497"/>
      <point x="1788" y="618" type="curve"/>
      <point x="1890" y="299"/>
      <point x="1936" y="119"/>
      <point x="1957" y="-2" type="curve"/>
      <point x="2035" y="-2"/>
      <point x="2315" y="10"/>
      <point x="2330" y="14" type="curve"/>
      <point x="2366" y="72"/>
      <point x="2469" y="386"/>
      <point x="2549" y="685" type="curve" smooth="yes"/>
      <point x="2593" y="849"/>
      <point x="2629" y="1008"/>
      <point x="2645" y="1118" type="curve"/>
      <point x="2587" y="1140"/>
      <point x="2343" y="1159"/>
      <point x="2273" y="1159" type="curve"/>
      <point x="2154" y="586" type="line"/>
      <point x="2119" y="756"/>
      <point x="2039" y="1010"/>
      <point x="1935" y="1203" type="curve"/>
      <point x="1866" y="1203"/>
      <point x="1623" y="1185"/>
      <point x="1552" y="1179" type="curve"/>
      <point x="1329" y="374"/>
      <point x="1253" y="161"/>
    </contour>
    <component base="N"/>
  </outline>
</glyph>
<glyph name="O_O" format="2">
  <advance width="2661"/>
  <anchor x="1300" y="0" name="caret_1"/>
  <anchor x="1841.585" y="0.0" name="bottom"/>
  <anchor x="1968" y="646" name="center"/>
  <anchor x="2202" y="0" name="ogonek"/>
  <anchor x="2187.507" y="1291.0" name="top"/>
  <anchor x="1530.507" y="1291.0" name="topleft"/>
  <anchor x="2505" y="1190" name="topright"/>
  <outline>
    <contour>
      <point x="513" y="-32" type="curve" smooth="yes"/>
      <point x="1043" y="-32"/>
      <point x="1321" y="239"/>
      <point x="1321" y="763" type="curve" smooth="yes"/>
      <point x="1321" y="1110"/>
      <point x="1128" y="1244"/>
      <point x="821" y="1244" type="curve" smooth="yes"/>
      <point x="346" y="1244"/>
      <point x="47" y="916"/>
      <point x="47" y="429" type="curve" smooth="yes"/>
      <point x="47" y="153"/>
      <point x="165" y="-32"/>
    </contour>
    <contour>
      <point x="627" y="331" type="curve" smooth="yes"/>
      <point x="507" y="331"/>
      <point x="453" y="411"/>
      <point x="453" y="526" type="curve" smooth="yes"/>
      <point x="453" y="734"/>
      <point x="573" y="936"/>
      <point x="773" y="936" type="curve" smooth="yes"/>
      <point x="910" y="936"/>
      <point x="962" y="872"/>
      <point x="962" y="762" type="curve" smooth="yes"/>
      <point x="962" y="526"/>
      <point x="853" y="331"/>
    </contour>
    <component base="O" xOffset="1307"/>
  </outline>
</glyph>
<glyph name="Q.ss01" format="2">
  <advance width="1291"/>
  <anchor x="503.585" y="0" name="bottom"/>
  <anchor x="849.507" y="1291" name="top"/>
  <outline>
    <contour>
      <point x="934" y="-335" type="curve"/>
      <point x="1083" y="-202"/>
      <point x="1178" y="-16"/>
      <point x="1188" y="11" type="curve"/>
      <point x="1162" y="13"/>
      <point x="1063" y="74"/>
      <point x="1029" y="173" type="curve"/>
      <point x="1239" y="298"/>
      <point x="1305" y="573"/>
      <point x="1305" y="829" type="curve" smooth="yes"/>
      <point x="1305" y="1096"/>
      <point x="1150" y="1282"/>
      <point x="807" y="1282" type="curve" smooth="yes"/>
      <point x="334" y="1282"/>
      <point x="45" y="920"/>
      <point x="45" y="468" type="curve" smooth="yes"/>
      <point x="45" y="154"/>
      <point x="191" y="-26"/>
      <point x="549" y="-26" type="curve" smooth="yes"/>
      <point x="599" y="-26"/>
      <point x="660" y="-8"/>
      <point x="694" y="3" type="curve"/>
      <point x="694" y="-91"/>
      <point x="768" y="-279"/>
    </contour>
    <contour>
      <point x="610" y="338" type="curve" smooth="yes"/>
      <point x="490" y="338"/>
      <point x="403" y="413"/>
      <point x="403" y="548" type="curve" smooth="yes"/>
      <point x="403" y="757"/>
      <point x="548" y="969"/>
      <point x="782" y="969" type="curve" smooth="yes"/>
      <point x="910" y="969"/>
      <point x="958" y="862"/>
      <point x="958" y="731" type="curve" smooth="yes"/>
      <point x="958" y="515"/>
      <point x="839" y="338"/>
    </contour>
  </outline>
</glyph>
<glyph name="S_S" format="2">
  <advance width="2244"/>
  <anchor x="1048" y="0" name="caret_1"/>
  <anchor x="1555" y="0" name="bottom"/>
  <anchor x="1822" y="1339" name="top"/>
  <outline>
    <contour>
      <point x="483" y="8" type="curve" smooth="yes"/>
      <point x="821" y="8"/>
      <point x="1101" y="144"/>
      <point x="1101" y="465" type="curve" smooth="yes"/>
      <point x="1101" y="678"/>
      <point x="956" y="775"/>
      <point x="690" y="870" type="curve" smooth="yes"/>
      <point x="608" y="899"/>
      <point x="588" y="926"/>
      <point x="588" y="949" type="curve" smooth="yes"/>
      <point x="588" y="993"/>
      <point x="645" y="1019"/>
      <point x="699" y="1019" type="curve" smooth="yes"/>
      <point x="798" y="1019"/>
      <point x="888" y="968"/>
      <point x="956" y="913" type="curve"/>
      <point x="997" y="954"/>
      <point x="1142" y="1112"/>
      <point x="1180" y="1156" type="curve"/>
      <point x="1136" y="1221"/>
      <point x="945" y="1318"/>
      <point x="746" y="1318" type="curve" smooth="yes"/>
      <point x="449" y="1318"/>
      <point x="200" y="1178"/>
      <point x="200" y="897" type="curve" smooth="yes"/>
      <point x="200" y="761"/>
      <point x="294" y="644"/>
      <point x="494" y="575" type="curve" smooth="yes"/>
      <point x="659" y="518"/>
      <point x="710" y="464"/>
      <point x="710" y="416" type="curve" smooth="yes"/>
      <point x="710" y="347"/>
      <point x="632" y="316"/>
      <point x="534" y="316" type="curve" smooth="yes"/>
      <point x="447" y="316"/>
      <point x="342" y="369"/>
      <point x="251" y="468" type="curve"/>
      <point x="211" y="434"/>
      <point x="29" y="276"/>
      <point x="-33" y="212" type="curve"/>
      <point x="109" y="59"/>
      <point x="305" y="8"/>
    </contour>
    <component base="S" xOffset="1092"/>
  </outline>
</glyph>
<glyph name="T_T" format="2">
  <advance width="1977"/>
  <anchor x="905" y="0" name="caret_1"/>
  <anchor x="393" y="0" name="bottom"/>
  <anchor x="551" y="646" name="center"/>
  <anchor x="723.507" y="1291.0" name="top"/>
  <outline>
    <contour>
      <point x="1121" y="915" type="curve"/>
      <point x="1173" y="908"/>
      <point x="1303" y="905"/>
      <point x="1352" y="905" type="curve"/>
      <point x="1278" y="699"/>
      <point x="1112" y="198"/>
      <point x="1060" y="15" type="curve"/>
      <point x="1127" y="3"/>
      <point x="1371" y="-6"/>
      <point x="1474" y="-6" type="curve"/>
      <point x="1492" y="61"/>
      <point x="1678" y="717"/>
      <point x="1728" y="888" type="curve"/>
      <point x="1767" y="888"/>
      <point x="1927" y="868"/>
      <point x="1955" y="857" type="curve"/>
      <point x="1989" y="912"/>
      <point x="2054" y="1059"/>
      <point x="2111" y="1220" type="curve"/>
      <point x="2011" y="1242"/>
      <point x="1520" y="1257"/>
      <point x="1232" y="1257" type="curve"/>
      <point x="1222" y="1230"/>
      <point x="1141" y="992"/>
    </contour>
    <component base="T"/>
  </outline>
</glyph>
<glyph name="V.ss02" format="2">
  <advance width="1183"/>
  <anchor x="501" y="0" name="bottom"/>
  <anchor x="821" y="1291" name="top"/>
  <outline>
    <contour>
      <point x="521" y="-22" type="curve"/>
      <point x="623" y="144"/>
      <point x="1096" y="888"/>
      <point x="1367" y="1221" type="curve"/>
      <point x="1330" y="1262"/>
      <point x="1074" y="1311"/>
      <point x="998" y="1316" type="curve"/>
      <point x="901" y="1218"/>
      <point x="699" y="867"/>
      <point x="638" y="731" type="curve"/>
      <point x="593" y="841"/>
      <point x="599" y="1202"/>
      <point x="623" y="1379" type="curve"/>
      <point x="509" y="1349"/>
      <point x="286" y="1282"/>
      <point x="190" y="1241" type="curve"/>
      <point x="168" y="747"/>
      <point x="337" y="195"/>
    </contour>
  </outline>
</glyph>
<glyph name="W.ss02" format="2">
  <advance width="1344"/>
  <anchor x="540" y="0" name="bottom"/>
  <anchor x="841" y="1291" name="top"/>
  <outline>
    <contour>
      <point x="263" y="-50" type="curve"/>
      <point x="349" y="34"/>
      <point x="545" y="266"/>
      <point x="633" y="384" type="curve"/>
      <point x="668" y="217"/>
      <point x="733" y="16"/>
      <point x="772" y="-40" type="curve"/>
      <point x="898" y="75"/>
      <point x="1312" y="726"/>
      <point x="1518" y="1185" type="curve"/>
      <point x="1215" y="1320" type="line"/>
      <point x="1151" y="1178"/>
      <point x="1026" y="922"/>
      <point x="922" y="728" type="curve"/>
      <point x="883" y="834"/>
      <point x="838" y="953"/>
      <point x="810" y="1007" type="curve"/>
      <point x="739" y="942"/>
      <point x="632" y="818"/>
      <point x="535" y="702" type="curve"/>
      <point x="541" y="893"/>
      <point x="561" y="1175"/>
      <point x="577" y="1303" type="curve"/>
      <point x="188" y="1214" type="line"/>
      <point x="120" y="643"/>
      <point x="212" y="43"/>
    </contour>
  </outline>
</glyph>
<glyph name="a.ss01" format="2">
  <advance width="1200"/>
  <anchor x="457.585" y="0" name="bottom"/>
  <anchor x="1029" y="17" name="ogonek"/>
  <anchor x="742.415" y="1063" name="top"/>
  <outline>
    <contour>
      <point x="409" y="-10" type="curve" smooth="yes"/>
      <point x="550" y="-10"/>
      <point x="644" y="42"/>
      <point x="682" y="99" type="curve"/>
      <point x="678" y="77"/>
      <point x="669" y="19"/>
      <point x="666" y="-3" type="curve"/>
      <point x="782" y="-3"/>
      <point x="958" y="10"/>
      <point x="1029" y="17" type="curve"/>
      <point x="1036" y="46"/>
      <point x="1235" y="906"/>
      <point x="1253" y="1036" type="curve"/>
      <point x="1196" y="1041"/>
      <point x="994" y="1044"/>
      <point x="927" y="1044" type="curve"/>
      <point x="917" y="1024"/>
      <point x="896" y="978"/>
      <point x="879" y="918" type="curve"/>
      <point x="877" y="934"/>
      <point x="811" y="1007"/>
      <point x="657" y="1007" type="curve" smooth="yes"/>
      <point x="295" y="1007"/>
      <point x="63" y="713"/>
      <point x="63" y="344" type="curve" smooth="yes"/>
      <point x="63" y="141"/>
      <point x="163" y="-10"/>
    </contour>
    <contour>
      <point x="534" y="359" type="curve" smooth="yes"/>
      <point x="474" y="359"/>
      <point x="428" y="389"/>
      <point x="428" y="458" type="curve" smooth="yes"/>
      <point x="428" y="578"/>
      <point x="512" y="673"/>
      <point x="640" y="673" type="curve" smooth="yes"/>
      <point x="697" y="673"/>
      <point x="756" y="658"/>
      <point x="789" y="638" type="curve"/>
      <point x="774" y="579"/>
      <point x="754" y="493"/>
      <point x="743" y="436" type="curve"/>
      <point x="673" y="366"/>
      <point x="598" y="359"/>
    </contour>
  </outline>
</glyph>
<glyph name="aogonek.ss01" format="2">
  <advance width="1200"/>
  <anchor x="457.585" y="0.0" name="bottom"/>
  <anchor x="1029" y="17" name="ogonek"/>
  <anchor x="742.415" y="1063.0" name="top"/>
  <outline>
    <contour>
      <point x="1013" y="-237" type="line"/>
      <point x="974" y="-265"/>
      <point x="929" y="-274"/>
      <point x="886" y="-274" type="curve" smooth="yes"/>
      <point x="833" y="-274"/>
      <point x="779" y="-250"/>
      <point x="779" y="-178" type="curve" smooth="yes"/>
      <point x="779" y="-98"/>
      <point x="854" y="-14"/>
      <point x="899" y="17" type="curve"/>
      <point x="763" y="75" type="line"/>
      <point x="698" y="56"/>
      <point x="516" y="-95"/>
      <point x="516" y="-267" type="curve" smooth="yes"/>
      <point x="516" y="-434"/>
      <point x="660" y="-519"/>
      <point x="818" y="-519" type="curve" smooth="yes"/>
      <point x="922" y="-519"/>
      <point x="984" y="-506"/>
      <point x="1013" y="-494" type="curve"/>
    </contour>
    <component base="a.ss01"/>
  </outline>
</glyph>
<glyph name="b_b" format="2">
  <advance width="2432"/>
  <anchor x="1142" y="0" name="caret_1"/>
  <anchor x="1690.585" y="5.0" name="bottom"/>
  <anchor x="2084.4700000000003" y="1475.0" name="top"/>
  <outline>
    <contour>
      <point x="106" y="0" type="curve"/>
      <point x="215" y="0"/>
      <point x="365" y="1"/>
      <point x="490" y="9" type="curve"/>
      <point x="494" y="27"/>
      <point x="500" y="71"/>
      <point x="503" y="110" type="curve"/>
      <point x="529" y="69"/>
      <point x="652" y="3"/>
      <point x="765" y="3" type="curve" smooth="yes"/>
      <point x="1079" y="3"/>
      <point x="1271" y="230"/>
      <point x="1271" y="554" type="curve" smooth="yes"/>
      <point x="1271" y="773"/>
      <point x="1160" y="942"/>
      <point x="934" y="942" type="curve" smooth="yes"/>
      <point x="817" y="942"/>
      <point x="691" y="903"/>
      <point x="604" y="823" type="curve"/>
      <point x="623" y="1000"/>
      <point x="649" y="1265"/>
      <point x="653" y="1310" type="curve"/>
      <point x="564" y="1305"/>
      <point x="300" y="1275"/>
      <point x="282" y="1270" type="curve"/>
      <point x="248" y="1039"/>
      <point x="122" y="161"/>
    </contour>
    <contour>
      <point x="623" y="361" type="curve" smooth="yes"/>
      <point x="599" y="361"/>
      <point x="577" y="363"/>
      <point x="560" y="367" type="curve"/>
      <point x="566" y="399"/>
      <point x="577" y="461"/>
      <point x="581" y="504" type="curve"/>
      <point x="640" y="551"/>
      <point x="720" y="582"/>
      <point x="817" y="582" type="curve" smooth="yes"/>
      <point x="880" y="582"/>
      <point x="904" y="543"/>
      <point x="904" y="484" type="curve" smooth="yes"/>
      <point x="904" y="393"/>
      <point x="752" y="361"/>
    </contour>
    <component base="b" xOffset="1233" yOffset="5"/>
  </outline>
</glyph>
<glyph name="brevecomb.case" format="2">
  <anchor x="637" y="1291" name="_top"/>
  <anchor x="751" y="1772" name="top"/>
  <outline>
    <contour>
      <point x="1071" y="1727" type="curve"/>
      <point x="1024" y="1750"/>
      <point x="922" y="1771"/>
      <point x="800" y="1771" type="curve"/>
      <point x="784" y="1646"/>
      <point x="748" y="1625"/>
      <point x="710" y="1625" type="curve" smooth="yes"/>
      <point x="682" y="1625"/>
      <point x="659" y="1645"/>
      <point x="659" y="1717" type="curve" smooth="yes"/>
      <point x="659" y="1732"/>
      <point x="660" y="1749"/>
      <point x="663" y="1769" type="curve"/>
      <point x="592" y="1769"/>
      <point x="447" y="1767"/>
      <point x="385" y="1748" type="curve"/>
      <point x="382" y="1720"/>
      <point x="380" y="1693"/>
      <point x="380" y="1668" type="curve" smooth="yes"/>
      <point x="380" y="1496"/>
      <point x="469" y="1400"/>
      <point x="683" y="1400" type="curve" smooth="yes"/>
      <point x="899" y="1400"/>
      <point x="1048" y="1533"/>
    </contour>
  </outline>
</glyph>
<glyph name="brevecomb_acutecomb" format="2">
  <anchor x="569" y="1063" name="_top"/>
  <anchor x="787" y="2003" name="top"/>
  <outline>
    <contour>
      <point x="1002" y="1492" type="curve"/>
      <point x="955" y="1515"/>
      <point x="853" y="1536"/>
      <point x="731" y="1536" type="curve"/>
      <point x="715" y="1411"/>
      <point x="679" y="1390"/>
      <point x="641" y="1390" type="curve" smooth="yes"/>
      <point x="613" y="1390"/>
      <point x="590" y="1410"/>
      <point x="590" y="1482" type="curve" smooth="yes"/>
      <point x="590" y="1497"/>
      <point x="591" y="1514"/>
      <point x="594" y="1534" type="curve"/>
      <point x="523" y="1534"/>
      <point x="378" y="1532"/>
      <point x="316" y="1513" type="curve"/>
      <point x="313" y="1485"/>
      <point x="311" y="1458"/>
      <point x="311" y="1433" type="curve" smooth="yes"/>
      <point x="311" y="1261"/>
      <point x="400" y="1165"/>
      <point x="614" y="1165" type="curve" smooth="yes"/>
      <point x="830" y="1165"/>
      <point x="979" y="1298"/>
    </contour>
    <contour>
      <point x="823" y="2013" type="curve"/>
      <point x="745" y="1989"/>
      <point x="512" y="1842"/>
      <point x="435" y="1744" type="curve"/>
      <point x="465" y="1710"/>
      <point x="611" y="1629"/>
      <point x="636" y="1619" type="curve"/>
      <point x="689" y="1653"/>
      <point x="886" y="1751"/>
      <point x="1036" y="1804" type="curve"/>
      <point x="1019" y="1830"/>
      <point x="940" y="1950"/>
    </contour>
  </outline>
</glyph>
<glyph name="brevecomb_gravecomb" format="2">
  <anchor x="521" y="887" name="_top"/>
  <anchor x="703" y="1676" name="top"/>
  <outline>
    <contour>
      <point x="863" y="1225" type="curve"/>
      <point x="826" y="1243"/>
      <point x="745" y="1260"/>
      <point x="649" y="1260" type="curve"/>
      <point x="636" y="1161"/>
      <point x="608" y="1145"/>
      <point x="578" y="1145" type="curve" smooth="yes"/>
      <point x="556" y="1145"/>
      <point x="538" y="1161"/>
      <point x="538" y="1217" type="curve" smooth="yes"/>
      <point x="538" y="1229"/>
      <point x="538" y="1243"/>
      <point x="541" y="1258" type="curve"/>
      <point x="485" y="1258"/>
      <point x="370" y="1257"/>
      <point x="321" y="1242" type="curve"/>
      <point x="319" y="1220"/>
      <point x="317" y="1199"/>
      <point x="317" y="1179" type="curve" smooth="yes"/>
      <point x="317" y="1043"/>
      <point x="388" y="967"/>
      <point x="557" y="967" type="curve" smooth="yes"/>
      <point x="727" y="967"/>
      <point x="845" y="1072"/>
    </contour>
    <contour>
      <point x="443" y="1676" type="curve"/>
      <point x="359" y="1605"/>
      <point x="292" y="1491"/>
      <point x="280" y="1470" type="curve"/>
      <point x="387" y="1442"/>
      <point x="582" y="1380"/>
      <point x="657" y="1337" type="curve"/>
      <point x="680" y="1347"/>
      <point x="760" y="1423"/>
      <point x="796" y="1481" type="curve"/>
      <point x="703" y="1568"/>
      <point x="495" y="1670"/>
    </contour>
  </outline>
</glyph>
<glyph name="brevecomb_hookabovecomb" format="2">
  <anchor x="552" y="1122" name="_top"/>
  <anchor x="759" y="1989" name="top"/>
  <outline>
    <contour>
      <point x="909" y="1476" type="curve"/>
      <point x="870" y="1494"/>
      <point x="786" y="1512"/>
      <point x="685" y="1512" type="curve"/>
      <point x="672" y="1409"/>
      <point x="643" y="1391"/>
      <point x="611" y="1391" type="curve" smooth="yes"/>
      <point x="588" y="1391"/>
      <point x="569" y="1408"/>
      <point x="569" y="1467" type="curve" smooth="yes"/>
      <point x="569" y="1480"/>
      <point x="570" y="1494"/>
      <point x="572" y="1510" type="curve"/>
      <point x="514" y="1510"/>
      <point x="394" y="1508"/>
      <point x="343" y="1493" type="curve"/>
      <point x="341" y="1470"/>
      <point x="339" y="1447"/>
      <point x="339" y="1427" type="curve" smooth="yes"/>
      <point x="339" y="1285"/>
      <point x="413" y="1206"/>
      <point x="589" y="1206" type="curve" smooth="yes"/>
      <point x="767" y="1206"/>
      <point x="890" y="1316"/>
    </contour>
    <contour>
      <point x="765" y="1670" type="curve"/>
      <point x="863" y="1680"/>
      <point x="986" y="1720"/>
      <point x="986" y="1844" type="curve" smooth="yes"/>
      <point x="986" y="1959"/>
      <point x="883" y="1989"/>
      <point x="733" y="1989" type="curve" smooth="yes"/>
      <point x="655" y="1989"/>
      <point x="518" y="1968"/>
      <point x="491" y="1959" type="curve"/>
      <point x="491" y="1807" type="line"/>
      <point x="523" y="1814"/>
      <point x="607" y="1828"/>
      <point x="665" y="1828" type="curve" smooth="yes"/>
      <point x="698" y="1828"/>
      <point x="717" y="1827"/>
      <point x="717" y="1801" type="curve" smooth="yes"/>
      <point x="717" y="1773"/>
      <point x="666" y="1766"/>
      <point x="575" y="1766" type="curve"/>
      <point x="568" y="1746"/>
      <point x="537" y="1642"/>
      <point x="527" y="1605" type="curve"/>
      <point x="743" y="1609" type="line"/>
      <point x="750" y="1627"/>
      <point x="757" y="1645"/>
    </contour>
  </outline>
</glyph>
